<?xml version="1.0" encoding="UTF-8"?>
<svg id="Layer_2" data-name="Layer 2" xmlns="http://www.w3.org/2000/svg" viewBox="0 0 50.39 51">
  <defs>
    <style>
      .cls-1 {
        fill: #005c51;
      }
    </style>
  </defs>
  <g id="_격리_모드" data-name="격리 모드">
    <g>
      <g>
        <path class="cls-1" d="M27.31,34.99c-.11,0-.22-.04-.31-.11-.06-.05-6.28-5.07-4.34-14.1,1.08-5.02,4.58-9.04,10.4-11.95,.18-.09,.39-.06,.54,.06s.22,.33,.16,.52c0,.04-.02,.07-.03,.11,.8-.93,2.08-1.94,4.11-2.71l.69-.25c.64-.23,1.19-.43,1.61-.61,3.1-1.29,4.82-3.23,4.85-5.47,0-.2,.12-.37,.3-.45,.18-.08,.39-.05,.53,.08,.07,.07,7.38,6.63,3.37,14.77-2.04,4.13-7.93,6.19-10.64,6.95,.31,.11,.65,.21,1.02,.29,.2,.05,.35,.21,.38,.42,.03,.2-.07,.4-.25,.5l-1.46,.81c-5.83,3.21-11.33,6.25-10.43,10.53,.04,.21-.05,.42-.23,.53-.08,.05-.17,.08-.26,.08Zm5.25-24.77c-5.03,2.74-7.96,6.28-8.92,10.77-1.37,6.39,1.51,10.53,3.07,12.23,.21-4.27,5.71-7.3,11.04-10.24l.41-.22c-.52-.18-.97-.4-1.37-.64-.17-.11-.27-.31-.23-.51,.04-.2,.19-.36,.39-.4,.09-.02,8.92-1.87,11.34-6.75,2.99-6.04-.76-11.06-2.42-12.86-.47,2.2-2.33,4.05-5.34,5.3-.43,.18-1,.39-1.65,.62l-.68,.25c-4.3,1.62-4.78,4.38-4.79,4.41-.04,.26-.28,.44-.53,.42-.26-.02-.46-.23-.46-.5,0-.62,.04-1.25,.15-1.86Z"/>
        <path class="cls-1" d="M28.49,37.78c-.19,0-.38-.11-.46-.3l-1.18-2.79c-3.39-9.12-1.28-14.03,7.77-18.13,8.03-3.64,9.83-8.2,9.84-8.25,.1-.26,.38-.39,.64-.29,.26,.1,.39,.38,.29,.64-.07,.2-1.92,4.98-10.37,8.81-8.54,3.87-10.43,8.28-7.25,16.85l1.17,2.76c.11,.25-.01,.55-.27,.66-.06,.03-.13,.04-.2,.04Z"/>
      </g>
      <g>
        <path class="cls-1" d="M42.8,51H20c-3.86,0-7-3.14-7-7V16.33H.5c-.28,0-.5-.22-.5-.5,0-3.86,3.14-7,7-7s7,3.14,7,7v28.17c0,3.31,2.69,6,6,6h22.8c.28,0,.5,.22,.5,.5s-.22,.5-.5,.5ZM1.02,15.33H12.98c-.25-3.08-2.84-5.5-5.98-5.5S1.28,12.26,1.02,15.33Z"/>
        <path class="cls-1" d="M36.3,44.5c-.28,0-.5-.22-.5-.5v-15.94c0-.28,.22-.5,.5-.5s.5,.22,.5,.5v15.94c0,.28-.22,.5-.5,.5Z"/>
        <path class="cls-1" d="M28.4,9.83H7c-.28,0-.5-.22-.5-.5s.22-.5,.5-.5H28.4c.28,0,.5,.22,.5,.5s-.22,.5-.5,.5Z"/>
        <path class="cls-1" d="M42.8,51c-.28,0-.5-.22-.5-.5s.22-.5,.5-.5c3.14,0,5.72-2.42,5.98-5.5H26.98c-.26,3.63-3.29,6.5-6.98,6.5s-7-3.14-7-7c0-.28,.22-.5,.5-.5s.5,.22,.5,.5c0,3.31,2.69,6,6,6s6-2.69,6-6c0-.28,.22-.5,.5-.5h22.8c.28,0,.5,.22,.5,.5,0,3.86-3.14,7-7,7Z"/>
      </g>
    </g>
  </g>
</svg>