<?xml version="1.0" encoding="UTF-8"?>
<svg id="Layer_2" data-name="Layer 2" xmlns="http://www.w3.org/2000/svg" viewBox="0 0 52.03 28.74">
  <defs>
    <style>
      .cls-1, .cls-2 {
        fill: none;
        stroke: #005c51;
        stroke-width: .6px;
      }

      .cls-2 {
        stroke-linejoin: round;
      }

      .cls-3 {
        fill: #005c51;
      }
    </style>
  </defs>
  <g id="Layer_1-2" data-name="Layer 1">
    <g>
      <g>
        <g>
          <rect class="cls-2" x="26.02" y="26.94"/>
          <rect class="cls-2" x="26.02" y="26.94"/>
          <polygon class="cls-2" points="26.02 26.94 26.02 26.94 26.02 26.94 26.02 26.94"/>
          <polygon class="cls-2" points="26.02 26.94 26.02 26.94 26.02 26.94 26.02 26.94 26.02 26.94 26.02 26.94"/>
          <polygon class="cls-2" points="26.02 26.94 26.02 26.94 26.02 26.94 26.02 26.94"/>
          <rect class="cls-2" x="26.02" y="26.94"/>
          <polygon class="cls-2" points="26.02 26.94 26.02 26.94 26.02 26.94 26.02 26.94"/>
          <polygon class="cls-2" points="26.02 26.94 26.02 26.94 26.02 26.94 26.02 26.94 26.02 26.94 26.02 26.94"/>
          <polygon class="cls-2" points="26.02 26.94 26.02 26.94 26.02 26.94 26.02 26.94"/>
          <rect class="cls-2" x="26.02" y="26.94"/>
          <polygon class="cls-2" points="26.02 26.94 26.02 26.94 26.02 26.94 26.02 26.94"/>
          <rect class="cls-2" x="26.02" y="26.94" width="0" height="0" transform="translate(-9.22 14.25) rotate(-26.19)"/>
          <rect class="cls-2" x="26.02" y="26.94"/>
          <rect class="cls-2" x="26.02" y="26.94"/>
          <rect class="cls-2" x="26.02" y="26.94"/>
          <rect class="cls-2" x="26.02" y="26.94"/>
          <polygon class="cls-2" points="26.02 26.94 26.02 26.94 26.02 26.94 26.02 26.94"/>
          <rect class="cls-2" x="26.02" y="26.94"/>
          <polygon class="cls-2" points="26.02 26.94 26.02 26.94 26.02 26.94 26.02 26.94"/>
          <polygon class="cls-2" points="26.02 26.94 26.02 26.94 26.02 26.94 26.02 26.94"/>
          <polygon class="cls-2" points="26.02 26.94 26.02 26.94 26.02 26.94 26.02 26.94"/>
          <polygon class="cls-2" points="26.02 26.94 26.02 26.94 26.02 26.94 26.02 26.94"/>
          <polygon class="cls-2" points="26.02 26.94 26.02 26.94 26.02 26.94 26.02 26.94"/>
          <polygon class="cls-2" points="26.02 26.94 26.02 26.94 26.02 26.94 26.02 26.94"/>
          <polygon class="cls-2" points="26.02 26.94 26.02 26.94 26.02 26.94 26.02 26.94"/>
          <rect class="cls-2" x="26.02" y="26.94"/>
          <polygon class="cls-2" points="26.02 26.94 26.02 26.94 26.02 26.94 26.02 26.94"/>
          <polygon class="cls-2" points="26.02 26.94 26.02 26.94 26.02 26.94 26.02 26.94"/>
          <rect class="cls-2" x="26.02" y="26.94"/>
          <polygon class="cls-2" points="26.02 26.94 26.02 26.94 26.02 26.94 26.02 26.94"/>
          <polygon class="cls-2" points="26.02 26.94 26.02 26.94 26.02 26.94 26.02 26.94"/>
          <rect class="cls-2" x="26.02" y="26.94"/>
          <path class="cls-2" d="M26.02,26.94l-11.4-6.69c-.57,1-1.02,2.08-1.32,3.23l12.72,3.46h0Z"/>
          <path class="cls-2" d="M26.02,26.94l-9.31-9.47c-.81,.82-1.51,1.76-2.09,2.77l11.4,6.69h0Z"/>
          <path class="cls-2" d="M26.02,26.94l-6.58-11.59c-1,.59-1.92,1.3-2.73,2.13l9.31,9.47h0Z"/>
          <rect class="cls-2" x="26.02" y="26.94"/>
          <polygon class="cls-2" points="26.02 26.94 26.02 26.94 26.02 26.94 26.02 26.94"/>
          <rect class="cls-2" x="26.02" y="26.94"/>
          <rect class="cls-2" x="26.02" y="26.94"/>
          <rect class="cls-2" x="26.02" y="26.94" width="0" height="0"/>
          <rect class="cls-2" x="26.02" y="26.94"/>
          <polygon class="cls-2" points="26.02 26.94 26.02 26.94 26.02 26.94 26.02 26.94"/>
          <path class="cls-2" d="M26.02,26.94h0l3.41-12.93c-1.09-.3-2.23-.46-3.41-.46v13.38h0Z"/>
          <path class="cls-2" d="M26.02,13.55c-1.18,0-2.32,.16-3.41,.46l3.41,12.93V13.55Z"/>
          <path class="cls-2" d="M26.02,26.94l6.58-11.59c-.98-.58-2.05-1.03-3.18-1.34l-3.41,12.93h0Z"/>
          <path class="cls-2" d="M26.02,26.94l-3.41-12.93c-1.13,.31-2.19,.76-3.18,1.34l6.58,11.59h0Z"/>
          <path class="cls-2" d="M35.33,17.47c-.81-.82-1.73-1.54-2.73-2.13l-6.58,11.59,9.31-9.47Z"/>
          <path class="cls-2" d="M26.02,26.94h0l12.72-3.46c-.3-1.14-.75-2.23-1.32-3.23l-11.4,6.69h0Z"/>
          <path class="cls-2" d="M26.02,26.94h0l11.4-6.69c-.58-1.02-1.28-1.95-2.09-2.77l-9.31,9.47h0Z"/>
        </g>
        <g>
          <path class="cls-1" d="M37.33,20.32l11.68-6.75c-1.17-2.01-2.59-3.86-4.22-5.5l-9.54,9.54c.8,.8,1.5,1.71,2.08,2.7Z"/>
          <path class="cls-1" d="M35.25,17.62l9.54-9.54c-1.63-1.64-3.48-3.06-5.5-4.22l-6.75,11.68c.99,.57,1.9,1.27,2.7,2.08Z"/>
          <path class="cls-1" d="M32.55,15.54l6.75-11.68c-1.99-1.15-4.14-2.05-6.4-2.65l-3.49,13.03c1.12,.3,2.17,.74,3.15,1.3Z"/>
          <path class="cls-1" d="M38.63,23.47l13.03-3.49c-.61-2.27-1.5-4.42-2.65-6.4l-11.68,6.75c.57,.98,1.01,2.03,1.31,3.15Z"/>
          <path class="cls-1" d="M14.71,20.32L3.02,13.57c-1.15,1.99-2.05,4.14-2.65,6.4l13.03,3.49c.3-1.12,.74-2.17,1.3-3.15Z"/>
          <path class="cls-1" d="M19.49,15.54L12.74,3.85c-2.01,1.17-3.86,2.59-5.5,4.22l9.54,9.54c.8-.8,1.71-1.5,2.7-2.08Z"/>
          <path class="cls-1" d="M16.78,17.61L7.24,8.08c-1.64,1.64-3.06,3.48-4.22,5.5l11.68,6.75c.57-.99,1.27-1.9,2.08-2.7Z"/>
          <path class="cls-1" d="M22.64,14.23L19.14,1.2c-2.27,.61-4.42,1.5-6.4,2.65l6.75,11.68c.98-.56,2.03-1.01,3.15-1.3Z"/>
          <path class="cls-1" d="M29.4,14.23l3.49-13.03c-2.19-.59-4.5-.9-6.87-.9V13.79c1.17,0,2.3,.15,3.38,.44Z"/>
          <path class="cls-1" d="M26.02,13.79V.3c-2.38,0-4.68,.31-6.87,.9l3.49,13.03c1.08-.29,2.21-.44,3.38-.44Z"/>
        </g>
      </g>
      <path class="cls-3" d="M27.49,27.26c0,.81-.66,1.48-1.48,1.48s-1.48-.66-1.48-1.48,.66-1.48,1.48-1.48,1.48,.66,1.48,1.48Z"/>
    </g>
  </g>
</svg>