<?xml version="1.0" encoding="UTF-8"?>
<svg id="Layer_2" data-name="Layer 2" xmlns="http://www.w3.org/2000/svg" viewBox="0 0 17.32 20.69">
  <defs>
    <style>
      .cls-1 {
        fill: none;
        stroke: #005c52;
        stroke-miterlimit: 10;
        stroke-width: .4px;
      }
    </style>
  </defs>
  <g id="Layer_1-2" data-name="Layer 1">
    <g>
      <rect class="cls-1" x="2.48" y="2.97" width="12.36" height="14.74"/>
      <path class="cls-1" d="M8.66,1.03s-4.39,.41-5.63-.51C3.03,.52,.29-.9,.2,2.24c0,0,.71,6.48,.44,8.1,.27,1.62-.44,8.1-.44,8.1,.09,3.14,2.83,1.72,2.83,1.72,1.24-.91,5.63-.51,5.63-.51,0,0,4.39-.41,5.63,.51,0,0,2.74,1.42,2.83-1.72,0,0-.71-6.48-.44-8.1-.27-1.62,.44-8.1,.44-8.1-.09-3.14-2.83-1.72-2.83-1.72-1.24,.91-5.63,.51-5.63,.51Z"/>
    </g>
  </g>
</svg>