<svg xmlns="http://www.w3.org/2000/svg" xmlns:xlink="http://www.w3.org/1999/xlink" width="1919.611" height="1025.611" viewBox="0 0 1919.611 1025.611">
  <defs>
    <clipPath id="clip-path">
      <rect x="-514" y="-96" width="1919.611" height="1025.611" fill="none"/>
    </clipPath>
  </defs>
  <g id="스크롤_그룹_7" data-name="스크롤 그룹 7" transform="translate(514 96)" clip-path="url(#clip-path)" style="isolation: isolate">
    <path id="패스_109" data-name="패스 109" d="M254.032,341.5,255.8,326a1.707,1.707,0,0,1,3.392,0l1.772,15.5a1.7,1.7,0,0,0,1.5,1.5l15.5,1.772a1.7,1.7,0,0,1,0,3.387l-15.5,1.772a1.692,1.692,0,0,0-1.5,1.5l-1.772,15.5a1.707,1.707,0,0,1-3.392,0l-1.772-15.5a1.7,1.7,0,0,0-1.5-1.5l-15.5-1.772a1.7,1.7,0,0,1,0-3.387l15.5-1.772A1.692,1.692,0,0,0,254.032,341.5Z" transform="translate(704.135 -324.491)" fill="#fff"/>
    <path id="패스_110" data-name="패스 110" d="M247.208,335.231l1.119-9.786a1.078,1.078,0,0,1,2.141,0l1.119,9.786a1.074,1.074,0,0,0,.944.947l9.786,1.119a1.076,1.076,0,0,1,0,2.138l-9.786,1.119a1.068,1.068,0,0,0-.944.944l-1.119,9.786a1.078,1.078,0,0,1-2.141,0l-1.119-9.786a1.074,1.074,0,0,0-.944-.947l-9.786-1.119a1.076,1.076,0,0,1,0-2.138l9.786-1.119A1.068,1.068,0,0,0,247.208,335.231Z" transform="translate(-27.167 341.245) rotate(30)" stroke="#fff" stroke-miterlimit="10" stroke-width="1"/>
    <circle id="타원_48" data-name="타원 48" cx="6.5" cy="6.5" r="6.5" transform="translate(120.331 726.863)" fill="#fff"/>
  </g>
</svg>
