<svg xmlns="http://www.w3.org/2000/svg" width="1917.889" height="350.206" viewBox="0 0 1917.889 350.206">
  <g id="그룹_311" data-name="그룹 311" transform="translate(0 -9454.431)">
    <g id="그룹_310" data-name="그룹 310">
      <path id="패스_239" data-name="패스 239" d="M474.942,291.64C608.1,264.986,740.7,268.366,759.95,316.449c23.2,57.956-144.463,170.611-312.876,221.936s-323.742,45.952-346.942-12c-16.77-41.895,16.512-90.555,112.928-138.818" transform="translate(-16.242 9220.31) rotate(-3)" fill="none" stroke="#1a1818" stroke-miterlimit="10" stroke-width="1"/>
      <circle id="타원_35" data-name="타원 35" cx="3.5" cy="3.5" r="3.5" transform="translate(248 9784.906)"/>
      <g id="타원_36" data-name="타원 36" transform="translate(169 9738.906)" fill="none" stroke="#000" stroke-width="1">
        <circle cx="2.5" cy="2.5" r="2.5" stroke="none"/>
        <circle cx="2.5" cy="2.5" r="2" fill="none"/>
      </g>
      <g id="그룹_56" data-name="그룹 56" transform="translate(1704.789 7323.798) rotate(49)">
        <g id="그룹_55" data-name="그룹 55" transform="translate(837 2726)">
          <circle id="타원_28" data-name="타원 28" cx="16.611" cy="16.611" r="16.611" transform="translate(14.063 0)" fill="#fffffb" stroke="#000" stroke-miterlimit="10" stroke-width="1"/>
          <path id="패스_69" data-name="패스 69" d="M13.773,120.241c0-1.545,5.793-2.9,14.494-3.661" transform="translate(-13.773 -103.631)" fill="rgba(0,0,0,0)" stroke="#000" stroke-miterlimit="10" stroke-width="1"/>
          <path id="패스_70" data-name="패스 70" d="M60.624,116.579c8.7.76,14.5,2.116,14.5,3.662,0,2.38-13.733,4.309-30.674,4.309s-30.674-1.929-30.674-4.309" transform="translate(-13.773 -103.63)" fill="rgba(0,0,0,0)" stroke="#000" stroke-miterlimit="10" stroke-width="1"/>
        </g>
      </g>
      <g id="타원_31" data-name="타원 31" transform="translate(748 9493.906)" fill="#fffffb" stroke="#000" stroke-width="1">
        <circle cx="12.5" cy="12.5" r="12.5" stroke="none"/>
        <circle cx="12.5" cy="12.5" r="12" fill="none"/>
      </g>
    </g>
    <path id="패스_274" data-name="패스 274" d="M-19394,3986.906l1917.889,35.741" transform="translate(19394 5765)" fill="none"/>
  </g>
</svg>
