<svg xmlns="http://www.w3.org/2000/svg" width="160" height="160" viewBox="0 0 160 160">
  <g id="패스_270" data-name="패스 270" fill="none">
    <path d="M80,0A80,80,0,1,1,0,80,80,80,0,0,1,80,0Z" stroke="none"/>
    <path d="M 80 2 C 69.46917724609375 2 59.25443267822266 4.062026977539062 49.63950347900391 8.128799438476562 C 45.01811218261719 10.08348083496094 40.56060791015625 12.50296020507812 36.39084625244141 15.32000732421875 C 32.26019287109375 18.11061096191406 28.37582397460938 21.31552124023438 24.84567260742188 24.84567260742188 C 21.31552124023438 28.37582397460938 18.11061096191406 32.26019287109375 15.32000732421875 36.39084625244141 C 12.50296020507812 40.56060791015625 10.08348083496094 45.01811218261719 8.128799438476562 49.63950347900391 C 4.062026977539062 59.25443267822266 2 69.46917724609375 2 80 C 2 89.26551818847656 3.605941772460938 98.33236694335938 6.773178100585938 106.9486999511719 C 9.828933715820312 115.2617645263672 14.24639892578125 122.9251251220703 19.90284729003906 129.7259368896484 C 23.50067138671875 134.0517578125 27.564453125 137.9976501464844 31.98135375976562 141.4539794921875 C 36.42623901367188 144.9322204589844 41.24715423583984 147.9288482666016 46.31019592285156 150.3606719970703 C 51.46211242675781 152.8351745605469 56.89478302001953 154.7386779785156 62.45730590820312 156.0183258056641 C 68.17326354980469 157.3332672119141 74.07547760009766 158 80 158 C 90.53082275390625 158 100.7455596923828 155.9379730224609 110.3605041503906 151.8712005615234 C 114.9818878173828 149.9165191650391 119.4393920898438 147.4970397949219 123.6091537475586 144.6799926757812 C 127.7398071289062 141.8893890380859 131.6241760253906 138.6844787597656 135.1543273925781 135.1543273925781 C 138.6844787597656 131.6241760253906 141.8893890380859 127.7398071289062 144.6799926757812 123.6091537475586 C 147.4970397949219 119.4393920898438 149.9165191650391 114.9818878173828 151.8712005615234 110.3605041503906 C 155.9379730224609 100.7455596923828 158 90.53082275390625 158 80 C 158 69.46917724609375 155.9379730224609 59.25443267822266 151.8712005615234 49.63950347900391 C 149.9165191650391 45.01811218261719 147.4970397949219 40.56060791015625 144.6799926757812 36.39084625244141 C 141.8893890380859 32.26019287109375 138.6844787597656 28.37582397460938 135.1543273925781 24.84567260742188 C 131.6241760253906 21.31552124023438 127.7398071289062 18.11061096191406 123.6091537475586 15.32000732421875 C 119.4393920898438 12.50296020507812 114.9818878173828 10.08348083496094 110.3605041503906 8.128799438476562 C 100.7455596923828 4.062026977539062 90.53082275390625 2 80 2 M 80 0 C 124.1827850341797 0 160 35.81721496582031 160 80 C 160 124.1827850341797 124.1827850341797 160 80 160 C 55.25765228271484 160 33.13871765136719 148.7677154541016 18.36517333984375 131.0048217773438 C 6.934219360351562 117.2612609863281 0 99.44041442871094 0 80 C 0 35.81721496582031 35.81721496582031 0 80 0 Z" stroke="none" fill="#000"/>
  </g>
</svg>
