<svg xmlns="http://www.w3.org/2000/svg" width="1919.622" height="1026.349" viewBox="0 0 1919.622 1026.349">
  <g id="그룹_309" data-name="그룹 309" transform="translate(-0.356 -7661.903)">
    <path id="패스_106" data-name="패스 106" d="M-4323.039,10644.4c-77.255,2.55-480.939,29.861-656.425,321.13-194.552,322.914-486.563,520.043-819.123,546.826-177.254,14.275-334.218,88.788-443.792,157.469" transform="translate(6243 -2982)" fill="none" stroke="#fffffb" stroke-width="1" opacity="0.75"/>
    <path id="패스_109" data-name="패스 109" d="M254.032,341.5,255.8,326a1.707,1.707,0,0,1,3.392,0l1.772,15.5a1.7,1.7,0,0,0,1.5,1.5l15.5,1.772a1.7,1.7,0,0,1,0,3.387l-15.5,1.772a1.692,1.692,0,0,0-1.5,1.5l-1.772,15.5a1.707,1.707,0,0,1-3.392,0l-1.772-15.5a1.7,1.7,0,0,0-1.5-1.5l-15.5-1.772a1.7,1.7,0,0,1,0-3.387l15.5-1.772A1.692,1.692,0,0,0,254.032,341.5Z" transform="translate(1218.805 7434.646)" fill="#acacac"/>
    <path id="패스_110" data-name="패스 110" d="M247.208,335.231l1.119-9.786a1.078,1.078,0,0,1,2.141,0l1.119,9.786a1.074,1.074,0,0,0,.944.947l9.786,1.119a1.076,1.076,0,0,1,0,2.138l-9.786,1.119a1.068,1.068,0,0,0-.944.944l-1.119,9.786a1.078,1.078,0,0,1-2.141,0l-1.119-9.786a1.074,1.074,0,0,0-.944-.947l-9.786-1.119a1.076,1.076,0,0,1,0-2.138l9.786-1.119A1.068,1.068,0,0,0,247.208,335.231Z" transform="translate(487.502 8100.382) rotate(30)" stroke="#acacac" stroke-miterlimit="10" stroke-width="1"/>
    <circle id="타원_48" data-name="타원 48" cx="6.5" cy="6.5" r="6.5" transform="translate(635 8486)" fill="#acacac"/>
  </g>
</svg>
