<svg id="그룹_328" data-name="그룹 328" xmlns="http://www.w3.org/2000/svg" width="192.611" height="192.17" viewBox="0 0 192.611 192.17">
  <g id="그룹_327" data-name="그룹 327" transform="translate(0 0)">
    <path id="패스_376" data-name="패스 376" d="M342.441,307.369c-2.479-.853-5.147.42-6.378,4.022-1.25,3.607.076,6.242,2.555,7.095a4.124,4.124,0,0,0,5-1.744l1.313.45a5.46,5.46,0,0,1-6.735,2.513c-3.352-1.153-4.833-4.616-3.409-8.754s4.719-5.957,8.073-4.8a5.451,5.451,0,0,1,3.763,6.123l-1.313-.45A4.125,4.125,0,0,0,342.441,307.369Z" transform="translate(-214.098 -302.841)" fill="#141416"/>
    <path id="패스_377" data-name="패스 377" d="M342.422,321.47l-1.207-.559,5.864-12.67,1.207.558Z" transform="translate(-210.059 -301.43)" fill="#141416"/>
    <path id="패스_378" data-name="패스 378" d="M345.105,315.343c1.6-2.8,4.362-3.76,6.75-2.393,2.371,1.378,2.915,4.242,1.3,7.032-1.592,2.782-4.344,3.747-6.716,2.37C344.048,320.986,343.5,318.116,345.105,315.343Zm1.919,5.987c1.856,1.071,3.842-.014,4.991-2s1.1-4.278-.758-5.34c-1.861-1.084-3.867.022-5.016,2.013S345.151,320.25,347.025,321.33Z" transform="translate(-208.335 -299.057)" fill="#141416"/>
    <path id="패스_379" data-name="패스 379" d="M350.225,324.54l-1.062-.8,6.308-8.351,1.016.768-1,1.321.093.071a3.159,3.159,0,0,1,3.542.428c1.69,1.278,2.021,3.207.517,5.2l-4.077,5.4-1.046-.791,4.021-5.321a2.474,2.474,0,0,0-.412-3.741,2.678,2.678,0,0,0-3.984.638Z" transform="translate(-205.451 -297.287)" fill="#141416"/>
    <path id="패스_380" data-name="패스 380" d="M357.043,322.845c2.212-2.289,5.15-2.6,7.114-.7,1.626,1.6,2.079,4.27-.395,6.829l-.431.444L357.756,324c-1.615,1.743-1.694,3.763-.2,5.216a2.933,2.933,0,0,0,2.891.845l1.011.983a4.049,4.049,0,0,1-4.724-.984C354.605,328,354.817,325.121,357.043,322.845Zm6.114,4.814a3.186,3.186,0,0,0,.18-4.643,3.429,3.429,0,0,0-4.78.171Z" transform="translate(-201.922 -294.09)" fill="#141416"/>
    <path id="패스_381" data-name="패스 381" d="M373.921,331.061c-1.49-2.158-4.392-2.717-7.52-.548-3.145,2.159-3.645,5.066-2.155,7.224a4.124,4.124,0,0,0,5.06,1.566l.787,1.142a5.461,5.461,0,0,1-6.91-1.975c-2.013-2.919-1.148-6.583,2.453-9.068s7.333-1.994,9.348.926a5.451,5.451,0,0,1-.608,7.161l-.787-1.142A4.128,4.128,0,0,0,373.921,331.061Z" transform="translate(-197.938 -290.088)" fill="#141416"/>
    <path id="패스_382" data-name="패스 382" d="M369.4,336.939c2.878-1.441,5.7-.716,6.937,1.741,1.209,2.455.079,5.136-2.809,6.561-2.859,1.434-5.681.716-6.893-1.739C365.4,341.046,366.53,338.354,369.4,336.939Zm-1.711,6.04c.953,1.916,3.2,2.111,5.256,1.09s3.281-2.946,2.321-4.858c-.948-1.929-3.227-2.118-5.281-1.1S366.727,341.045,367.688,342.979Z" transform="translate(-195.608 -285.218)" fill="#141416"/>
    <path id="패스_383" data-name="패스 383" d="M372.764,343.222c3.07-1.065,5.686-.09,6.532,2.34a3.3,3.3,0,0,1-.953,3.689l.032.092,5.139-1.768.433,1.258-13.194,4.539-.42-1.221,1.785-.615-.043-.128a3.321,3.321,0,0,1-3.027-2.341C368.206,346.644,369.681,344.271,372.764,343.222Zm-2.548,5.624c.66,1.893,2.714,2.409,5.055,1.605s3.6-2.442,2.946-4.355c-.671-1.951-2.755-2.406-5-1.622C370.953,345.241,369.56,346.912,370.215,348.846Z" transform="translate(-194.058 -281.397)" fill="#141416"/>
    <path id="패스_384" data-name="패스 384" d="M380.619,349.977l.31,1.275-10.182,2.487-.311-1.275Zm3.686-.2a.968.968,0,0,1-.671,1.156.938.938,0,0,1-1.111-.722.927.927,0,0,1,.653-1.153A.955.955,0,0,1,384.3,349.773Z" transform="translate(-193.117 -277.782)" fill="#141416"/>
    <path id="패스_385" data-name="패스 385" d="M371.232,355.43l-.2-1.314,10.341-1.6.194,1.256-1.638.253.019.114a3.161,3.161,0,0,1,2.24,2.774c.324,2.095-.782,3.708-3.248,4.09l-6.684,1.032-.2-1.3,6.588-1.017a2.473,2.473,0,0,0,2.311-2.968,2.677,2.677,0,0,0-3.3-2.318Z" transform="translate(-192.774 -275.758)" fill="#141416"/>
    <path id="패스_386" data-name="패스 386" d="M372.11,360.112l.035,1.389c-1.122.268-1.643,1.39-1.607,2.9.049,1.908.964,3.035,2.874,3l2.313-.058,0-.115a3.287,3.287,0,0,1-2.087-3.15c-.062-2.507,1.88-4.379,5.1-4.45,3.2-.09,5.338,1.622,5.412,4.207a3.345,3.345,0,0,1-2.022,3.253l0,.117,1.949-.049.032,1.292-10.743.268c-2.66.055-3.921-1.755-3.984-4.281C369.325,362.12,370.274,360.4,372.11,360.112Zm2.708,4.1c.059,2,1.592,3.125,4.07,3.063,2.422-.062,4.12-1.242,4.069-3.267-.054-2.063-1.9-3.126-4.226-3.058C376.379,361,374.777,362.167,374.818,364.211Z" transform="translate(-193.73 -271.645)" fill="#141416"/>
    <path id="패스_387" data-name="패스 387" d="M384,377.265c.446-2.583-1.237-5.016-4.989-5.654-3.76-.659-6.152,1.071-6.6,3.654a4.124,4.124,0,0,0,2.521,4.66l-.237,1.368a5.465,5.465,0,0,1-3.558-6.248c.6-3.495,3.787-5.507,8.1-4.763s6.638,3.708,6.035,7.2a5.452,5.452,0,0,1-5.447,4.694l.237-1.367A4.129,4.129,0,0,0,384,377.265Z" transform="translate(-192.761 -265.549)" fill="#141416"/>
    <path id="패스_388" data-name="패스 388" d="M369.968,379.195l.359-1.28,13.438,3.769-.359,1.28Z" transform="translate(-193.388 -261.034)" fill="#141416"/>
    <path id="패스_389" data-name="패스 389" d="M375.33,381.275c3.014,1.133,4.4,3.7,3.434,6.275-.981,2.558-3.72,3.55-6.728,2.4-3-1.128-4.386-3.687-3.4-6.243C369.6,381.129,372.339,380.128,375.33,381.275Zm-5.6,2.845c-.762,2,.624,3.785,2.771,4.6s4.393.411,5.145-1.594c.771-2.008-.638-3.812-2.784-4.627S370.5,382.1,369.731,384.12Z" transform="translate(-194.344 -259.359)" fill="#141416"/>
    <path id="패스_390" data-name="패스 390" d="M367.865,387.643l.624-1.174,9.242,4.921-.6,1.123-1.463-.78-.055.1a3.159,3.159,0,0,1,.133,3.567c-1,1.871-2.85,2.5-5.054,1.327l-5.973-3.182.616-1.158,5.888,3.138a2.475,2.475,0,0,0,3.632-.994A2.679,2.679,0,0,0,373.6,390.7Z" transform="translate(-196.431 -256.075)" fill="#141416"/>
    <path id="패스_391" data-name="패스 391" d="M369.768,394.285c2.607,1.822,3.371,4.668,1.81,6.905-1.316,1.855-3.883,2.724-6.8.686l-.5-.355,4.469-6.352c-1.973-1.318-3.978-1.077-5.175.624a2.926,2.926,0,0,0-.379,2.986l-.81,1.15a4.043,4.043,0,0,1,.226-4.812C364.3,392.691,367.173,392.448,369.768,394.285Zm-3.785,6.787a3.18,3.18,0,0,0,4.607-.553,3.423,3.423,0,0,0-.919-4.689Z" transform="translate(-198.186 -252.243)" fill="#141416"/>
    <path id="패스_392" data-name="패스 392" d="M365.225,412.162c1.9-1.809,1.991-4.765-.645-7.509-2.627-2.766-5.578-2.8-7.472-.991a4.122,4.122,0,0,0-.746,5.243l-1,.957a5.461,5.461,0,0,1,.859-7.134c2.564-2.447,6.319-2.171,9.34.992s3.123,6.926.559,9.375a5.449,5.449,0,0,1-7.166.529l1-.957A4.127,4.127,0,0,0,365.225,412.162Z" transform="translate(-202.41 -247.595)" fill="#141416"/>
    <path id="패스_393" data-name="패스 393" d="M357.568,408.726c1.885,2.611,1.619,5.518-.608,7.126-2.231,1.588-5.06.9-6.929-1.722-1.87-2.6-1.615-5.5.616-7.084C352.874,405.439,355.712,406.121,357.568,408.726ZM351.331,408c-1.738,1.246-1.572,3.5-.234,5.363s3.433,2.769,5.168,1.515c1.752-1.245,1.575-3.526.239-5.39S353.088,406.745,351.331,408Z" transform="translate(-205.671 -244.644)" fill="#141416"/>
    <path id="패스_394" data-name="패스 394" d="M352.32,413.082c1.543,2.863,1,5.607-1.269,6.833a3.308,3.308,0,0,1-3.8-.352l-.085.046,2.569,4.8-1.174.629-6.6-12.322,1.141-.61.893,1.668.119-.065a3.328,3.328,0,0,1,1.832-3.367C348.206,409.12,350.789,410.2,352.32,413.082Zm-5.97-1.621c-1.766.956-1.948,3.068-.777,5.254s2.991,3.174,4.776,2.216c1.823-.976,1.94-3.107.806-5.205C350.033,411.613,348.159,410.5,346.35,411.461Z" transform="translate(-209.625 -242.521)" fill="#141416"/>
    <path id="패스_395" data-name="패스 395" d="M344.883,421.951l-1.205.512-4.084-9.634,1.205-.512Zm.793,3.6a.965.965,0,0,1-1.248-.476.938.938,0,0,1,.534-1.21.925.925,0,0,1,1.24.458A.951.951,0,0,1,345.676,425.549Z" transform="translate(-210.999 -241.088)" fill="#141416"/>
    <path id="패스_396" data-name="패스 396" d="M339.659,413.7l1.269-.409,3.22,9.975-1.212.392-.51-1.58-.111.035a3.162,3.162,0,0,1-2.387,2.657c-2.021.652-3.791-.185-4.559-2.564l-2.082-6.447,1.248-.4,2.052,6.357a2.479,2.479,0,0,0,3.3,1.814,2.684,2.684,0,0,0,1.768-3.635Z" transform="translate(-214.656 -240.526)" fill="#141416"/>
    <path id="패스_397" data-name="패스 397" d="M334.92,415.162l-1.365.258c-.445-1.063-1.637-1.4-3.114-1.12-1.877.354-2.839,1.438-2.495,3.314l.427,2.273.114-.022a3.29,3.29,0,0,1,2.774-2.562c2.464-.463,4.621,1.152,5.207,4.318.6,3.142-.744,5.525-3.281,6.013a3.344,3.344,0,0,1-3.534-1.472l-.114.021.36,1.913-1.27.24-1.987-10.553c-.482-2.618,1.1-4.152,3.585-4.619C332.492,412.735,334.342,413.4,334.92,415.162Zm-3.613,3.329c-1.957.379-2.826,2.073-2.368,4.507.449,2.379,1.886,3.864,3.875,3.488,2.027-.381,2.779-2.378,2.34-4.657C334.729,419.514,333.318,418.123,331.307,418.491Z" transform="translate(-218.559 -240.671)" fill="#141416"/>
    <path id="패스_398" data-name="패스 398" d="M320.6,429.547c2.622.038,4.766-2,4.814-5.812.066-3.817-2.013-5.913-4.637-5.951A4.127,4.127,0,0,0,316.563,421l-1.389-.021a5.466,5.466,0,0,1,5.622-4.487c3.548.052,6.033,2.886,5.967,7.264s-2.634,7.136-6.182,7.082a5.452,5.452,0,0,1-5.485-4.652l1.389.021A4.13,4.13,0,0,0,320.6,429.547Z" transform="translate(-225.202 -238.668)" fill="#141416"/>
    <path id="패스_399" data-name="패스 399" d="M313.685,416.229l1.321.15-1.57,13.856-1.321-.15Z" transform="translate(-226.931 -238.82)" fill="#141416"/>
    <path id="패스_400" data-name="패스 400" d="M314.584,421.679c-.634,3.158-2.946,4.94-5.641,4.4-2.681-.558-4.1-3.1-3.447-6.256.63-3.139,2.932-4.924,5.615-4.367C313.8,416,315.235,418.545,314.584,421.679Zm-3.709-5.068c-2.1-.428-3.637,1.226-4.095,3.476s.3,4.4,2.4,4.82c2.1.441,3.657-1.24,4.117-3.49S312.991,417.043,310.874,416.611Z" transform="translate(-230.861 -239.326)" fill="#141416"/>
    <path id="패스_401" data-name="패스 401" d="M307.435,415.166l1.261.43-3.378,9.921-1.2-.409.534-1.572-.111-.038a3.162,3.162,0,0,1-3.5.7c-2.009-.684-2.929-2.416-2.123-4.78l2.183-6.414,1.243.423-2.153,6.322a2.477,2.477,0,0,0,1.567,3.428,2.682,2.682,0,0,0,3.588-1.858Z" transform="translate(-234.755 -240.688)" fill="#141416"/>
    <path id="패스_402" data-name="패스 402" d="M300.978,418.275c-1.384,2.867-4.076,4.081-6.536,2.894-2.044-1-3.314-3.4-1.766-6.608l.27-.555,6.994,3.4c.986-2.161.43-4.1-1.446-5.016a2.934,2.934,0,0,0-3.011.1l-1.267-.616a4.046,4.046,0,0,1,4.793-.545C301.678,412.617,302.378,415.415,300.978,418.275Zm-7.314-2.654a3.184,3.184,0,0,0,1.284,4.464,3.43,3.43,0,0,0,4.487-1.66Z" transform="translate(-238.6 -241.965)" fill="#141416"/>
    <path id="패스_403" data-name="패스 403" d="M283.823,416.583c2.092,1.586,5.029,1.21,7.326-1.833,2.318-3.039,1.881-5.962-.209-7.55a4.135,4.135,0,0,0-5.306.095l-1.106-.839a5.468,5.468,0,0,1,7.193-.284c2.831,2.145,3.153,5.9.506,9.395s-6.355,4.193-9.185,2.046a5.458,5.458,0,0,1-1.664-7l1.106.84A4.135,4.135,0,0,0,283.823,416.583Z" transform="translate(-245.12 -245.353)" fill="#141416"/>
    <path id="패스_404" data-name="패스 404" d="M285.01,408.524c-2.28,2.27-5.188,2.464-7.126.521-1.916-1.953-1.682-4.852.61-7.108,2.267-2.256,5.169-2.458,7.085-.507C287.515,403.376,287.289,406.283,285.01,408.524Zm-.267-6.267c-1.5-1.52-3.7-1-5.329.613s-2.193,3.822-.681,5.335c1.5,1.534,3.727,1,5.356-.611S286.261,403.791,284.743,402.257Z" transform="translate(-247.526 -248.174)" fill="#141416"/>
    <path id="패스_405" data-name="패스 405" d="M281.479,404.076c-2.578,1.973-5.368,1.869-6.934-.172a3.3,3.3,0,0,1-.254-3.8l-.058-.077-4.324,3.291-.8-1.058,11.1-8.446.782,1.025-1.5,1.145.082.106a3.324,3.324,0,0,1,3.607,1.273C284.731,399.4,284.074,402.111,281.479,404.076Zm.654-6.141c-1.221-1.588-3.332-1.434-5.3.065s-2.654,3.449-1.43,5.058c1.25,1.64,3.37,1.419,5.256-.03C282.565,401.589,283.362,399.567,282.133,397.935Z" transform="translate(-251.868 -251.817)" fill="#141416"/>
    <path id="패스_406" data-name="패스 406" d="M267.482,399.663a.965.965,0,0,1,.27-1.31.941.941,0,0,1,1.283.335.928.928,0,0,1-.256,1.3A.953.953,0,0,1,267.482,399.663Zm3.431-1.357-.7-1.112,8.875-5.577.7,1.112Z" transform="translate(-252.894 -253.09)" fill="#141416"/>
    <path id="패스_407" data-name="패스 407" d="M277.7,391.738l.608,1.183-9.319,4.79-.583-1.131,1.477-.76-.054-.1a3.162,3.162,0,0,1-3.008-1.926c-.97-1.888-.43-3.771,1.793-4.913l6.024-3.1.6,1.167L269.3,390a2.476,2.476,0,0,0-1.256,3.553,2.682,2.682,0,0,0,3.872,1.156Z" transform="translate(-253.461 -256.473)" fill="#141416"/>
    <path id="패스_408" data-name="패스 408" d="M276.965,387.206l-.472-1.3c.979-.611,1.118-1.84.607-3.254-.649-1.795-1.872-2.572-3.671-1.932l-2.175.787.04.109a3.289,3.289,0,0,1,2.975,2.327c.852,2.357-.395,4.746-3.427,5.831-3.006,1.1-5.572.152-6.46-2.275a3.341,3.341,0,0,1,.888-3.724l-.039-.109-1.831.662-.439-1.215,10.1-3.651c2.506-.9,4.273.422,5.133,2.8C278.972,384.42,278.615,386.353,276.965,387.206Zm-3.864-3.032c-.687-1.872-2.5-2.458-4.828-1.616-2.275.823-3.509,2.48-2.822,4.384.7,1.938,2.792,2.362,4.973,1.562C272.64,387.715,273.787,386.1,273.1,384.175Z" transform="translate(-255.431 -260.303)" fill="#141416"/>
    <path id="패스_409" data-name="패스 409" d="M259.976,375.284c.381,2.6,2.739,4.387,6.509,3.825,3.78-.543,5.518-2.934,5.137-5.529a4.131,4.131,0,0,0-3.85-3.649l-.2-1.374a5.47,5.47,0,0,1,5.33,4.836c.513,3.513-1.888,6.42-6.221,7.055s-7.469-1.461-7.984-4.975a5.457,5.457,0,0,1,3.72-6.161l.2,1.374A4.131,4.131,0,0,0,259.976,375.284Z" transform="translate(-257.943 -266.46)" fill="#141416"/>
    <path id="패스_410" data-name="패스 410" d="M272.156,366.043l.06,1.332L258.254,368l-.06-1.33Z" transform="translate(-258.194 -267.917)" fill="#141416"/>
    <path id="패스_411" data-name="패스 411" d="M265.567,368.081c-3.221-.128-5.349-2.13-5.242-4.878.126-2.738,2.415-4.545,5.635-4.4,3.2.126,5.329,2.12,5.2,4.858C271.057,366.411,268.766,368.226,265.567,368.081Zm4.42-4.468c.092-2.141-1.787-3.4-4.082-3.5s-4.3,1-4.384,3.137c-.1,2.15,1.806,3.419,4.1,3.517S269.9,365.773,269.987,363.613Z" transform="translate(-256.96 -272.119)" fill="#141416"/>
    <path id="패스_412" data-name="패스 412" d="M271.322,359.828l-.223,1.311-10.314-1.754.213-1.254,1.634.278.019-.114a3.155,3.155,0,0,1-1.25-3.34c.355-2.088,1.915-3.27,4.374-2.852l6.668,1.133-.221,1.292-6.572-1.118a2.472,2.472,0,0,0-3.13,2.087,2.675,2.675,0,0,0,2.4,3.242Z" transform="translate(-256.692 -276.047)" fill="#141416"/>
    <path id="패스_413" data-name="패스 413" d="M266.769,354.044c-3.049-.915-4.671-3.381-3.888-6,.668-2.175,2.836-3.807,6.245-2.785l.591.18-2.254,7.441c2.289.632,4.12-.224,4.725-2.218a2.938,2.938,0,0,0-.577-2.957l.408-1.348a4.048,4.048,0,0,1,1.3,4.646C272.464,353.843,269.813,354.974,266.769,354.044Zm1.468-7.64a3.184,3.184,0,0,0-4.205,1.972,3.427,3.427,0,0,0,2.344,4.168Z" transform="translate(-255.59 -280.147)" fill="#141416"/>
    <path id="패스_414" data-name="패스 414" d="M266.734,336.754c-1.232,2.314-.395,5.153,2.97,6.935,3.365,1.8,6.179.908,7.412-1.406a4.128,4.128,0,0,0-.935-5.216l.653-1.226a5.465,5.465,0,0,1,1.422,7.049c-1.667,3.133-5.322,4.047-9.185,1.991s-5.144-5.6-3.476-8.733a5.454,5.454,0,0,1,6.643-2.754l-.652,1.226A4.129,4.129,0,0,0,266.734,336.754Z" transform="translate(-254.318 -287.011)" fill="#141416"/>
    <path id="패스_415" data-name="패스 415" d="M273.655,336.761c-2.607-1.893-3.262-4.736-1.649-6.962,1.624-2.205,4.528-2.436,7.122-.529,2.591,1.882,3.253,4.719,1.63,6.924C279.145,338.418,276.235,338.657,273.655,336.761Zm6.153-1.261c1.262-1.728.4-3.817-1.453-5.171s-4.128-1.559-5.384.175c-1.276,1.73-.395,3.844,1.458,5.2S278.534,337.244,279.809,335.5Z" transform="translate(-250.693 -289.987)" fill="#141416"/>
    <path id="패스_416" data-name="패스 416" d="M277.743,332.416c-2.362-2.235-2.7-5.011-.935-6.885a3.311,3.311,0,0,1,3.72-.856l.066-.069-3.943-3.752.918-.965,10.123,9.634-.891.937-1.371-1.3-.093.1a3.331,3.331,0,0,1-.684,3.773C282.89,334.89,280.1,334.672,277.743,332.416Zm6.175-.33c1.378-1.46.889-3.523-.907-5.234s-3.833-2.076-5.229-.607c-1.425,1.495-.869,3.558.866,5.193C280.375,333.1,282.5,333.561,283.918,332.086Z" transform="translate(-248.051 -294.678)" fill="#141416"/>
    <path id="패스_417" data-name="패스 417" d="M279.154,317.962a.965.965,0,0,1,1.337.06.937.937,0,0,1-.128,1.318.927.927,0,0,1-1.324-.046A.953.953,0,0,1,279.154,317.962Zm1.885,3.172.987-.866,6.91,7.88-.986.866Z" transform="translate(-246.236 -295.933)" fill="#141416"/>
    <path id="패스_418" data-name="패스 418" d="M289.746,326.864l-1.073.788-6.2-8.43,1.025-.754.983,1.335.093-.07a3.158,3.158,0,0,1,1.42-3.272c1.708-1.256,3.651-1.022,5.131.987l4.01,5.449-1.055.777-3.954-5.371a2.471,2.471,0,0,0-3.7-.673,2.677,2.677,0,0,0-.526,4Z" transform="translate(-244.12 -297.112)" fill="#141416"/>
    <path id="패스_419" data-name="패스 419" d="M293.639,325.552l1.215-.673c.758.87,2,.814,3.311.084,1.671-.926,2.245-2.259,1.327-3.934L298.371,319l-.1.057a3.291,3.291,0,0,1-1.829,3.306c-2.193,1.216-4.75.362-6.3-2.46-1.561-2.8-1.032-5.483,1.224-6.746a3.342,3.342,0,0,1,3.82.288l.1-.057-.943-1.7,1.13-.626,5.21,9.4c1.283,2.333.261,4.289-1.951,5.515C296.71,327.092,294.743,327.046,293.639,325.552Zm2.382-4.3c1.742-.976,2.033-2.859.831-5.027-1.174-2.118-3.006-3.077-4.777-2.095-1.806,1-1.893,3.133-.757,5.161C292.451,321.359,294.228,322.237,296.021,321.255Z" transform="translate(-240.193 -299.795)" fill="#141416"/>
    <path id="패스_420" data-name="패스 420" d="M302.992,306.774c-2.5.793-3.882,3.406-2.72,7.032,1.145,3.64,3.782,4.967,6.28,4.172a4.123,4.123,0,0,0,2.975-4.382l1.322-.42a5.46,5.46,0,0,1-3.907,6.033c-3.381,1.074-6.634-.825-7.956-5s.235-7.6,3.616-8.67a5.449,5.449,0,0,1,6.671,2.673l-1.322.42A4.125,4.125,0,0,0,302.992,306.774Z" transform="translate(-234.816 -303.166)" fill="#141416"/>
    <path id="패스_421" data-name="패스 421" d="M310.741,317.613l-1.3.269L306.61,304.2l1.3-.269Z" transform="translate(-230.123 -303.93)" fill="#141416"/>
    <path id="패스_422" data-name="패스 422" d="M310.086,311.21c-.379-3.194,1.261-5.607,3.989-5.932,2.719-.3,4.858,1.668,5.218,4.866.378,3.175-1.253,5.586-3.973,5.891C312.593,316.361,310.444,314.389,310.086,311.21Zm5.1,3.657c2.125-.246,3.069-2.3,2.806-4.573s-1.657-4.085-3.779-3.828c-2.136.237-3.087,2.316-2.823,4.594S313.042,315.116,315.185,314.868Z" transform="translate(-228.139 -303.166)" fill="#141416"/>
    <path id="패스_423" data-name="패스 423" d="M318.773,315.432l-1.332-.021.158-10.471,1.273.019-.025,1.659.115,0a3.16,3.16,0,0,1,3.114-1.747c2.122.033,3.528,1.393,3.49,3.891l-.1,6.769-1.313-.021.1-6.671a2.473,2.473,0,0,0-2.542-2.777,2.679,2.679,0,0,0-2.84,2.869Z" transform="translate(-223.843 -303.384)" fill="#141416"/>
    <path id="패스_424" data-name="패스 424" d="M324.146,310.2c.412-3.152,2.585-5.145,5.286-4.793,2.253.311,4.207,2.186,3.746,5.709l-.082.611-7.7-1.03c-.256,2.357.882,4.024,2.942,4.3a2.935,2.935,0,0,0,2.823-1.041l1.392.186a4.034,4.034,0,0,1-4.37,2.019C325.255,315.785,323.716,313.353,324.146,310.2Zm7.763.223a3.18,3.18,0,0,0-2.616-3.829,3.424,3.424,0,0,0-3.731,2.979Z" transform="translate(-219.997 -303.094)" fill="#141416"/>
  </g>
</svg>
