<svg xmlns="http://www.w3.org/2000/svg" width="335.543" height="279.699" viewBox="0 0 335.543 279.699">
  <g id="그룹_236" data-name="그룹 236" transform="translate(-792.454 -17397.91)">
    <g id="타원_39" data-name="타원 39" transform="translate(792.454 17561.523)" fill="none" stroke="#6e6e6e" stroke-width="1">
      <ellipse cx="167.772" cy="46.391" rx="167.772" ry="46.391" stroke="none"/>
      <ellipse cx="167.772" cy="46.391" rx="167.272" ry="45.891" fill="none"/>
    </g>
    <path id="패스_96" data-name="패스 96" d="M369.653,325.848l1.831-16.017a1.761,1.761,0,0,1,3.5,0l1.831,16.017a1.768,1.768,0,0,0,1.551,1.551l16.017,1.831a1.761,1.761,0,0,1,0,3.5l-16.017,1.831a1.763,1.763,0,0,0-1.551,1.551l-1.831,16.017a1.761,1.761,0,0,1-3.5,0l-1.831-16.017a1.759,1.759,0,0,0-1.55-1.551l-16.017-1.831a1.761,1.761,0,0,1,0-3.5L368.1,327.4A1.763,1.763,0,0,0,369.653,325.848Z" transform="translate(719.244 17323.922)" fill="#fff"/>
    <g id="타원_38" data-name="타원 38" transform="translate(792.454 17514.496)" fill="none" stroke="#6e6e6e" stroke-width="1">
      <ellipse cx="167.772" cy="47.027" rx="167.772" ry="47.027" stroke="none"/>
      <ellipse cx="167.772" cy="47.027" rx="167.272" ry="46.527" fill="none"/>
    </g>
    <path id="패스_105" data-name="패스 105" d="M40.232,0A40.232,40.232,0,1,1,0,40.232,40.232,40.232,0,0,1,40.232,0Z" transform="translate(920.884 17498.686)" fill="#b5b5b5"/>
    <g id="타원_37" data-name="타원 37" transform="translate(792.454 17421.713)" fill="none" stroke="#6e6e6e" stroke-width="1">
      <ellipse cx="167.772" cy="46.391" rx="167.772" ry="46.391" stroke="none"/>
      <ellipse cx="167.772" cy="46.391" rx="167.272" ry="45.891" fill="none"/>
    </g>
    <g id="타원_40" data-name="타원 40" transform="translate(792.454 17467.471)" fill="none" stroke="#6e6e6e" stroke-width="1">
      <ellipse cx="167.772" cy="47.027" rx="167.772" ry="47.027" stroke="none"/>
      <ellipse cx="167.772" cy="47.027" rx="167.272" ry="46.527" fill="none"/>
    </g>
    <path id="패스_95" data-name="패스 95" d="M369.653,325.848l1.831-16.017a1.761,1.761,0,0,1,3.5,0l1.831,16.017a1.768,1.768,0,0,0,1.551,1.551l16.017,1.831a1.761,1.761,0,0,1,0,3.5l-16.017,1.831a1.763,1.763,0,0,0-1.551,1.551l-1.831,16.017a1.761,1.761,0,0,1-3.5,0l-1.831-16.017a1.759,1.759,0,0,0-1.55-1.551l-16.017-1.831a1.761,1.761,0,0,1,0-3.5L368.1,327.4A1.763,1.763,0,0,0,369.653,325.848Z" transform="translate(454.738 17090.141)" fill="none" stroke="#fff" stroke-miterlimit="10" stroke-width="1"/>
  </g>
</svg>
