<svg xmlns="http://www.w3.org/2000/svg" width="1923.654" height="466.323" viewBox="0 0 1923.654 466.323">
  <g id="그룹_310" data-name="그룹 310" transform="translate(2.151 -15750.766)">
    <path id="패스_273" data-name="패스 273" d="M-6586.737,9946.2c-207.845,113.59-328.751-74.062-701.863,226.5-417.818,336.575-1051.943,126.114-968.638,33.667,74.974-83.2,160.331,144.107-252.84,205.224" transform="translate(8508 5805)" fill="none" stroke="#141416" stroke-width="1"/>
    <path id="패스_44" data-name="패스 44" d="M14.367,20.911l1.375,12.03a1.323,1.323,0,0,0,2.629,0l1.375-12.03a1.328,1.328,0,0,1,1.165-1.165l12.03-1.375a1.323,1.323,0,0,0,0-2.629l-12.03-1.375A1.324,1.324,0,0,1,19.746,13.2L18.371,1.173a1.323,1.323,0,0,0-2.629,0L14.367,13.2A1.321,1.321,0,0,1,13.2,14.367L1.173,15.742a1.323,1.323,0,0,0,0,2.629L13.2,19.746A1.324,1.324,0,0,1,14.367,20.911Z" transform="matrix(-0.777, 0.629, -0.629, -0.777, 553.141, 16155.72)" fill="#141416"/>
    <ellipse id="타원_130" data-name="타원 130" cx="6.5" cy="6.5" rx="6.5" ry="6.5" transform="translate(1563 15794.078)" fill="#141416"/>
    <g id="그룹_309" data-name="그룹 309" transform="translate(1882.581 12985.549) rotate(26)">
      <g id="그룹_55" data-name="그룹 55" transform="translate(837 2726)">
        <circle id="타원_28" data-name="타원 28" cx="16.611" cy="16.611" r="16.611" transform="translate(14.063 0)" fill="#fffffb" stroke="#141416" stroke-miterlimit="10" stroke-width="1"/>
        <path id="패스_69" data-name="패스 69" d="M13.773,120.241c0-1.545,5.793-2.9,14.494-3.661" transform="translate(-13.773 -103.631)" fill="rgba(0,0,0,0)" stroke="#141416" stroke-miterlimit="10" stroke-width="1"/>
        <path id="패스_70" data-name="패스 70" d="M60.624,116.579c8.7.76,14.5,2.116,14.5,3.662,0,2.38-13.733,4.309-30.674,4.309s-30.674-1.929-30.674-4.309" transform="translate(-13.773 -103.63)" fill="rgba(0,0,0,0)" stroke="#141416" stroke-miterlimit="10" stroke-width="1"/>
      </g>
    </g>
  </g>
</svg>
