<svg xmlns="http://www.w3.org/2000/svg" width="1922.407" height="683.188" viewBox="0 0 1922.407 683.188">
  <g id="그룹_308" data-name="그룹 308" transform="translate(1.305 -4754.063)">
    <circle id="타원_120" data-name="타원 120" cx="8.5" cy="8.5" r="8.5" transform="translate(109 4920)" fill="#fff"/>
    <path id="패스_247" data-name="패스 247" d="M246.72,334.782l1.072-9.377a1.033,1.033,0,0,1,2.052,0l1.072,9.377a1.029,1.029,0,0,0,.9.908l9.377,1.072a1.031,1.031,0,0,1,0,2.049l-4.327.495-5.05.577a1.023,1.023,0,0,0-.9.9l-1.072,9.377a1.033,1.033,0,0,1-2.052,0l-1.072-9.377a1.029,1.029,0,0,0-.9-.908l-9.377-1.072a1.031,1.031,0,0,1,0-2.049l9.377-1.072A1.023,1.023,0,0,0,246.72,334.782Z" transform="matrix(0.407, 0.914, -0.914, 0.407, 1928.674, 4948.304)" fill="#fff"/>
    <path id="패스_272" data-name="패스 272" d="M-8508.6-1010.23c237.924,229.22,82.591,653.344,1063.308,496.662,411.9-65.806,682.734,40.273,857.688,185.115" transform="translate(8508 5765)" fill="none" stroke="#fff" stroke-linecap="round" stroke-width="1"/>
    <g id="타원_119" data-name="타원 119" transform="translate(87 4876)" stroke="#fff" stroke-width="1">
      <circle cx="6.5" cy="6.5" r="6.5" stroke="none"/>
      <circle cx="6.5" cy="6.5" r="6" fill="none"/>
    </g>
  </g>
</svg>
