<svg xmlns="http://www.w3.org/2000/svg" width="373.049" height="519.753" viewBox="0 0 373.049 519.753">
  <g id="패스_62" data-name="패스 62">
    <path d="M 372.2986755371094 519.003173828125 L 0.7500044107437134 519.003173828125 L 0.7500044107437134 186.5243225097656 C 0.7500044107437134 173.9192504882812 2.01987099647522 161.3223876953125 4.524271011352539 149.0835266113281 C 6.965004444122314 137.1561126708984 10.60687065124512 125.4239196777344 15.3487377166748 114.2127838134766 C 20.00467109680176 103.2050552368164 25.76740455627441 92.58805084228516 32.47687149047852 82.65665435791016 C 39.122802734375 72.81938934326172 46.75520324707031 63.56892013549805 55.16207122802734 55.16205215454102 C 63.56893920898438 46.75518798828125 72.81940460205078 39.12278747558594 82.65666961669922 32.47685241699219 C 92.58807373046875 25.76738739013672 103.2050704956055 20.00465393066406 114.2128067016602 15.34872055053711 C 125.4239349365234 10.60685348510742 137.1561431884766 6.964986801147461 149.0835418701172 4.524253368377686 C 161.3224029541016 2.019853591918945 173.9192657470703 0.7499868869781494 186.5243377685547 0.7499868869781494 C 199.1294097900391 0.7499868869781494 211.7262725830078 2.019853591918945 223.9651336669922 4.524253368377686 C 235.8925323486328 6.964986801147461 247.6247406005859 10.60685348510742 258.8358764648438 15.34872055053711 C 269.8435974121094 20.00465393066406 280.4606018066406 25.76738739013672 290.3919982910156 32.47685241699219 C 300.2292785644531 39.12278747558594 309.479736328125 46.75518798828125 317.8865966796875 55.16205215454102 C 326.29345703125 63.56892013549805 333.9258728027344 72.81938934326172 340.5718078613281 82.65665435791016 C 347.2812805175781 92.58805084228516 353.0440063476562 103.2050552368164 357.699951171875 114.2127838134766 C 362.4418029785156 125.4239196777344 366.0836791992188 137.1561126708984 368.5244140625 149.0835266113281 C 371.02880859375 161.3223876953125 372.2986755371094 173.9192504882812 372.2986755371094 186.5243225097656 L 372.2986755371094 519.003173828125 Z" stroke="none"/>
    <path d="M 186.5243377685547 1.5 C 173.9696655273438 1.5 161.4234008789062 2.76470947265625 149.2338714599609 5.259033203125 C 137.3549346923828 7.68988037109375 125.6704711914062 11.31692504882812 114.5050048828125 16.03952026367188 C 103.5418701171875 20.676513671875 92.96780395507812 26.41592407226562 83.0765380859375 33.09832763671875 C 73.27886962890625 39.717529296875 64.06546020507812 47.31924438476562 55.69241333007812 55.6923828125 C 47.31927490234375 64.06546020507812 39.717529296875 73.27883911132812 33.09832763671875 83.07650756835938 C 26.41592407226562 92.9677734375 20.67654418945312 103.5418395996094 16.03955078125 114.5049743652344 C 11.31692504882812 125.6704406738281 7.68988037109375 137.3549194335938 5.259063720703125 149.2338562011719 C 2.764739990234375 161.4234008789062 1.5 173.9696655273438 1.5 186.5243225097656 L 1.5 518.253173828125 L 371.5486755371094 518.253173828125 L 371.5486755371094 186.5243225097656 C 371.5486755371094 173.9696655273438 370.283935546875 161.4234008789062 367.7896118164062 149.2338562011719 C 365.3587951660156 137.3549194335938 361.7317504882812 125.6704406738281 357.0091247558594 114.5049743652344 C 352.3721313476562 103.5418395996094 346.6327514648438 92.9677734375 339.9503479003906 83.07650756835938 C 333.3311462402344 73.27883911132812 325.7294006347656 64.06546020507812 317.3562622070312 55.6923828125 C 308.9832153320312 47.31924438476562 299.7698059082031 39.717529296875 289.9721374511719 33.09832763671875 C 280.0808715820312 26.41592407226562 269.5068054199219 20.676513671875 258.5436706542969 16.03952026367188 C 247.3782043457031 11.31692504882812 235.6937408447266 7.68988037109375 223.8148040771484 5.259033203125 C 211.6252746582031 2.76470947265625 199.0790100097656 1.5 186.5243377685547 1.5 M 186.5243377685547 0 C 289.5388793945312 0 373.0486755371094 83.50979614257812 373.0486755371094 186.5243225097656 L 373.0486755371094 519.753173828125 L 0 519.753173828125 L 0 186.5243225097656 C 0 83.50979614257812 83.50979614257812 0 186.5243377685547 0 Z" stroke="none" fill="#000"/>
  </g>
</svg>
