<svg xmlns="http://www.w3.org/2000/svg" width="1105.418" height="642.379" viewBox="0 0 1105.418 642.379">
  <g id="그룹_314" data-name="그룹 314" transform="translate(-404.958 -1977.781)">
    <circle id="타원_6" data-name="타원 6" cx="4.382" cy="4.382" r="4.382" transform="translate(467.773 2077.662)" fill="none" stroke="#000" stroke-miterlimit="10" stroke-width="1.5"/>
    <circle id="타원_8" data-name="타원 8" cx="1.764" cy="1.764" r="1.764" transform="translate(509.295 2059.017)" stroke="#000" stroke-miterlimit="10" stroke-width="2"/>
    <circle id="타원_10" data-name="타원 10" cx="1.764" cy="1.764" r="1.764" transform="translate(450.668 2562.896)" stroke="#000" stroke-miterlimit="10" stroke-width="2"/>
    <circle id="타원_11" data-name="타원 11" cx="2.764" cy="2.764" r="2.764" transform="translate(405.904 2567.333)" fill="none" stroke="#000" stroke-miterlimit="10" stroke-width="1"/>
    <circle id="타원_12" data-name="타원 12" cx="1.764" cy="1.764" r="1.764" transform="translate(451.432 2495.896)" stroke="#000" stroke-miterlimit="10" stroke-width="1"/>
    <circle id="타원_7" data-name="타원 7" cx="2.764" cy="2.764" r="2.764" transform="translate(1503.85 2067.483)" stroke="#000" stroke-miterlimit="10" stroke-width="2"/>
    <path id="패스_40" data-name="패스 40" d="M361.724,318.561l1.072-9.377a1.031,1.031,0,0,1,2.049,0l1.072,9.377a1.035,1.035,0,0,0,.908.908l9.377,1.072a1.031,1.031,0,0,1,0,2.049l-9.377,1.072a1.032,1.032,0,0,0-.908.908l-1.072,9.377a1.031,1.031,0,0,1-2.049,0l-1.072-9.377a1.029,1.029,0,0,0-.908-.908l-9.377-1.072a1.031,1.031,0,0,1,0-2.049l9.377-1.072A1.032,1.032,0,0,0,361.724,318.561Z" transform="translate(1048.18 1669.511)"/>
    <path id="패스_46" data-name="패스 46" d="M361.724,318.561l1.072-9.377a1.031,1.031,0,0,1,2.049,0l1.072,9.377a1.035,1.035,0,0,0,.908.908l9.377,1.072a1.031,1.031,0,0,1,0,2.049l-9.377,1.072a1.032,1.032,0,0,0-.908.908l-1.072,9.377a1.031,1.031,0,0,1-2.049,0l-1.072-9.377a1.029,1.029,0,0,0-.908-.908l-9.377-1.072a1.031,1.031,0,0,1,0-2.049l9.377-1.072A1.032,1.032,0,0,0,361.724,318.561Z" transform="translate(135.707 1782.511)"/>
    <path id="패스_41" data-name="패스 41" d="M371.709,327.737,373.737,310a1.95,1.95,0,0,1,3.876,0l2.028,17.738a1.958,1.958,0,0,0,1.717,1.717l17.738,2.028a1.951,1.951,0,0,1,0,3.876l-17.738,2.028a1.953,1.953,0,0,0-1.717,1.717l-2.028,17.738a1.95,1.95,0,0,1-3.876,0L371.709,339.1a1.947,1.947,0,0,0-1.717-1.717l-17.738-2.028a1.951,1.951,0,0,1,0-3.876l17.738-2.028A1.952,1.952,0,0,0,371.709,327.737Z" transform="translate(106.625 2261.59)"/>
    <path id="패스_44" data-name="패스 44" d="M378.311,333.8l2.66-23.266a2.558,2.558,0,0,1,5.084,0l2.66,23.266a2.568,2.568,0,0,0,2.252,2.252l23.266,2.66a2.558,2.558,0,0,1,0,5.084l-23.266,2.659a2.561,2.561,0,0,0-2.252,2.252l-2.66,23.266a2.558,2.558,0,0,1-5.084,0l-2.66-23.266a2.554,2.554,0,0,0-2.252-2.252L352.793,343.8a2.558,2.558,0,0,1,0-5.084l23.266-2.66A2.561,2.561,0,0,0,378.311,333.8Z" transform="translate(1040.5 1741.753)"/>
    <path id="패스_43" data-name="패스 43" d="M364.835,321.42l1.37-11.983a1.318,1.318,0,0,1,2.618,0l1.37,11.983a1.323,1.323,0,0,0,1.16,1.16l11.982,1.37a1.318,1.318,0,0,1,0,2.618l-11.982,1.37a1.319,1.319,0,0,0-1.16,1.16l-1.37,11.983a1.318,1.318,0,0,1-2.618,0l-1.37-11.983a1.315,1.315,0,0,0-1.16-1.16l-11.983-1.37a1.318,1.318,0,0,1,0-2.618l11.983-1.37A1.319,1.319,0,0,0,364.835,321.42Z" transform="translate(99.625 2197.627)" fill="none" stroke="#000" stroke-miterlimit="10" stroke-width="1.5"/>
    <path id="패스_45" data-name="패스 45" d="M364.835,321.42l1.37-11.983a1.318,1.318,0,0,1,2.618,0l1.37,11.983a1.323,1.323,0,0,0,1.16,1.16l11.982,1.37a1.318,1.318,0,0,1,0,2.618l-11.982,1.37a1.319,1.319,0,0,0-1.16,1.16l-1.37,11.983a1.318,1.318,0,0,1-2.618,0l-1.37-11.983a1.315,1.315,0,0,0-1.16-1.16l-11.983-1.37a1.318,1.318,0,0,1,0-2.618l11.983-1.37A1.319,1.319,0,0,0,364.835,321.42Z" transform="translate(1118.346 1717.763)" fill="none" stroke="#000" stroke-miterlimit="10" stroke-width="1.5"/>
    <path id="패스_42" data-name="패스 42" d="M360.315,317.267l.937-8.2a.9.9,0,0,1,1.791,0l.937,8.2a.9.9,0,0,0,.794.794l8.2.937a.9.9,0,0,1,0,1.791l-8.2.937a.9.9,0,0,0-.794.794l-.937,8.2a.9.9,0,0,1-1.791,0l-.937-8.2a.9.9,0,0,0-.794-.794l-8.2-.937a.9.9,0,0,1,0-1.791l8.2-.937A.9.9,0,0,0,360.315,317.267Z" transform="translate(54.434 2230.38)"/>
  </g>
</svg>
