<svg xmlns="http://www.w3.org/2000/svg" width="109.864" height="562.143" viewBox="0 0 109.864 562.143">
  <g id="그룹_301" data-name="그룹 301" transform="translate(-403.959 -1744.945)">
    <circle id="타원_6" data-name="타원 6" cx="4.382" cy="4.382" r="4.382" transform="translate(467.773 1764.591)" fill="none" stroke="#000" stroke-miterlimit="10" stroke-width="1.5"/>
    <circle id="타원_8" data-name="타원 8" cx="1.764" cy="1.764" r="1.764" transform="translate(509.296 1745.945)" stroke="#000" stroke-miterlimit="10" stroke-width="2"/>
    <circle id="타원_10" data-name="타원 10" cx="1.764" cy="1.764" r="1.764" transform="translate(437.674 2253.825)" fill="none" stroke="#000" stroke-miterlimit="10" stroke-width="1"/>
    <circle id="타원_12" data-name="타원 12" cx="1.764" cy="1.764" r="1.764" transform="translate(434.438 2162.825)" stroke="#000" stroke-miterlimit="10" stroke-width="1"/>
    <path id="패스_46" data-name="패스 46" d="M361.724,318.561l1.072-9.377a1.031,1.031,0,0,1,2.049,0l1.072,9.377a1.035,1.035,0,0,0,.908.908l9.377,1.072a1.031,1.031,0,0,1,0,2.049l-9.377,1.072a1.032,1.032,0,0,0-.908.908l-1.072,9.377a1.031,1.031,0,0,1-2.049,0l-1.072-9.377a1.029,1.029,0,0,0-.908-.908l-9.377-1.072a1.031,1.031,0,0,1,0-2.049l9.377-1.072A1.032,1.032,0,0,0,361.724,318.561Z" transform="translate(135.707 1469.439)"/>
    <path id="패스_41" data-name="패스 41" d="M371.709,327.737,373.737,310a1.95,1.95,0,0,1,3.876,0l2.028,17.738a1.958,1.958,0,0,0,1.717,1.717l17.738,2.028a1.951,1.951,0,0,1,0,3.876l-17.738,2.028a1.953,1.953,0,0,0-1.717,1.717l-2.028,17.738a1.95,1.95,0,0,1-3.876,0L371.709,339.1a1.947,1.947,0,0,0-1.717-1.717l-17.738-2.028a1.951,1.951,0,0,1,0-3.876l17.738-2.028A1.952,1.952,0,0,0,371.709,327.737Z" transform="translate(106.625 1948.518)"/>
    <path id="패스_43" data-name="패스 43" d="M364.835,321.42l1.37-11.983a1.318,1.318,0,0,1,2.618,0l1.37,11.983a1.323,1.323,0,0,0,1.16,1.16l11.982,1.37a1.318,1.318,0,0,1,0,2.618l-11.982,1.37a1.319,1.319,0,0,0-1.16,1.16l-1.37,11.983a1.318,1.318,0,0,1-2.618,0l-1.37-11.983a1.315,1.315,0,0,0-1.16-1.16l-11.983-1.37a1.318,1.318,0,0,1,0-2.618l11.983-1.37A1.319,1.319,0,0,0,364.835,321.42Z" transform="translate(99.625 1864.555)" fill="none" stroke="#000" stroke-miterlimit="10" stroke-width="1.5"/>
    <path id="패스_42" data-name="패스 42" d="M360.315,317.267l.937-8.2a.9.9,0,0,1,1.791,0l.937,8.2a.9.9,0,0,0,.794.794l8.2.937a.9.9,0,0,1,0,1.791l-8.2.937a.9.9,0,0,0-.794.794l-.937,8.2a.9.9,0,0,1-1.791,0l-.937-8.2a.9.9,0,0,0-.794-.794l-8.2-.937a.9.9,0,0,1,0-1.791l8.2-.937A.9.9,0,0,0,360.315,317.267Z" transform="translate(53.435 1909.309)"/>
  </g>
</svg>
