<svg xmlns="http://www.w3.org/2000/svg" width="27.59" height="27.588" viewBox="0 0 27.59 27.588">
  <path id="패스_266" data-name="패스 266" d="M246.72,334.782l1.072-9.377a1.033,1.033,0,0,1,2.052,0l1.072,9.377a1.029,1.029,0,0,0,.9.908l9.377,1.072a1.031,1.031,0,0,1,0,2.049l-4.327.495-5.05.577a1.023,1.023,0,0,0-.9.9l-1.072,9.377a1.033,1.033,0,0,1-2.052,0l-1.072-9.377a1.029,1.029,0,0,0-.9-.908l-9.377-1.072a1.031,1.031,0,0,1,0-2.049l9.377-1.072A1.023,1.023,0,0,0,246.72,334.782Z" transform="translate(-235.023 -323.991)" fill="#fffffb" stroke="#000" stroke-miterlimit="10" stroke-width="1"/>
</svg>
