<svg xmlns="http://www.w3.org/2000/svg" width="1920" height="862" viewBox="0 0 1920 862">
  <g id="그룹_311" data-name="그룹 311" transform="translate(0 -10347.906)">
    <g id="그룹_310" data-name="그룹 310" transform="translate(102 10347.906)">
      <text id="Creative" transform="translate(1083.713 29)" font-size="30" font-family="Pretendard-ExtraLight, Pretendard" font-weight="200"><tspan x="0" y="0">Creative</tspan></text>
      <text id="Passion" transform="translate(1519.785 795)" font-size="30" font-family="Pretendard-ExtraLight, Pretendard" font-weight="200"><tspan x="0" y="0">Passion</tspan></text>
      <text id="Responsibility" transform="translate(0 855)" font-size="30" font-family="Pretendard-ExtraLight, Pretendard" font-weight="200"><tspan x="0" y="0">Responsibility</tspan></text>
      <path id="패스_85" data-name="패스 85" d="M-5023.265,20835.92s-8.208,28.729-50.345,55.816-179.514,98.582-181.448,130.6c-1.894,3.789,5.893-2.93,12.418-8.3s-12.207,17.354-15.785,13.566,1.473-25.887,1.473-25.887" transform="translate(6153.152 -20783.92)" fill="none" stroke="#000" stroke-linecap="round" stroke-linejoin="round" stroke-width="1"/>
      <g id="그룹_198" data-name="그룹 198" transform="translate(641.553 324.813)">
        <g id="그룹_33" data-name="그룹 33" transform="translate(0 0)">
          <g id="그룹_32" data-name="그룹 32">
            <g id="타원_14" data-name="타원 14" transform="translate(84.802)" fill="rgba(0,0,0,0.13)" stroke="#000" stroke-width="1">
              <circle cx="133.697" cy="133.697" r="133.697" stroke="none"/>
              <circle cx="133.697" cy="133.697" r="133.197" fill="none"/>
            </g>
            <g id="그룹_31" data-name="그룹 31" transform="translate(0 148.978)">
              <g id="타원_15" data-name="타원 15" transform="translate(0 0)" fill="rgba(0,0,0,0.13)" stroke="#000" stroke-width="1">
                <circle cx="133.697" cy="133.697" r="133.697" stroke="none"/>
                <circle cx="133.697" cy="133.697" r="133.197" fill="none"/>
              </g>
              <g id="타원_16" data-name="타원 16" transform="translate(169.605 0)" fill="rgba(0,0,0,0.13)" stroke="#000" stroke-width="1">
                <circle cx="133.697" cy="133.697" r="133.697" stroke="none"/>
                <circle cx="133.697" cy="133.697" r="133.197" fill="none"/>
              </g>
            </g>
          </g>
          <g id="교차_2" data-name="교차 2" transform="translate(171.972 179.584)" fill="rgba(0,0,0,0.68)">
            <path d="M 46.52808380126953 87.11754608154297 C 30.72039604187012 87.11754608154297 15.25874042510986 84.37270355224609 0.5667942762374878 78.95928192138672 C 1.968205451965332 71.30173492431641 4.059316635131836 63.73089599609375 6.784589290618896 56.44863128662109 C 9.508577346801758 49.16983032226562 12.90274238586426 42.08074951171875 16.87282371520996 35.37832641601562 C 20.7986011505127 28.75066757202148 25.33609580993652 22.4185733795166 30.35928344726562 16.55790328979492 C 35.27533340454102 10.82223701477051 40.71358108520508 5.471461772918701 46.52808380126953 0.6487656831741333 C 52.34258651733398 5.471461772918701 57.78084564208984 10.82223701477051 62.69689559936523 16.55790328979492 C 67.72008514404297 22.4185733795166 72.25759124755859 28.75066757202148 76.18336486816406 35.37832641601562 C 80.15345001220703 42.08074951171875 83.54761505126953 49.16983032226562 86.27159881591797 56.44863128662109 C 88.99687194824219 63.73089599609375 91.08798217773438 71.30173492431641 92.48939514160156 78.95927429199219 C 77.79742431640625 84.37270355224609 62.33575820922852 87.11754608154297 46.52808380126953 87.11754608154297 Z" stroke="none"/>
            <path d="M 46.52808380126953 86.61754608154297 C 62.13496017456055 86.61754608154297 77.40257263183594 83.93220520019531 91.92107391357422 78.63509368896484 C 90.52583312988281 71.14805603027344 88.46901702880859 63.7469367980957 85.80332183837891 56.62388610839844 C 83.08963012695312 49.37259674072266 79.70826721191406 42.31028366088867 75.753173828125 35.63313674926758 C 71.84213256835938 29.03036117553711 67.32163238525391 22.72199821472168 62.31725692749023 16.88328552246094 C 57.50968170166016 11.2741756439209 52.2006950378418 6.034454822540283 46.52808380126953 1.299217939376831 C 40.85546875 6.034454822540283 35.54649353027344 11.2741756439209 30.73892021179199 16.88328552246094 C 25.73454475402832 22.72199821472168 21.21405792236328 29.03036117553711 17.30300712585449 35.63313674926758 C 13.34790802001953 42.31028366088867 9.966557502746582 49.37259674072266 7.252870082855225 56.62387466430664 C 4.587174892425537 63.74693298339844 2.530359745025635 71.14805603027344 1.135128021240234 78.63509368896484 C 15.65359020233154 83.93220520019531 30.92119216918945 86.61754608154297 46.52808380126953 86.61754608154297 M 46.52808380126953 87.61754608154297 C 30.16226959228516 87.61754608154297 14.48838233947754 84.67304992675781 7.745361472188961e-06 79.28256988525391 C 5.704270362854004 47.54170989990234 22.63335800170898 19.69343566894531 46.52808380126953 -1.959228484338382e-06 C 70.42282104492188 19.69343566894531 87.35192108154297 47.54170989990234 93.05619812011719 79.28256988525391 C 78.56777954101562 84.67304992675781 62.8939208984375 87.61754608154297 46.52808380126953 87.61754608154297 Z" stroke="none" fill="#000"/>
          </g>
          <g id="빼기_3" data-name="빼기 3" transform="translate(169.863 258.273)" fill="rgba(0,0,0,0.15)">
            <path d="M 48.63664627075195 126.1462020874023 C 41.37258529663086 120.1215438842773 34.73450469970703 113.31005859375 28.90091323852539 105.8945159912109 C 22.94249534606934 98.32038879394531 17.80516242980957 90.09225463867188 13.63157939910889 81.43866729736328 C 9.38144588470459 72.62631988525391 6.110713005065918 63.32915115356445 3.9102463722229 53.80540084838867 C 1.647362947463989 44.01155090332031 0.4999962747097015 33.90161895751953 0.4999962747097015 23.7564525604248 C 0.4999962747097015 16.00863647460938 1.171574831008911 8.246695518493652 2.496407985687256 0.6763538718223572 C 17.24957656860352 6.090105533599854 32.77039337158203 8.834985733032227 48.63664627075195 8.834985733032227 C 64.50288391113281 8.834985733032227 80.02369689941406 6.090106010437012 94.77690124511719 0.6763543486595154 C 96.10171508789062 8.24678897857666 96.77329254150391 16.00873374938965 96.77329254150391 23.7564525604248 C 96.77329254150391 33.90168762207031 95.62593078613281 44.01161956787109 93.36304473876953 53.80540084838867 C 91.16261291503906 63.32912063598633 87.89187622070312 72.62628936767578 83.64171600341797 81.43866729736328 C 79.46813201904297 90.09226989746094 74.33078002929688 98.32041931152344 68.37238311767578 105.8945159912109 C 62.53876876831055 113.3100738525391 55.90069198608398 120.1215744018555 48.63664627075195 126.1462020874023 Z" stroke="none"/>
            <path d="M 48.63663864135742 125.4957733154297 C 55.74874114990234 119.5593872070312 62.25325393676758 112.8643341064453 67.97939300537109 105.5853881835938 C 73.91542816162109 98.03970336914062 79.03347778320312 89.84248352050781 83.19134521484375 81.22145080566406 C 87.42543029785156 72.44243621826172 90.68377685546875 63.18046951293945 92.87587738037109 53.69285202026367 C 95.1302490234375 43.93592071533203 96.27329254150391 33.86385345458984 96.27329254150391 23.7564525604248 C 96.27329254150391 16.23814010620117 95.63855743408203 8.706512451171875 94.38597106933594 1.350984692573547 C 79.74591064453125 6.64912748336792 64.36005401611328 9.334985733032227 48.63664627075195 9.334985733032227 C 32.91322326660156 9.334985733032227 17.52736282348633 6.649126529693604 2.887330770492554 1.35098397731781 C 1.634730219841003 8.706440925598145 0.9999962449073792 16.23805999755859 0.9999962449073792 23.7564525604248 C 0.9999962449073792 33.86378479003906 2.143046379089355 43.93585205078125 4.397412776947021 53.69285202026367 C 6.589546203613281 63.18050384521484 9.847879409790039 72.44246673583984 14.08194637298584 81.22145080566406 C 18.23979568481445 89.84246826171875 23.35783004760742 98.0396728515625 29.29388046264648 105.5853881835938 C 35.02001953125 112.8642959594727 41.52452087402344 119.5593414306641 48.63663864135742 125.4957733154297 M 48.63647842407227 126.7951049804688 L 48.6364631652832 126.7951049804688 L 48.63664627075195 126.7949676513672 C 41.22091293334961 120.683219909668 34.44863128662109 113.7553329467773 28.5079288482666 106.2036666870117 C 22.52719688415527 98.60115051269531 17.37054634094238 90.34210205078125 13.18122959136963 81.65586853027344 C 8.914996147155762 72.81016540527344 5.631879806518555 63.47778701782227 3.423079490661621 53.91796875 C 1.15169632434845 44.08728408813477 -3.729247964656679e-06 33.93951797485352 -3.729247964656679e-06 23.7564525604248 C -3.729247964656679e-06 15.77813625335693 0.7094296216964722 7.785336017608643 2.10856294631958 2.490234464858077e-06 C 16.97339630126953 5.530552387237549 32.6274299621582 8.334985733032227 48.63664627075195 8.334985733032227 C 64.64516448974609 8.334985733032227 80.29947662353516 5.530702590942383 95.16474914550781 2.490234464858077e-06 C 96.56413269042969 7.786885738372803 97.27329254150391 15.7795524597168 97.27329254150391 23.7564525604248 C 97.27329254150391 33.93951797485352 96.12161254882812 44.08728408813477 93.85021209716797 53.91796875 C 91.64141082763672 63.47785186767578 88.35826110839844 72.81024932861328 84.09206390380859 81.65586853027344 C 79.90276336669922 90.34207153320312 74.74611663818359 98.60113525390625 68.76534271240234 106.2036666870117 C 62.82466125488281 113.7553329467773 56.05239486694336 120.683219909668 48.63664627075195 126.7949676513672 L 48.63647842407227 126.7951049804688 Z" stroke="none" fill="#000"/>
          </g>
          <g id="빼기_4" data-name="빼기 4" transform="translate(87.154 149.169)" fill="rgba(0,0,0,0.15)">
            <path d="M 84.81577301025391 109.0214004516602 C 74.22800445556641 105.0465545654297 64.16291809082031 99.72346496582031 54.89206695556641 93.19483184814453 C 45.56303405761719 86.62525177001953 37.09748458862305 78.8782958984375 29.73056793212891 70.16916656494141 C 22.32183456420898 61.41056442260742 16.07736778259277 51.74065017700195 11.17061805725098 41.42799758911133 C 6.216073513031006 31.01487731933594 2.649594068527222 19.99264907836914 0.5671836137771606 8.658831596374512 C 15.32679557800293 3.244542360305786 30.85766410827637 0.4999983310699463 46.73816680908203 0.4999983310699463 C 62.50831985473633 0.4999983310699463 77.94422149658203 3.208631753921509 92.61713409423828 8.55064868927002 C 99.69643402099609 11.12803173065186 106.6073837280273 14.33383178710938 113.1580047607422 18.07903099060059 C 119.4585342407227 21.68124580383301 125.5097122192383 25.83034706115723 131.1518402099609 30.41619873046875 C 106.9253463745117 50.47414398193359 90.49461364746094 78.34561920166016 84.81577301025391 109.0214004516602 Z" stroke="none"/>
            <path d="M 84.43430328369141 108.3426971435547 C 90.19707489013672 77.98136901855469 106.4574279785156 50.39591979980469 130.3634796142578 30.42156600952148 C 124.8776931762695 26.00445365905762 119.0111999511719 22.00144386291504 112.9098510742188 18.51309394836426 C 106.3837585449219 14.7819299697876 99.49874114990234 11.58814811706543 92.44606781005859 9.02045726776123 C 77.82814025878906 3.69847559928894 62.44979476928711 1.000002861022949 46.73817443847656 1.000002861022949 C 31.0588321685791 1.000002861022949 15.7216682434082 3.685399770736694 1.135902881622314 8.983512878417969 C 3.220807313919067 20.12792015075684 6.747066497802734 30.96714401245117 11.62212181091309 41.21318435668945 C 16.5103588104248 51.4869499206543 22.73135757446289 61.12051010131836 30.11230278015137 69.84626007080078 C 37.45168685913086 78.52285766601562 45.88566589355469 86.24091339111328 55.17995834350586 92.78601837158203 C 64.25373077392578 99.17588806152344 74.08972930908203 104.406005859375 84.43430328369141 108.3426971435547 M 85.20017242431641 109.6990966796875 L 85.20030212402344 109.6984024047852 C 74.36739349365234 105.6869812011719 64.07335662841797 100.2719497680664 54.60419464111328 93.6036376953125 C 45.24032211303711 87.00952911376953 36.7431755065918 79.23367309570312 29.34881210327148 70.49207305908203 C 21.91230392456055 61.70063781738281 15.64435768127441 51.99434661865234 10.7191219329834 41.642822265625 C 5.68557596206665 31.06367492675781 2.079121589660645 19.8572940826416 -5.765047717432026e-06 8.335021018981934 C 14.93295764923096 2.804093837738037 30.6578311920166 2.885298272303771e-06 46.73817443847656 2.885298272303771e-06 C 62.56684875488281 2.885298272303771e-06 78.060302734375 2.718784809112549 92.78817749023438 8.080802917480469 C 99.89414215087891 10.667893409729 106.8310089111328 13.8857479095459 113.4061737060547 17.64496612548828 C 119.9068832397461 21.36163902282715 126.1426086425781 25.65791130065918 131.9401702880859 30.4144401550293 C 107.3915786743164 50.55202102661133 90.79237365722656 78.70864105224609 85.20030212402344 109.6984024047852 L 85.20017242431641 109.6990966796875 Z" stroke="none" fill="#000"/>
          </g>
          <g id="빼기_5" data-name="빼기 5" transform="translate(349.848 258.868) rotate(180)" fill="rgba(0,0,0,0.15)">
            <path d="M 46.73818969726562 109.1989974975586 C 30.8576545715332 109.1989974975586 15.32676982879639 106.4544525146484 0.5671899914741516 101.0401763916016 C 2.649600028991699 89.70637512207031 6.216063022613525 78.68415069580078 11.17062473297119 68.27102661132812 C 16.0773754119873 57.95842742919922 22.32184219360352 48.28851318359375 29.73057556152344 39.52991104125977 C 37.09747314453125 30.82077789306641 45.56302642822266 23.07382774353027 54.89208984375 16.5042610168457 C 64.16291046142578 9.975645065307617 74.22801208496094 4.652558326721191 84.8157958984375 0.6777082085609436 C 90.49466705322266 31.35345458984375 106.925422668457 59.22491455078125 131.1518859863281 79.28281402587891 C 125.5097961425781 83.86865234375 119.4586181640625 88.01774597167969 113.1580276489258 91.61997985839844 C 106.6075439453125 95.3651123046875 99.69660949707031 98.57093048095703 92.61717224121094 101.1483612060547 C 77.94429016113281 106.4903793334961 62.50837326049805 109.1989974975586 46.73818969726562 109.1989974975586 Z" stroke="none"/>
            <path d="M 84.43431091308594 1.356422424316406 C 74.08976745605469 5.2930908203125 64.25377655029297 10.52320861816406 55.17996215820312 16.91307830810547 C 45.88572692871094 23.4581298828125 37.45174407958984 31.17617034912109 30.1123046875 39.85282135009766 C 22.73139953613281 48.57851409912109 16.51038360595703 58.21205902099609 11.62210845947266 68.48583984375 C 6.747055053710938 78.73194885253906 3.220794677734375 89.57115173339844 1.135910034179688 100.7154922485352 C 15.72168731689453 106.0136032104492 31.05885314941406 108.6989822387695 46.73818206787109 108.6989822387695 C 62.44985198974609 108.6989822387695 77.82821655273438 106.0005111694336 92.44610595703125 100.6785278320312 C 99.49897766113281 98.11074829101562 106.3839797973633 94.91698455810547 112.9098739624023 91.1859130859375 C 119.0112762451172 87.69754791259766 124.8777847290039 83.69454956054688 130.363525390625 79.27743530273438 C 106.4574813842773 59.30313491821289 90.19711303710938 31.71772766113281 84.43431091308594 1.356422424316406 M 85.20021820068359 7.62939453125e-06 L 85.20030975341797 0.00070953369140625 C 90.79241943359375 30.99044036865234 107.3916168212891 59.14702224731445 131.9402160644531 79.28456878662109 C 126.1426696777344 84.04111480712891 119.9069290161133 88.33738708496094 113.4061965942383 92.05403900146484 C 106.8310546875 95.81327819824219 99.8941650390625 99.03109741210938 92.78821563720703 101.6181869506836 C 78.06032562255859 106.980224609375 62.56687164306641 109.6989822387695 46.73818206787109 109.6989822387695 C 30.6578369140625 109.6989822387695 14.93296051025391 106.8948974609375 0 101.3639831542969 C 2.079132080078125 89.84171295166016 5.685577392578125 78.63536834716797 10.71910858154297 68.05620574951172 C 15.64436340332031 57.7047119140625 21.91230773925781 47.99842071533203 29.34881591796875 39.20700073242188 C 36.74320220947266 30.46540069580078 45.24032592773438 22.68955230712891 54.60420227050781 16.095458984375 C 64.07337951660156 9.427169799804688 74.36741638183594 4.012130737304688 85.20030975341797 0.00070953369140625 L 85.20021820068359 7.62939453125e-06 Z" stroke="none" fill="#000"/>
          </g>
        </g>
        <text id="ME" transform="translate(194.499 239.187)" fill="#fff" font-size="33" font-family="Pretendard-Medium, Pretendard" font-weight="500"><tspan x="0" y="0">ME</tspan></text>
      </g>
      <path id="패스_87" data-name="패스 87" d="M-4909.157,21542.617c-23.444-4.687-27.193-16.83-20.79,0s12.45,20.031,8.893,10.783-9.248-15.52-2.49-10.783,113.873,82.244,179.516,72.086,104.178-52.518,176.073-47.664" transform="translate(6064.248 -20782.25)" fill="none" stroke="#000" stroke-linecap="round" stroke-width="1"/>
      <path id="패스_88" data-name="패스 88" d="M-5613.429,21586.736c5.127-.57,20.562-5.668,30.761-5.344,1.9,1.057.757,2.42-5.99,9.553-24.9,26.322-14.609,12.92-8.572,4.061a68.76,68.76,0,0,1,5.121-6.619c3.07-3.523,4.7-4.475,2.206-2.887-3.562,2.268-172.2,109.119-195.281,84.391s-196.17-5.189-196.17-5.189" transform="translate(6179.285 -20817.602)" fill="none" stroke="#000" stroke-linecap="round" stroke-width="1"/>
    </g>
    <path id="패스_274" data-name="패스 274" d="M-19394,5274.239l1920-24.036" transform="translate(19394 5765)" fill="none"/>
  </g>
</svg>
