<?xml version="1.0" encoding="utf-8"?>
<!-- Generator: Adobe Illustrator 26.5.0, SVG Export Plug-In . SVG Version: 6.00 Build 0)  -->
<svg version="1.1" id="_레이어_2" xmlns="http://www.w3.org/2000/svg" xmlns:xlink="http://www.w3.org/1999/xlink" x="0px"
	 y="0px" viewBox="0 0 831.3 714.1" style="enable-background:new 0 0 831.3 714.1;" xml:space="preserve">
<style type="text/css">
	.st0{fill:#CDD1D3;}
	.st1{fill:#EFF2F4;}
	.st2{fill:#19464A;}
	.st3{fill:#DDE4E8;}
	.st4{fill:#505054;}
	.st5{fill:#FFFFFF;}
</style>
<g id="_레이어_1-2">
	<g>
		<g>
			<path class="st0" d="M396.9,158.3L396.9,158.3c-0.1,0-1.4-0.1-3.2-0.4c-0.5-0.1-0.9-0.6-0.8-1.2c0.1-0.5,0.6-0.9,1.2-0.8
				c1.6,0.4,2.8,0.4,2.8,0.4c0.5,0,1,0.5,1,1C397.9,157.9,397.4,158.3,396.9,158.3L396.9,158.3z M388.4,155.6
				c-0.2,0-0.4-0.1-0.5-0.2c-1-0.6-1.8-1.3-2.5-2.1c-0.4-0.4-0.3-1,0.1-1.4s1-0.3,1.4,0.1c0.6,0.6,1.3,1.2,2.1,1.8
				c0.5,0.3,0.6,0.9,0.3,1.4C389,155.5,388.7,155.7,388.4,155.6L388.4,155.6z M383.4,148.4c-0.4,0-0.8-0.3-1-0.7
				c-0.3-1-0.5-1.9-0.7-2.7l-0.1-0.3c-0.1-0.5,0.2-1.1,0.8-1.2c0.5-0.1,1.1,0.2,1.2,0.8l0.1,0.3c0.2,0.8,0.4,1.6,0.6,2.6
				c0.2,0.5-0.1,1.1-0.7,1.2C383.6,148.4,383.5,148.4,383.4,148.4L383.4,148.4z M379.9,140.4c-0.2,0-0.4-0.1-0.6-0.2
				c-0.5-0.3-1-0.7-1.7-1l-0.8-0.4c-0.5-0.2-0.7-0.8-0.5-1.3s0.8-0.7,1.3-0.5l0.7,0.4c0.8,0.4,1.5,0.8,2,1.2
				c0.5,0.3,0.5,0.9,0.2,1.4C380.5,140.3,380.2,140.4,379.9,140.4L379.9,140.4z M371.9,136.1c-0.2,0-0.4-0.1-0.5-0.1
				c-0.9-0.6-1.8-1.1-2.6-1.7c-0.5-0.3-0.6-0.9-0.2-1.4s0.9-0.6,1.4-0.2c0.8,0.5,1.6,1.1,2.5,1.6c0.5,0.3,0.6,0.9,0.3,1.4
				C372.6,136,372.3,136.2,371.9,136.1L371.9,136.1z M364.9,130.6c-0.3,0-0.5-0.1-0.7-0.3c-0.8-0.8-1.4-1.7-1.9-2.5
				c-0.3-0.5-0.1-1.1,0.3-1.4s1.1-0.2,1.4,0.3c0.5,0.7,1,1.5,1.7,2.2c0.4,0.4,0.4,1-0.1,1.4C365.4,130.5,365.1,130.6,364.9,130.6
				L364.9,130.6z M361.3,122.6c-0.5,0-1-0.4-1-1v-0.2c0-1.7,0.6-2.6,1.9-3.1c0.5-0.2,1.1,0.1,1.3,0.6c0.2,0.5-0.1,1.1-0.6,1.3
				c-0.4,0.2-0.6,0.2-0.6,1.3v0.2C362.4,122.1,361.9,122.6,361.3,122.6C361.4,122.6,361.3,122.6,361.3,122.6L361.3,122.6z
				 M367.6,117c-0.2,0-0.4-0.1-0.6-0.2c-0.4-0.3-0.5-1-0.1-1.4c0.4-0.5,0.8-1.1,1.2-1.7l0.4-0.6c0.3-0.5,0.9-0.6,1.4-0.3
				c0.5,0.3,0.6,0.9,0.3,1.4l-0.4,0.6c-0.4,0.7-0.9,1.4-1.4,2C368.2,116.9,367.9,117,367.6,117L367.6,117z M372.8,109.7
				c-0.2,0-0.5-0.1-0.7-0.3c-0.4-0.4-0.4-1,0-1.4c0.5-0.6,1.1-1,1.6-1.5l0.6-0.6c0.4-0.4,1-0.3,1.4,0.1s0.4,1,0,1.4L375,108
				c-0.5,0.5-1,0.9-1.5,1.4C373.3,109.6,373.1,109.7,372.8,109.7L372.8,109.7z M379.1,103.3c-0.2,0-0.5-0.1-0.6-0.2
				c-0.4-0.3-0.5-1-0.1-1.4c0.5-0.6,1.1-1.3,1.7-2.2l0.1-0.2c0.3-0.4,1-0.5,1.4-0.2s0.5,1,0.2,1.4l-0.1,0.2
				c-0.6,0.8-1.2,1.6-1.7,2.2C379.6,103.2,379.4,103.3,379.1,103.3z M384.5,96.2c-0.2,0-0.4-0.1-0.6-0.2c-0.5-0.3-0.6-0.9-0.3-1.4
				c0.7-1,1-1.6,1-2.2s0.5-1,1.1-0.9c0.5,0,1,0.5,0.9,1.1c-0.1,1-0.5,1.9-1.4,3.2C385.2,96,384.9,96.2,384.5,96.2L384.5,96.2z
				 M383.8,87.9c-0.4,0-0.7-0.2-0.9-0.6c-0.4-0.8-0.8-1.7-1.2-2.8c-0.2-0.5,0-1.1,0.5-1.3c0.5-0.2,1.1,0,1.3,0.5
				c0.5,1,0.9,1.9,1.2,2.7c0.2,0.5,0,1.1-0.5,1.3C384.1,87.9,383.9,87.9,383.8,87.9L383.8,87.9z M381.1,79.4c-0.5,0-1-0.4-1-1
				c0-0.2,0-0.4,0-0.6c0-0.8,0.1-1.7,0.2-2.6c0.1-0.5,0.6-0.9,1.1-0.8s0.9,0.6,0.8,1.1c-0.1,0.8-0.2,1.6-0.2,2.3c0,0.2,0,0.3,0,0.5
				C382.1,78.9,381.7,79.3,381.1,79.4C381.1,79.3,381.1,79.3,381.1,79.4L381.1,79.4z M382.7,70.6c-0.1,0-0.2,0-0.3,0
				c-0.5-0.2-0.8-0.7-0.7-1.2l0.8-2.9c0.1-0.5,0.7-0.8,1.2-0.7c0.5,0.2,0.8,0.7,0.7,1.2l-0.8,2.9C383.5,70.3,383.1,70.5,382.7,70.6
				L382.7,70.6z M385.1,61.9c-0.1,0-0.2,0-0.3,0c-0.5-0.1-0.9-0.7-0.7-1.2c0.2-0.9,0.5-1.9,0.7-2.9c0.1-0.5,0.7-0.9,1.2-0.7
				c0.5,0.1,0.9,0.7,0.7,1.2c-0.3,1-0.5,2-0.8,2.9C385.9,61.6,385.5,61.9,385.1,61.9L385.1,61.9z M387.2,53.2c-0.1,0-0.1,0-0.2,0
				c-0.5-0.1-0.9-0.7-0.8-1.2c0.2-0.9,0.4-1.9,0.6-2.9c0.1-0.5,0.6-0.9,1.2-0.8s0.9,0.6,0.8,1.2c-0.2,1-0.4,2-0.6,2.9
				C388.1,52.8,387.6,53.2,387.2,53.2L387.2,53.2z M389,44.3c-0.1,0-0.1,0-0.2,0c-0.5-0.1-0.9-0.6-0.8-1.2c0.2-1,0.4-1.9,0.5-2.9
				c0.1-0.5,0.6-0.9,1.2-0.8s0.9,0.6,0.8,1.2c-0.2,1-0.4,2-0.5,3C389.9,44,389.5,44.3,389,44.3L389,44.3z M390.6,35.5
				c0,0-0.1,0-0.2,0c-0.5-0.1-0.9-0.6-0.8-1.2c0.2-1,0.3-2,0.5-3c0.1-0.5,0.6-0.9,1.1-0.8s0.9,0.6,0.8,1.1c-0.2,1-0.3,2-0.5,3
				C391.5,35.1,391.1,35.5,390.6,35.5L390.6,35.5z M392,26.6h-0.1c-0.5-0.1-0.9-0.6-0.8-1.1c0.1-1,0.3-2,0.4-3
				c0.1-0.5,0.6-0.9,1.1-0.9c0.5,0.1,0.9,0.6,0.9,1.1c-0.1,1-0.3,1.9-0.4,3C392.9,26.2,392.5,26.6,392,26.6L392,26.6z M393.2,17.7
				h-0.1c-0.5-0.1-0.9-0.6-0.9-1.1c0.1-1.1,0.2-2,0.4-3c0.1-0.6,0.6-0.9,1.1-0.9c0.5,0.1,0.9,0.6,0.9,1.1c-0.1,0.9-0.2,1.9-0.4,3
				C394.2,17.3,393.7,17.7,393.2,17.7L393.2,17.7z M394.2,8.7C394.2,8.7,394.1,8.7,394.2,8.7c-0.6,0-1-0.5-1-1.1
				c0.1-1.2,0.1-2.1,0.2-3c0-0.6,0.5-1,1-1s1,0.5,1,1c0,0.8-0.1,1.8-0.2,3C395.1,8.3,394.7,8.7,394.2,8.7L394.2,8.7z"/>
			<path class="st0" d="M118.6,709.5c-0.2,0-0.4-0.1-0.6-0.2c-0.4-0.3-0.5-1-0.2-1.4s0.7-0.8,1-1.2c0.4-0.4,1-0.5,1.4-0.1
				s0.5,1,0.1,1.4c-0.3,0.3-0.6,0.7-0.9,1.1C119.2,709.4,118.9,709.5,118.6,709.5z M126.5,705c-0.3,0-0.6,0-0.9,0
				c-0.4,0-0.7-0.1-1.1,0c-0.5,0.1-1.1-0.3-1.1-0.9c-0.1-0.5,0.3-1,0.9-1.1s1.1,0,1.6,0c0.4,0,0.9,0.1,1.3,0
				c0.5-0.1,1.1,0.2,1.2,0.7s-0.2,1.1-0.7,1.2C127.3,705,126.9,705,126.5,705L126.5,705z M131.7,701c-0.2,0-0.4-0.1-0.6-0.2
				c-0.4-0.3-0.5-1-0.2-1.4c0.6-0.8,1.2-1.6,1.8-2.4c0.3-0.4,1-0.5,1.4-0.2s0.5,1,0.2,1.4c-0.6,0.8-1.2,1.6-1.8,2.4
				C132.3,700.8,132,701,131.7,701L131.7,701z M137.3,693.9c-0.2,0-0.5-0.1-0.7-0.2c-0.4-0.4-0.4-1-0.1-1.4c0.7-0.8,1.4-1.5,2.1-2.2
				c0.4-0.4,1-0.4,1.4,0s0.4,1,0,1.4c-0.6,0.7-1.3,1.4-2,2.2C137.9,693.8,137.6,693.9,137.3,693.9L137.3,693.9z M143.9,687.8
				c-0.3,0-0.6-0.2-0.8-0.4c-0.3-0.5-0.2-1.1,0.2-1.4c0.9-0.6,1.8-1.2,2.6-1.7c0.5-0.3,1.1-0.1,1.4,0.4c0.3,0.5,0.1,1.1-0.4,1.3
				c-0.8,0.4-1.6,0.9-2.4,1.5C144.3,687.8,144.1,687.8,143.9,687.8L143.9,687.8z M152.1,684.3c-0.5,0-0.9-0.3-1-0.8s0.3-1.1,0.8-1.1
				c1.1-0.2,2.1-0.2,3.2-0.2c0.6,0,1,0.5,1,1s-0.5,1-1,1c-0.9,0-1.9,0-2.8,0.2C152.2,684.3,152.2,684.3,152.1,684.3L152.1,684.3z
				 M161.1,684.2c-0.5,0-0.9-0.3-1-0.8s0.2-1.1,0.8-1.2c0.9-0.2,1.6-0.5,2.4-1c0.4-0.3,1.1-0.2,1.4,0.2s0.2,1.1-0.2,1.4
				c-0.9,0.7-1.9,1.1-3.1,1.3C161.2,684.2,161.1,684.2,161.1,684.2L161.1,684.2z M167.7,678.5c-0.2,0-0.4,0-0.5-0.2
				c-0.5-0.3-0.6-0.9-0.3-1.4s0.6-0.9,0.9-1.4l0.7-1.2c0.3-0.5,0.9-0.6,1.4-0.3s0.6,0.9,0.3,1.4l-0.7,1.1c-0.3,0.5-0.6,1-0.9,1.4
				S168,678.5,167.7,678.5z M172.7,671c-0.2,0-0.4-0.1-0.6-0.2c-0.4-0.3-0.5-1-0.1-1.4c0.7-0.8,1.4-1.6,2.1-2.3c0.4-0.4,1-0.4,1.4,0
				s0.4,1,0,1.4c-0.7,0.7-1.3,1.4-1.9,2.2C173.3,670.9,173,671,172.7,671L172.7,671z M179.3,664.9c-0.3,0-0.6-0.1-0.8-0.4
				c-0.3-0.4-0.2-1.1,0.2-1.4c0.8-0.6,1.7-1.2,2.5-1.8c0.5-0.3,1.1-0.2,1.4,0.3s0.2,1.1-0.3,1.4c-0.8,0.5-1.6,1.1-2.4,1.7
				C179.7,664.9,179.5,664.9,179.3,664.9L179.3,664.9z M186.9,660.1c-0.4,0-0.7-0.2-0.9-0.5c-0.2-0.5-0.1-1.1,0.4-1.3
				c0.9-0.5,1.9-0.9,2.8-1.3c0.5-0.2,1.1,0,1.3,0.5s0,1.1-0.5,1.3c-0.9,0.4-1.8,0.8-2.6,1.2C187.2,660.1,187,660.2,186.9,660.1
				L186.9,660.1z M195.3,657c-0.4,0-0.9-0.3-1-0.8s0.2-1.1,0.8-1.2c1-0.2,2-0.4,3-0.6c0.6-0.1,1.1,0.3,1.1,0.8s-0.3,1.1-0.8,1.1
				c-1,0.2-1.9,0.3-2.9,0.5C195.4,657,195.4,657,195.3,657L195.3,657z M204.2,655.9c-0.5,0-0.9-0.4-1-0.9s0.3-1,0.9-1.1
				c0.9-0.1,1.7-0.4,2.4-0.8c0.5-0.3,1.1-0.1,1.4,0.3c0.3,0.5,0.1,1.1-0.3,1.4C206.5,655.4,205.5,655.8,204.2,655.9
				C204.3,655.9,204.2,655.9,204.2,655.9L204.2,655.9z M211,650.5c-0.2,0-0.4,0-0.5-0.2c-0.5-0.3-0.6-0.9-0.3-1.4
				c0.5-0.8,1-1.7,1.5-2.5c0.3-0.5,0.9-0.6,1.4-0.4s0.6,0.9,0.4,1.4c-0.5,0.9-1,1.8-1.6,2.6C211.6,650.4,211.3,650.5,211,650.5
				L211,650.5z M215.7,642.9c-0.2,0-0.4-0.1-0.6-0.2c-0.4-0.3-0.6-0.9-0.2-1.4c0.6-0.8,1.2-1.6,1.8-2.3l0.1-0.2
				c0.4-0.4,1-0.5,1.4-0.1s0.5,1,0.1,1.4l-0.1,0.2c-0.6,0.7-1.1,1.4-1.7,2.2C216.3,642.7,216,642.9,215.7,642.9L215.7,642.9z
				 M221.7,636.2c-0.3,0-0.5-0.1-0.7-0.3c-0.4-0.4-0.3-1,0.1-1.4c0.8-0.7,1.5-1.3,2.3-2c0.4-0.3,1.1-0.3,1.4,0.2
				c0.4,0.4,0.3,1.1-0.2,1.4c-0.8,0.6-1.5,1.2-2.2,1.9C222.2,636.1,222,636.2,221.7,636.2L221.7,636.2z M228.9,630.8
				c-0.4,0-0.7-0.2-0.9-0.5c-0.2-0.4-0.1-0.9,0.2-1.2c0-0.5,0.1-1.2,0.2-2.2c0-0.5,0.5-1,1.1-0.9c0.6,0,1,0.5,0.9,1.1
				c-0.1,1.3-0.2,2.3-0.2,2.6l0,0c0,0.4-0.2,0.7-0.5,0.9c0,0-0.1,0-0.3,0.2C229.3,630.8,229.1,630.8,228.9,630.8L228.9,630.8z
				 M229.9,622L229.9,622c-0.6,0-1-0.5-1-1.1c0.1-1,0.1-2,0.2-3c0-0.5,0.5-1,1.1-1s1,0.5,0.9,1c-0.1,1-0.1,2-0.2,3
				C230.9,621.6,230.4,622,229.9,622z M230.3,613L230.3,613c-0.6,0-1-0.5-1-1c0-0.9,0-1.7,0-2.5V609c0-0.5,0.4-1,1-1l0,0
				c0.6,0,1,0.4,1,1v0.5c0,0.8,0,1.7,0,2.5C231.3,612.6,230.8,613,230.3,613L230.3,613z M230.8,604c-0.1,0-0.1,0-0.2,0
				c-0.5-0.1-0.9-0.7-0.8-1.2c0.2-1,0.5-2,0.8-3c0.1-0.5,0.7-0.8,1.2-0.7c0.5,0.2,0.8,0.7,0.7,1.2c-0.3,0.9-0.5,1.9-0.8,2.8
				C231.7,603.7,231.3,604,230.8,604L230.8,604z M233.1,595.3c-0.1,0-0.1,0-0.2,0c-0.5-0.1-0.9-0.6-0.8-1.2c0.1-0.8,0.2-1.5,0.2-2.1
				c0-0.2,0-0.4,0-0.7c-0.1-0.5,0.4-1,0.9-1.1c0.6-0.1,1,0.4,1.1,0.9c0,0.3,0,0.5,0,0.8c0,0.7-0.1,1.5-0.2,2.4
				C234,595,233.6,595.3,233.1,595.3L233.1,595.3z M229.6,588.1c-0.1,0-0.2,0-0.3,0c-0.4-0.1-0.8-0.2-1.3-0.3
				c-0.6-0.1-1.1-0.2-1.6-0.3s-0.9-0.7-0.7-1.2c0.1-0.5,0.7-0.9,1.2-0.7c0.4,0.1,0.9,0.2,1.4,0.3c0.6,0.1,1.1,0.2,1.6,0.3
				c0.5,0.2,0.8,0.7,0.7,1.2C230.5,587.8,230.1,588.1,229.6,588.1L229.6,588.1z M221.7,584.5c-0.3,0-0.6-0.1-0.8-0.3
				c-0.6-0.8-1.2-1.6-1.8-2.6c-0.3-0.5-0.1-1.1,0.4-1.4c0.5-0.3,1.1-0.1,1.4,0.4c0.5,0.9,1,1.7,1.6,2.3c0.4,0.4,0.3,1-0.1,1.4
				C222.1,584.4,221.9,584.5,221.7,584.5L221.7,584.5z M217.6,576.5c-0.4,0-0.8-0.2-0.9-0.6c-0.3-0.8-0.7-1.8-1.2-2.7
				c-0.2-0.5-0.1-1.1,0.4-1.3s1.1,0,1.3,0.4c0.5,0.9,0.9,2,1.2,2.8c0.2,0.5,0,1.1-0.6,1.3C217.8,576.5,217.7,576.5,217.6,576.5
				L217.6,576.5z M196.1,574.1c-0.1,0-0.1,0-0.2,0c-1-0.2-2-1-2.9-2.3c-0.3-0.5-0.2-1.1,0.3-1.4c0.5-0.3,1.1-0.2,1.4,0.3
				c0.7,1.1,1.3,1.4,1.6,1.4c0.5,0.1,0.9,0.6,0.8,1.2C197,573.7,196.6,574.1,196.1,574.1L196.1,574.1z M201.3,571.2
				c-0.3,0-0.6-0.2-0.8-0.5c-0.3-0.5-0.2-1.1,0.3-1.4c1-0.6,1.9-1.1,2.7-1.5c0.5-0.2,1.1,0,1.3,0.5s0.1,1.1-0.4,1.3
				c-0.8,0.4-1.6,0.8-2.5,1.5C201.6,571.2,201.4,571.3,201.3,571.2L201.3,571.2z M212.4,569.3c-0.2,0-0.3,0-0.5-0.1
				c-0.8-0.5-1.6-0.7-2.4-0.8c-0.6-0.1-0.9-0.5-0.9-1.1c0.1-0.5,0.5-0.9,1.1-0.9c1.1,0.1,2.2,0.5,3.2,1c0.5,0.3,0.6,0.9,0.4,1.4
				C213.1,569.1,212.8,569.3,212.4,569.3L212.4,569.3z M191.4,566.7c-0.4,0-0.8-0.3-0.9-0.7c-0.3-0.9-0.6-1.8-0.9-2.9
				c-0.1-0.5,0.2-1.1,0.7-1.2c0.5-0.2,1.1,0.2,1.2,0.7c0.3,1,0.6,2,0.9,2.8c0.2,0.5-0.1,1.1-0.6,1.3
				C191.6,566.7,191.5,566.7,191.4,566.7L191.4,566.7z M189.1,558c-0.4,0-0.9-0.3-1-0.8c-0.2-1-0.4-1.9-0.6-2.8v-0.1
				c-0.1-0.5,0.2-1.1,0.8-1.2c0.5-0.1,1.1,0.2,1.2,0.8v0.1c0.2,0.9,0.4,1.8,0.6,2.8c0.1,0.5-0.2,1.1-0.8,1.2
				C189.2,558,189.1,558,189.1,558L189.1,558z M186.9,549.3c-0.4,0-0.8-0.2-0.9-0.7c-0.4-1-0.8-1.7-1.2-2.4
				c-0.3-0.4-0.3-1.1,0.2-1.4s1.1-0.3,1.4,0.2c0.6,0.8,1.1,1.7,1.6,2.9c0.2,0.5-0.1,1.1-0.6,1.3C187.1,549.3,187,549.3,186.9,549.3
				L186.9,549.3z M180.9,542.8c-0.2,0-0.4-0.1-0.6-0.2c-0.9-0.7-1.6-1.3-2.4-1.9c-0.4-0.4-0.5-1-0.1-1.4s1-0.5,1.4-0.1
				c0.7,0.6,1.5,1.2,2.3,1.9c0.4,0.3,0.5,1,0.2,1.4C181.5,542.7,181.3,542.8,180.9,542.8L180.9,542.8z M174.3,536.8
				c-0.3,0-0.6-0.1-0.8-0.3c-0.7-0.8-1.4-1.7-1.9-2.5c-0.3-0.5-0.1-1.1,0.3-1.4c0.5-0.3,1.1-0.1,1.4,0.3c0.5,0.8,1,1.5,1.7,2.3
				c0.4,0.4,0.3,1-0.1,1.4C174.8,536.7,174.5,536.8,174.3,536.8L174.3,536.8z M170.9,528.7C170.9,528.7,170.8,528.7,170.9,528.7
				c-0.6,0-1-0.5-1-1c0.1-2,0.9-3.2,1-3.4c0.3-0.5,0.9-0.6,1.4-0.2s0.6,0.9,0.2,1.4c0,0-0.6,0.9-0.6,2.3
				C171.8,528.3,171.4,528.7,170.9,528.7L170.9,528.7z"/>
			<path class="st0" d="M365.6,710.8c-0.1,0-0.3,0-0.4-0.1c-0.5-0.2-1-0.5-1.5-0.9c-0.4-0.3-0.5-1-0.1-1.4s1-0.5,1.4-0.1
				c0.3,0.3,0.7,0.5,1,0.7c0.5,0.2,0.7,0.8,0.5,1.3C366.4,710.6,366,710.8,365.6,710.8L365.6,710.8z M360.8,705.2
				c-0.3,0-0.7-0.2-0.9-0.5c-0.5-0.8-1-1.7-1.5-2.6c-0.3-0.5-0.1-1.1,0.4-1.4c0.5-0.3,1.1-0.1,1.4,0.4c0.5,1,1,1.8,1.5,2.6
				c0.3,0.5,0.1,1.1-0.4,1.4C361.1,705.2,360.9,705.3,360.8,705.2L360.8,705.2z M356.3,697.4c-0.4,0-0.7-0.2-0.9-0.5
				c-0.5-0.8-1-1.7-1.5-2.6c-0.3-0.5-0.1-1.1,0.4-1.4c0.5-0.3,1.1-0.1,1.4,0.4c0.5,0.9,1,1.8,1.5,2.6c0.3,0.5,0.1,1.1-0.4,1.4
				C356.7,697.4,356.5,697.4,356.3,697.4L356.3,697.4z M351.8,689.6c-0.3,0-0.6-0.2-0.8-0.5c-0.6-0.9-1.1-1.7-1.7-2.3
				c-0.4-0.4-0.3-1.1,0.1-1.4c0.4-0.3,1.1-0.3,1.4,0.1c0.6,0.7,1.2,1.6,1.8,2.5c0.3,0.5,0.2,1.1-0.3,1.4
				C352.2,689.6,352,689.6,351.8,689.6L351.8,689.6z M345.5,683.4c-0.1,0-0.3,0-0.5-0.1c-0.8-0.4-1.6-0.7-2.6-1
				c-0.5-0.2-0.8-0.7-0.7-1.2c0.1-0.5,0.7-0.8,1.2-0.7c1.1,0.3,2.1,0.7,3,1.2c0.5,0.2,0.7,0.9,0.4,1.3
				C346.3,683.2,345.9,683.4,345.5,683.4L345.5,683.4z M336.9,680.8c-0.1,0-0.2,0-0.3,0c-1-0.3-2-0.7-2.9-1.2
				c-0.5-0.2-0.7-0.8-0.5-1.3s0.8-0.7,1.3-0.5c0.8,0.4,1.7,0.8,2.6,1.1c0.5,0.2,0.8,0.7,0.6,1.3
				C337.7,680.6,337.4,680.8,336.9,680.8L336.9,680.8z M329.2,676.3c-0.2,0-0.5-0.1-0.7-0.2c-0.8-0.7-1.5-1.4-2.2-2.2
				c-0.4-0.4-0.3-1,0.1-1.4s1-0.3,1.4,0.1c0.7,0.7,1.4,1.4,2,2c0.4,0.4,0.5,1,0.1,1.4C329.8,676.2,329.5,676.3,329.2,676.3
				L329.2,676.3z M323.5,669.4c-0.3,0-0.6-0.2-0.8-0.5c-0.6-1-1.2-2-1.6-2.6c-0.3-0.5-0.1-1.1,0.4-1.4c0.5-0.3,1.1-0.1,1.4,0.4
				c0.4,0.6,0.9,1.6,1.5,2.5c0.3,0.5,0.2,1.1-0.3,1.4C323.9,669.4,323.7,669.4,323.5,669.4L323.5,669.4z M318.8,661.8
				c-0.3,0-0.6-0.1-0.8-0.4c-0.6-0.7-1.1-1.1-1.5-1.1c-0.5,0-1.1-0.3-1.1-0.9c0-0.5,0.3-1,0.9-1.1c0.1,0,0.2,0,0.3,0
				c1.4,0,2.4,1,3.1,1.8c0.4,0.4,0.3,1.1-0.1,1.4C319.2,661.7,319,661.8,318.8,661.8L318.8,661.8z M310.5,659.4
				c-0.2,0-0.3,0-0.5-0.1c-0.9-0.5-1.8-1.1-2.6-1.9c-0.4-0.4-0.4-1,0-1.4s1-0.4,1.4,0c0.7,0.7,1.5,1.2,2.2,1.6
				c0.5,0.3,0.7,0.9,0.4,1.3C311.2,659.2,310.8,659.4,310.5,659.4L310.5,659.4z M304.2,653.1c-0.3,0-0.6-0.1-0.8-0.3
				c-0.7-0.8-1.3-1.5-2-2.1c-0.4-0.4-0.4-1-0.1-1.4c0.4-0.4,1-0.4,1.4-0.1c0.7,0.7,1.4,1.4,2.2,2.2c0.4,0.4,0.3,1-0.1,1.4
				C304.6,653,304.4,653.1,304.2,653.1L304.2,653.1z M297.1,647.7c-0.1,0-0.3,0-0.4-0.1c-0.8-0.4-1.8-0.7-2.7-0.9
				c-0.5-0.1-0.9-0.7-0.7-1.2c0.1-0.5,0.7-0.8,1.2-0.7c1,0.3,2,0.6,3,1c0.5,0.2,0.7,0.8,0.5,1.3
				C297.8,647.4,297.5,647.7,297.1,647.7L297.1,647.7z M288.8,644.3c-0.2,0-0.5-0.1-0.6-0.2c-0.8-0.7-1.5-1.4-2.2-2.3
				c-0.3-0.4-0.3-1.1,0.2-1.4c0.4-0.3,1.1-0.3,1.4,0.2c0.6,0.8,1.3,1.5,1.9,2c0.4,0.3,0.5,1,0.1,1.4
				C289.4,644.2,289.1,644.3,288.8,644.3L288.8,644.3z M283.8,637c-0.4,0-0.8-0.2-0.9-0.6c-0.4-0.9-0.8-1.9-1.1-2.9
				c-0.2-0.5,0.1-1.1,0.6-1.3s1.1,0.1,1.3,0.6c0.3,1,0.7,1.9,1,2.7c0.2,0.5,0,1.1-0.5,1.3C284.1,636.9,283.9,637,283.8,637
				L283.8,637z M229.5,630.7c-0.3,0-0.4,0-0.4,0c-0.6,0-0.9-0.5-0.9-1.1c0.1-0.5,0.5-1,1.1-0.9c0.1,0,1.1,0,2.6-0.3
				c0.5-0.1,1.1,0.2,1.2,0.7c0.1,0.5-0.2,1.1-0.7,1.2C231.1,630.6,230,630.7,229.5,630.7L229.5,630.7z M281.2,628.4
				c-0.5,0-0.9-0.3-1-0.8c-0.2-1-0.4-2-0.5-3c-0.1-0.5,0.3-1.1,0.8-1.1c0.5-0.1,1.1,0.3,1.1,0.8c0.1,0.9,0.3,1.9,0.5,2.9
				c0.1,0.5-0.2,1.1-0.8,1.2C281.3,628.4,281.2,628.4,281.2,628.4z M237.7,627.9c-0.3,0-0.6-0.2-0.8-0.5c-0.3-0.5-0.2-1.1,0.3-1.4
				c0.8-0.5,1.5-1.1,2.3-1.7c0.4-0.4,1.1-0.3,1.4,0.1s0.3,1-0.1,1.4c-0.8,0.7-1.6,1.3-2.5,1.9C238,627.8,237.9,627.9,237.7,627.9
				L237.7,627.9z M244.2,621.8c-0.2,0-0.5-0.1-0.7-0.2c-0.4-0.4-0.4-1-0.1-1.4c0.6-0.6,1-1.2,1.5-1.7l0.5-0.5c0.4-0.4,1-0.5,1.4-0.1
				s0.5,1,0.1,1.4l-0.5,0.5c-0.5,0.5-1,1.1-1.5,1.7C244.8,621.7,244.5,621.8,244.2,621.8L244.2,621.8z M270.5,621.7h-0.1
				c-1-0.1-2-0.3-3.1-0.7c-0.5-0.2-0.8-0.7-0.6-1.2c0.2-0.5,0.7-0.8,1.2-0.7c1,0.3,1.9,0.5,2.7,0.6c0.5,0.1,1,0.5,0.9,1.1
				C271.4,621.3,271,621.7,270.5,621.7L270.5,621.7z M276.1,620c-0.4,0-0.7-0.2-0.9-0.5c-0.3-0.5-0.1-1.1,0.4-1.4
				c0.8-0.5,1.6-0.7,2.2-0.7s1.2,0.2,1.7,0.6c0.4,0.3,0.5,1,0.1,1.4s-1,0.5-1.4,0.2c-0.1-0.1-0.2-0.1-0.4-0.1l0,0
				c-0.2,0-0.6,0.1-1.3,0.4C276.4,620,276.2,620,276.1,620L276.1,620z M262,618.7c-0.1,0-0.3,0-0.4-0.1l-1.3-0.6
				c-0.5-0.2-1-0.5-1.4-0.7c-0.5-0.2-0.7-0.8-0.5-1.3s0.8-0.7,1.3-0.5s1,0.5,1.4,0.7l1.3,0.6c0.5,0.2,0.7,0.8,0.5,1.3
				C262.7,618.5,262.4,618.7,262,618.7L262,618.7z M250.7,615.7c-0.4,0-0.8-0.2-0.9-0.7c-0.2-0.5,0.1-1.1,0.6-1.3
				c1-0.3,2-0.5,3.4-0.3c0.6,0,1,0.5,0.9,1.1s-0.5,1-1.1,0.9c-1-0.1-1.8,0-2.5,0.2C251,615.7,250.8,615.7,250.7,615.7L250.7,615.7z"
				/>
			<path class="st0" d="M679.9,714.1c-0.1,0-0.2,0-0.2,0c-0.5-0.1-0.9-0.7-0.8-1.2c0.2-1,0.4-1.9,0.5-2.9c0.1-0.5,0.6-0.9,1.1-0.9
				c0.5,0.1,0.9,0.6,0.9,1.1c-0.1,1-0.3,2-0.5,3.1C680.8,713.8,680.4,714.1,679.9,714.1L679.9,714.1z M680.3,705.2
				c-0.5,0-0.9-0.3-1-0.8c-0.2-1-0.5-1.8-0.8-2.6c-0.2-0.5,0-1.1,0.5-1.3s1.1,0,1.3,0.5c0.4,0.9,0.8,2,1,3.1
				c0.1,0.5-0.3,1.1-0.8,1.2C680.4,705.2,680.4,705.2,680.3,705.2L680.3,705.2z M675.8,697.6c-0.3,0-0.6-0.2-0.8-0.4
				c-0.8-1.1-1.2-2.2-1.3-3.2c0-0.5,0.3-1,0.9-1.1c0.6,0,1,0.3,1.1,0.9c0.1,0.7,0.4,1.5,0.9,2.3c0.3,0.5,0.2,1.1-0.2,1.4
				C676.2,697.5,676,697.6,675.8,697.6L675.8,697.6z M676.8,689.4c-0.2,0-0.4-0.1-0.6-0.2c-0.5-0.3-0.6-0.9-0.2-1.4
				c0.5-0.7,1-1.4,1.8-2.5c0.3-0.4,1-0.5,1.4-0.2s0.5,1,0.2,1.4c-0.8,1-1.3,1.7-1.8,2.4C677.4,689.2,677.1,689.4,676.8,689.4
				L676.8,689.4z M682.3,682.2c-0.2,0-0.4-0.1-0.6-0.2c-0.4-0.3-0.5-1-0.2-1.4l0.1-0.2c0.6-0.7,1-1.5,1.4-2.2
				c0.2-0.5,0.8-0.7,1.3-0.5s0.7,0.8,0.5,1.3c-0.4,0.8-0.9,1.7-1.6,2.5l-0.1,0.2C682.9,682.1,682.6,682.2,682.3,682.2L682.3,682.2z
				 M684.6,673.9c-0.5,0-0.9-0.3-1-0.8c-0.2-0.8-0.5-1.7-0.9-2.6c-0.2-0.5,0-1.1,0.5-1.3s1.1,0,1.3,0.5c0.5,1.1,0.8,2.1,1,3
				C685.6,673.2,685.3,673.8,684.6,673.9C684.7,673.9,684.7,673.9,684.6,673.9L684.6,673.9z M680.5,666c-0.3,0-0.6-0.1-0.8-0.4
				l-0.6-0.8c-0.4-0.6-0.8-1.1-1.2-1.7c-0.3-0.5-0.2-1.1,0.2-1.4s1.1-0.2,1.4,0.2c0.4,0.5,0.8,1.1,1.2,1.6l0.6,0.8
				c0.3,0.5,0.2,1.1-0.2,1.4C680.9,665.9,680.7,666,680.5,666L680.5,666z M676,658.2c-0.5,0-0.9-0.3-1-0.8c-0.2-0.9-0.4-2-0.5-3.1
				c0-0.5,0.4-1,0.9-1.1c0.6,0,1,0.4,1.1,0.9c0.1,1,0.2,2,0.4,2.8c0.1,0.5-0.2,1.1-0.8,1.2C676.2,658.2,676.1,658.2,676,658.2
				L676,658.2z M675.8,649.2L675.8,649.2c-0.6-0.1-1.1-0.5-1-1.1c0.1-1,0.2-2,0.4-3c0.1-0.5,0.6-0.9,1.1-0.8
				c0.5,0.1,0.9,0.6,0.8,1.1c-0.2,1-0.3,2-0.4,2.9C676.7,648.8,676.3,649.2,675.8,649.2L675.8,649.2z M677.4,640.4
				c-0.1,0-0.2,0-0.2,0c-0.5-0.1-0.9-0.7-0.7-1.2c0.2-1,0.5-2,0.8-2.9c0.2-0.5,0.7-0.8,1.2-0.7s0.8,0.7,0.7,1.2
				c-0.3,1-0.5,1.9-0.7,2.9C678.2,640.1,677.8,640.4,677.4,640.4L677.4,640.4z M679.8,631.7c-0.1,0-0.2,0-0.3,0
				c-0.5-0.2-0.8-0.7-0.6-1.3l0.2-0.5c0.2-0.7,0.4-1.5,0.6-2.3c0.1-0.5,0.6-0.9,1.2-0.8c0.5,0.1,0.9,0.6,0.8,1.2
				c-0.2,0.9-0.4,1.8-0.6,2.6l-0.2,0.4C680.6,631.4,680.2,631.7,679.8,631.7L679.8,631.7z M680.6,622.8c-0.5,0-0.9-0.4-1-0.9
				c-0.1-0.9-0.3-1.9-0.6-2.8c-0.1-0.5,0.2-1.1,0.7-1.2c0.5-0.1,1.1,0.2,1.2,0.7c0.3,1,0.5,2.1,0.6,3c0.1,0.5-0.3,1-0.8,1.1
				C680.7,622.8,680.7,622.8,680.6,622.8L680.6,622.8z M677.9,614.3c-0.4,0-0.7-0.2-0.9-0.6c-0.8-1.6-1.4-2.5-1.4-2.5
				c-0.3-0.5-0.2-1.1,0.3-1.4c0.5-0.3,1.1-0.2,1.4,0.3c0,0,0.7,1.1,1.5,2.8c0.2,0.5,0,1.1-0.5,1.3
				C678.2,614.2,678.1,614.3,677.9,614.3L677.9,614.3z"/>
			<path class="st0" d="M816.7,552.9c-0.5,0-1-0.4-1-0.9s0.4-1,0.9-1.1c0.8-0.1,1.8-0.2,2.8-0.5c0.5-0.1,1.1,0.2,1.2,0.7
				s-0.2,1.1-0.7,1.2C818.8,552.6,817.8,552.8,816.7,552.9C816.8,552.9,816.7,552.9,816.7,552.9L816.7,552.9z M811.1,551.4
				c-0.2,0-0.4-0.1-0.6-0.2c-0.8-0.6-1.6-1.5-2.2-2.5c-0.3-0.5-0.2-1.1,0.3-1.4c0.5-0.3,1.1-0.2,1.4,0.3c0.5,0.8,1.1,1.5,1.8,2
				c0.4,0.3,0.5,1,0.2,1.4C811.7,551.2,811.4,551.4,811.1,551.4L811.1,551.4z M806.9,543.6c-0.4,0-0.8-0.3-1-0.7
				c-0.3-1-0.5-2-0.8-2.9c-0.1-0.5,0.2-1.1,0.7-1.2s1.1,0.2,1.2,0.7c0.2,0.9,0.5,1.9,0.8,2.9c0.2,0.5-0.2,1.1-0.7,1.2
				C807,543.6,806.9,543.6,806.9,543.6L806.9,543.6z M804.5,534.9c-0.4,0-0.8-0.2-0.9-0.7c-0.3-1-0.7-1.8-1.2-2.5
				c-0.3-0.5-0.1-1.1,0.4-1.4s1.1-0.1,1.4,0.4c0.5,0.9,0.9,1.8,1.3,2.9c0.2,0.5-0.1,1.1-0.6,1.3C804.7,534.9,804.6,535,804.5,534.9
				L804.5,534.9z M799.2,527.9c-0.2,0-0.4-0.1-0.6-0.2c-0.1-0.1-0.3-0.2-0.4-0.3c-0.8-0.5-1.5-1.2-2-1.8c-0.3-0.4-0.3-1.1,0.1-1.4
				s1.1-0.3,1.4,0.1c0.5,0.5,1,1,1.6,1.5c0.2,0.1,0.3,0.2,0.5,0.3c0.5,0.3,0.5,1,0.2,1.4C799.8,527.7,799.5,527.9,799.2,527.9
				L799.2,527.9z M794.8,520.4c-0.5,0-0.9-0.4-1-0.8c-0.2-1-0.2-2-0.3-3c0-0.5,0.3-1,0.9-1.1c0.5-0.1,1,0.3,1.1,0.9
				c0.1,1,0.2,2,0.3,2.9c0.1,0.5-0.3,1.1-0.8,1.1C794.9,520.4,794.9,520.4,794.8,520.4L794.8,520.4z M793.8,511.5
				c-0.5,0-0.9-0.3-1-0.8c-0.2-1-0.4-1.9-0.6-2.8c-0.1-0.5,0.2-1.1,0.7-1.2s1.1,0.2,1.2,0.7c0.3,1,0.5,2,0.7,3
				c0.1,0.5-0.3,1.1-0.8,1.2C793.9,511.5,793.8,511.5,793.8,511.5L793.8,511.5z M791,502.9c-0.4,0-0.7-0.2-0.9-0.6
				c-0.5-1-0.9-1.8-1.3-2.6c-0.3-0.5-0.1-1.1,0.4-1.4s1.1-0.1,1.4,0.4c0.5,0.8,0.9,1.7,1.4,2.7c0.2,0.5,0,1.1-0.5,1.3
				C791.3,502.9,791.2,503,791,502.9L791,502.9z M786.2,495.4c-0.3,0-0.5-0.1-0.7-0.3c-0.5-0.5-0.9-0.8-1.3-1.2
				c-0.3-0.3-0.6-0.5-0.9-0.8c-0.4-0.4-0.4-1,0-1.4s1-0.4,1.4,0c0.2,0.2,0.5,0.4,0.8,0.6c0.4,0.3,0.9,0.7,1.5,1.3
				c0.4,0.4,0.4,1,0,1.4C786.7,495.3,786.4,495.4,786.2,495.4L786.2,495.4z M730.2,489C730.2,489,730.1,489,730.2,489
				c-2.5-0.2-3.3-1.8-3.4-2c-0.2-0.5,0-1.1,0.5-1.3c0.5-0.2,1.1,0,1.3,0.4c0,0.1,0.5,0.8,1.8,0.9c0.5,0.1,1,0.5,0.9,1.1
				C731.1,488.7,730.7,489.1,730.2,489L730.2,489z M781.7,488c-0.4,0-0.8-0.3-1-0.7c-0.3-0.9-0.7-1.8-1.2-2.6
				c-0.3-0.5-0.1-1.1,0.4-1.4s1.1-0.1,1.4,0.4c0.5,0.9,0.9,1.8,1.3,2.9c0.2,0.5-0.1,1.1-0.6,1.3C781.9,488,781.8,488,781.7,488
				L781.7,488z M735.9,487.5c-0.4,0-0.7-0.2-0.9-0.5c-0.3-0.5-0.1-1.1,0.4-1.4c0.8-0.4,1.6-0.9,2.5-1.5c0.5-0.3,1.1-0.2,1.4,0.3
				s0.2,1.1-0.3,1.4c-0.9,0.6-1.8,1.2-2.7,1.6C736.2,487.4,736,487.5,735.9,487.5L735.9,487.5z M743,482c-0.2,0-0.5-0.1-0.7-0.3
				c-0.4-0.4-0.4-1,0-1.4c0.6-0.6,1.2-1.3,2-2.2c0.4-0.4,1-0.5,1.4-0.1s0.5,1,0.1,1.4c-0.8,0.9-1.4,1.6-2,2.3
				C743.5,481.9,743.3,482,743,482L743,482z M776.2,481.2c-0.1,0-0.2,0-0.4-0.1c-0.8-0.3-1.6-0.5-2.5-0.5c-0.5,0-1-0.5-1-1
				s0.4-1,1-1h0.1c1.2,0,2.2,0.2,3.2,0.6c0.5,0.2,0.8,0.8,0.6,1.3C776.9,481,776.6,481.3,776.2,481.2L776.2,481.2z M767.3,481.1
				c-0.1,0-0.1,0-0.2,0c-1-0.2-2-0.6-3.1-1.2c-0.5-0.3-0.6-0.9-0.4-1.4c0.3-0.5,0.9-0.6,1.4-0.4c0.9,0.5,1.7,0.8,2.5,1
				c0.5,0.1,0.9,0.6,0.8,1.2C768.2,480.8,767.8,481.1,767.3,481.1L767.3,481.1z M759.6,476.6c-0.2,0-0.4-0.1-0.6-0.2
				c-0.9-0.6-1.7-1.1-2.5-1.6c-0.5-0.3-0.6-0.9-0.3-1.4s0.9-0.6,1.4-0.3c0.8,0.5,1.7,1,2.6,1.7c0.5,0.3,0.6,0.9,0.2,1.4
				C760.2,476.4,759.9,476.6,759.6,476.6L759.6,476.6z M749,475.3c-0.3,0-0.5-0.1-0.7-0.3c-0.4-0.4-0.3-1,0-1.4
				c1-0.9,1.9-1.5,2.8-1.9c0.5-0.2,1.1,0.1,1.3,0.6s-0.1,1.1-0.6,1.3c-0.7,0.2-1.4,0.7-2.1,1.4C749.5,475.2,749.2,475.3,749,475.3
				L749,475.3z"/>
			<path class="st0" d="M797.7,291.4c-0.2,0-0.4-0.1-0.6-0.2c-0.5-0.3-0.5-1-0.2-1.4c0,0,0.8-1.1,2-2.4c0.4-0.4,1-0.5,1.4-0.1
				s0.5,1,0.1,1.4c-1.1,1.3-1.8,2.3-1.8,2.3C798.3,291.3,798,291.4,797.7,291.4L797.7,291.4z M803.9,284.9c-0.3,0-0.6-0.1-0.8-0.4
				c-0.3-0.4-0.3-1.1,0.2-1.4c1-0.7,1.9-1.3,2.7-1.7c0.5-0.2,1.1,0,1.3,0.5s0,1.1-0.5,1.3c-0.7,0.3-1.5,0.8-2.3,1.5
				C804.4,284.8,804.1,284.9,803.9,284.9L803.9,284.9z M812.3,282.6c-0.5,0-1-0.4-1-0.9s0.4-1,0.9-1.1c0.9-0.1,1.9-0.2,2.9-0.3
				c0.5-0.1,1,0.3,1.1,0.9c0.1,0.5-0.3,1-0.8,1.1C814.4,282.4,813.3,282.5,812.3,282.6C812.4,282.6,812.4,282.6,812.3,282.6
				L812.3,282.6z M821.2,281.1c-0.5,0-0.9-0.3-1-0.8s0.2-1.1,0.7-1.2c1-0.2,1.9-0.5,2.8-0.8c0.5-0.2,1.1,0.1,1.2,0.7
				s-0.2,1.1-0.7,1.2C823.2,280.5,822.2,280.7,821.2,281.1C821.4,281.1,821.3,281.1,821.2,281.1L821.2,281.1z M829.8,278.3
				c-0.4,0-0.8-0.2-0.9-0.6c-0.2-0.5,0-1.1,0.5-1.3c0.2-0.1,0.3-0.1,0.5-0.2c0.5-0.2,1.1,0,1.3,0.5s0,1.1-0.5,1.3
				c-0.2,0.1-0.4,0.2-0.5,0.2C830,278.3,829.9,278.3,829.8,278.3L829.8,278.3z"/>
		</g>
		<g>
			<g>
				<path class="st1" d="M299.3,251.1c-1.5-1.3-2.7-3.1-4.2-4.4c-1.5-1.4-3.6-2.3-5.5-1.7c-2.2,0.7-3.3,3.1-5.3,4.2
					c-1.7,0.9-4,0.6-5.4-0.6c-3.3-2.9,0-6.6-0.7-10.1c-0.6-3.1-4.9-3.3-7.2-5.4c-2.9-2.5-2.2-7.1-2-11c-4.7-0.7-8.8-2.1-12.4-4.4
					c-2.5-1.6-4.7-3.6-6.6-5.8c0,0.6,0,1.1-0.1,1.7c-0.1,4.3-0.3,9.7-4.9,12.9c-1.4,1-3.3,1-4.7,0c1.3,6.7,1.4,13.6,0.2,20.4
					c-0.3,1.9-0.8,4-1.9,5.9c-0.8,1.4-1.9,2.6-2.9,3.7c-0.7,0.7-1.7,1.9-2,2.5c0.2,0.3,0.7,0.8,1,1.1c1.4,1.3,3.6,3.6,3.1,7.1
					c-0.4,3.1-3,4.8-4.3,5.8c-5.2,3.6-9.8,8.2-13.2,13.5c3.7,4.4,7.2,8.9,10.6,13.4c0.4,0.6,1.3,1.8,1.4,3.4c0.1,2.1-1,3.6-1.9,4.4
					l0.1,0.1c1.2,1.5,3,3.7,2.6,6.7c-0.5,3.7-4.2,6.2-8.8,6c-0.4,0-0.8-0.1-1.2-0.1c-0.6,0-1.5-0.1-1.9-0.1c-0.1,0.3-0.2,0.9-0.1,2
					c0,0.3,0.1,0.7,0.1,1c0.2,2,0.5,4.5-0.6,7.1c-0.9,2.1-2.5,3.6-3.8,4.8c-0.6,0.5-1.6,1.5-1.7,1.8c0,0.5,1.2,2,1.8,2.8
					c1.7,2.2,4.6,5.9,2.5,10.3c-1.1,2.2-3.1,3.5-4.6,4.4c-0.1,0.1-0.3,0.2-0.5,0.3l2.1,3.5c0.9,1.5,0.7,3.3-0.4,4.6
					c-1.4,1.6-3.1,2.2-4.3,2.6c-0.4,0.1-0.8,0.3-1,0.4c-0.7,0.3-1.2,1.4-1.4,2.6c-0.1,0.7-0.1,1.4,0,2.1l9.9-1.7
					c2.5-0.4,6.3-1.1,9.8,0.7c1.7,0.8,2.9,2.1,3.9,3c0.2,0.2,0.4,0.4,0.6,0.6c1.2,1.2,2.7,2.2,4.3,2.9c0.5,0.1,0.9,0.3,1.3,0.6
					c2.8,1.1,5.8,1.5,8.7,1.1c0-0.3-0.1-0.7-0.2-1.1c-0.1-0.4-0.3-0.9-0.5-1.3c-0.8-2.1-1.7-4.6-1-7.6c1.7-6.5,9.2-7.9,15.5-6.4
					c2.7,0.6,6.7,1.6,7.9,0.3c0.2-0.3,0.5-0.9,0.8-1.5c0.6-1.1,1.2-2.5,2.5-3.8c3.3-3.2,7.7-2.8,11.2-2.5c1.1,0.1,3.4,0.3,4.1,0
					c0-0.1,0-0.1,0-0.2c-0.1-1-0.4-2.5,0.4-4.2c1.8-3.9,6.7-5,10.2-3.7c1.3,0.5,2.4,1.1,3.4,1.7c0.9,0.5,1.8,1,2.4,1.1
					c1.9,0.3,4.2-2.7,5.6-5.8c1.9-4.1,5.2-11.1,12.1-12c1.2-0.1,2.3-0.1,3.3,0c0.7,0,1.3,0.1,1.8,0c1.1-0.2,2.3-1.3,3.7-2.6
					c1.7-1.6,3.7-3.4,6.4-4.3c3-1,5.9-0.6,8.6-0.3c2.3,0.3,4,0.4,4.8-0.1c0.8-1.5,1.6-3.1,1.6-4.5c0.1-1.1-0.3-2.5-0.7-3.9
					c-0.2-0.8-0.4-1.5-0.6-2.3c-1-4.4-0.1-8.2,2.4-10.7c1.2-1.2,2.5-1.8,3.6-2.3c0.6-0.3,1.1-0.5,1.4-0.8c0.8-0.6,1-2.6,1.3-4.5
					c0.4-3.2,1-7.2,4.4-9.7c1.8-1.4,3.8-1.8,5.4-2.1c0.7-0.1,1.4-0.3,1.8-0.5c1.4-0.5,2.6-2,2.8-3.5c0-0.3,0-0.7,0.1-1
					c0-1.2,0.1-2.8,0.9-4.5c1.7-3.7,5.4-4.7,8.1-5.4c1-0.3,2.6-0.7,2.9-1c0-0.1,0.1-0.6,0.1-0.9c0.1-0.8,0.2-1.8,0.5-2.8
					c1.4-4.1,5.2-5.6,8-6.7c0.3-0.1,0.7-0.3,1-0.4c0.9-0.4,1.5-0.9,1.8-1.3c-0.4-0.8-0.8-2-0.4-3.5c0.4-1.8,1.8-2.7,2.2-3h0.1
					c-1.2-2.3-2.1-4.8-3-7.1c-0.3-0.9-0.6-1.7-0.9-2.6c-0.9-2.3-1.9-4.4-3-6.6c-0.3,0-0.7,0.1-1,0c-1.2-0.2-2.2-1.2-3.3-1.8
					c-3.9-2-8.5,1.3-12.9,1.4c-0.6,0-1.4-0.1-1.8-0.5c-0.5-0.5-0.6-1.2-0.8-1.9c-1.5-5.7-9.3-8.6-14.1-5.2c-1,0.7-1.9,1.7-3,2.3
					c-2.1,1.2-4.6,1-6.9,1.2c-4.7,0.3-9.8,2.3-11.7,6.6c-0.9,2.1-1,4.6-2,6.6c-1.4,2.8-4.7,4.6-7.8,4.2c-1.3-0.2-2.5-0.7-3.9-0.7
					c-4.1,0-6.5,4.5-9.8,7C309.4,254.7,303.1,254.5,299.3,251.1L299.3,251.1z"/>
				<path class="st1" d="M87.4,241.8c1.2,0.8,3.4,0.7,5.8,0.5c3.6-0.2,8-0.4,11.5,2.7c2.8,2.6,3.5,6,4,8.8c0.2,1,0.4,2,0.6,2.8
					c1.3,4,5.9,6.7,10,5.9c0.8-0.2,1-0.4,1-0.4c0.1-0.2,0.3-1.2,0.4-1.8c0.4-1.9,0.9-4.9,3.6-6.7c3.8-2.6,9.1-0.8,12.5,4.2
					c0.6,0.9,1.9,2.8,2.6,3.1c0.3-0.1,0.9-0.6,1.3-0.9c0.6-0.5,1.4-1,2.2-1.5c4.4-2.5,9.1-1.2,12.8-0.2c2.2,0.6,4.2,1.1,5.9,1
					c0.7-0.1,1.5-0.3,2.3-0.5c1.1-0.3,2.4-0.6,3.8-0.7c4.3-0.3,8.1,1.9,9.2,5.5c0.6,2.1,0.2,4-0.2,5.4c-1.4,5.6-1.9,11.3-1.4,17
					c0.1,0.9,0.2,1.5,0.4,2c0.1,0,0.1-0.1,0.2-0.1c2.1-1.4,4.1-3.1,5.6-5.2c0.1-0.2,0.3-0.4,0.4-0.6c1.2-1.7,2.8-4,5.7-5
					c1.4-0.5,2.7-0.5,3.7-0.6c0.3,0,0.6,0,0.9,0c2.1-0.2,4.2-1.6,5.1-3.6c0.8-1.7,2.6-2.6,4.4-2.2c9.8,2.1,10.6,7.6,10.4,9.9
					c0,0.3,0,0.5-0.1,0.8c0.2,0,0.4,0.1,0.6,0.1c0.4,0.1,0.8,0.2,1.3,0.3c4-6,9.2-11.3,15.2-15.4c0.1-0.1,0.2-0.1,0.3-0.2
					c-0.1-0.1-0.2-0.2-0.3-0.3c-1-1-2.2-2.2-2.9-4c-1.8-4.7,1.4-8.3,3.5-10.6c0.8-0.9,1.5-1.7,1.9-2.4c0.5-0.8,0.7-2,0.9-3.2
					c1.2-7.4,0.8-15.1-1.4-22.3c-0.5-1.8,0.2-3.6,1.8-4.6c2.5-1.5,5.6-1.7,8.4-0.8c0.2-1.1,0.3-2.6,0.4-4.5
					c0.1-3.9,0.2-8.9,3.8-12.4c0.8-0.8,1.9-1.2,3.1-1.1s2.2,0.6,2.9,1.5c2.8,3.6,5.7,7.2,9.3,9.6c2.1,1.3,4.5,2.3,7.1,2.9l0,0
					c-0.4-1.4-0.9-2.9-0.6-4.3s1.7-2.8,3.1-2.3c-2.1-1.6-1-5,0.7-7s3.9-4.2,3.4-6.8c-1.1,1.1-3.1-0.2-3.4-1.7s0.2-3.1,0.2-4.6
					c-0.1-4.8-5.8-9.1-4-13.6c0.3-0.8,0.9-1.6,1.1-2.4c0.5-1.9-1.3-4.1-3.3-3.9c2.3-1.7,2.7-5.3,0.9-7.5c-1.5,2.4-4.6,3.6-7.3,2.8
					c2.3-3.3-1.5-7.4-4.8-9.6c-3.3-2.2-7.1-6.2-4.9-9.6c-1.5,0.6-2.6-1.8-1.9-3.3s2.1-2.6,2.4-4.3s-2.3-3.2-2.9-1.7
					c1.1-1.6-0.1-4-1.8-4.9s-3.8-0.9-5.7-1.1c-3.9-0.3-7.7-1.6-11.1-3.6c1.2-5.5-9.5-7.7-8.9-13.3c0.4-3.2,4.6-5.2,4.5-8.5
					c-2,0.9-2.8-2.8-1.6-4.6s2.9-4.3,1.3-5.8c-3.6-0.7-7.2-1.4-10.7-2.1c-1.3-0.2-2.7-0.6-3.5-1.6s-0.9-2.6-1.9-3.5
					c-1.8-1.7-4.5,0.3-6.7,1.4c-5.5,2.9-13.8,0.9-17.2,6.1c-0.8,1.3-1.2,2.9-2.4,3.9c-1.3,1.1-3.2,1.3-4.1,2.7
					c-0.5,0.8-0.5,1.8-0.6,2.8c-0.6,3.6-3.5,6.7-7.1,7.4c1.7,1.6,1.8,4.6,0.2,6.3s-4.5,1.9-6.4,0.5c-1-0.8-1.7-1.9-2.9-2.4
					c-2.1-1-4.5,0.6-6.5,1.9s-4.9,2.3-6.4,0.5c-0.8-0.9-0.9-2.1-1.4-3.1c-0.9-1.6-3-2.5-4.7-1.9c-1.8,0.5-3,2.4-2.9,4.2
					c0.1,0.7,0.3,1.4,0.1,2.2c-0.3,1.4-2.1,1.9-3.4,2.6c-2.8,1.4-4.5,4.8-3.9,7.9c0.2,1,0.6,2,0.3,3c-0.8,2.4-4.8,1.5-6.5,3.4
					c-1.6,1.7-0.3,4.6-1.2,6.8c-0.8,2-3.2,2.8-5.1,3.9c-1.9,1-3.8,3.2-2.8,5.2c-3.2,0.6-6.3,1.1-9.5,1.7c1.3,6.7,0.8,13.8-1.6,20.2
					c-1.7,4.5-4.4,6.6-7.8,9.7c-2,1.8-6.2,6.2-4.1,9c1.1,1.5,3.6,1.6,4.2,3.3c0.5,1.4-0.6,2.7-0.9,4.1c-0.5,2.4,1.4,5,0.5,7.2
					c-0.9,2.1-3.9,2.9-4.5,5.1c-0.3,1.1,0.2,2.4,1.1,3.1c1,0.7,2.4,0.6,3.3-0.1c0.5-0.4,1-1,1.7-1c0.4,0,0.8,0.3,1,0.6
					c2.6,2.9,0.3,6.9-2,9.1c-2.6,2.5-5.9,4.4-7.9,7.6c-2.1,3.3-2.1,7.3-2.5,11.2C86.9,241.5,87.1,241.7,87.4,241.8L87.4,241.8z"/>
				<path class="st1" d="M508.1,369.3c-0.1-3.9-2.5-7.8-6-9.6c-0.3-0.2-0.6-0.3-1-0.5c-1.1-0.5-2.4-1.1-3.6-2.1
					c-2.6-2.1-3.6-5.5-2.5-8.3c0.1-0.2,0.1-0.3,0.2-0.5c-1.5-0.9-3.8-2.8-3.3-6c0.5-3,3.2-4.9,6.9-5h0.9c1.4,0,2.6,0,3.5-0.3
					c0.4-0.1,0.7-0.4,0.8-0.5c0-0.1,0-0.3,0-0.4c-0.1-0.9-0.3-2.4,0.4-4c1.9-4.3,6.4-3.7,8.4-3.4c0.3,0,0.6,0.1,0.9,0.1
					c0-0.2,0-0.4,0-0.6c0-0.6-0.1-1.3,0-2.1c0.2-3.3,1.7-5.8,3.1-8c0.4-0.7,0.8-1.4,1.2-2c0.7-1.2,0.7-2.5,0.5-3
					c-0.4-0.1-1.5,0-2.1,0c-2.1,0.2-5,0.4-7.5-1.5c-0.9-0.7-1.4-1.6-1.5-2.7c-0.7-5.9-3.2-11.7-7-16.2l-0.2-0.2
					c-0.8-1-1.9-2.2-2.5-3.9c-0.4-1.1-0.5-2.4-0.4-3.8c0.1-0.8,0.2-1.6,0.3-2.3c0.1-0.7,0.3-1.6,0.2-2.1l0,0c-0.6-0.5-1.6-1.4-2.1-3
					c-0.9-3,1.1-5.1,2-6c-0.1-0.1-0.1-0.2-0.2-0.3c-1.4-1.9-2.8-3.8-4.5-4.6c-0.4-0.2-0.7-0.3-1.1-0.5c-1.1-0.4-2.5-1-3.7-2.1
					c-1.2-1-2.1-2.6-2.4-4.1c-4.2-1.1-8.6-1.5-13-1.2c-1.2,0.1-2.3-0.3-3.2-1.2c-0.8-0.8-1.2-2-1.1-3.2c0.2-2.4,0.5-4.8-0.1-6.7
					c-0.4-1.4-1.4-2.5-2.3-2.6c-0.7-0.1-1.9,0.4-3,0.8c-1.3,0.5-2.8,1.1-4.6,1.3c-1,0.1-1.9,0.1-2.7,0.1c-0.8,0-1.5,0-1.9,0.1
					c-1,0.3-2.2,2.1-3.2,3.6c-2,2.9-4.6,7-9.8,6.8c-2.3-0.1-4-1.1-5.4-1.9c-0.4-0.2-0.7-0.4-1-0.5c-0.1,0.3-0.3,0.6-0.5,0.9
					c-0.7,1-1.8,1.6-3,1.7c-4.2,0.3-8.5-1-11.9-3.6c-0.2-0.2-0.4-0.3-0.6-0.5c-0.3-0.2-0.8-0.6-1.1-0.8c-0.2,0.1-0.4,0.3-0.5,0.5
					c-1.1,1.1-3,3-6,2.8c-2.3-0.1-3.9-1.5-4.9-2.3l-0.3,0.2c0.2,1.2,0.1,2.4-0.4,3.6c-1.1,3.1-4,5.2-6.4,6.2
					c-0.4,0.2-0.8,0.3-1.1,0.5c-1.2,0.5-3.2,1.3-3.4,1.9c-0.1,0.2-0.1,0.6-0.1,1c-0.1,0.9-0.2,2.1-0.7,3.3c-1.6,3.9-5.4,4.9-8.2,5.6
					c-0.9,0.2-2.7,0.7-3,1.1c-0.1,0.2-0.1,0.9-0.1,1.3c0,0.5,0,1.1-0.1,1.6c-0.5,4.5-3.6,8.5-7.9,10c-1,0.4-2.1,0.6-3,0.8
					c-0.9,0.2-1.9,0.4-2.3,0.7c-0.8,0.6-1,2.5-1.3,4.4c-0.4,3-0.9,6.8-4,9.5c-1.1,0.9-2.2,1.5-3.2,1.9c-0.6,0.3-1.2,0.6-1.4,0.8
					c-0.4,0.4-0.5,1.6-0.2,3.3c0.1,0.6,0.3,1.3,0.5,1.9c0.5,1.9,1.1,4,1,6.5c-0.2,3.2-1.6,5.9-2.8,8.1c-2.3,6.9-2.4,14.6-0.4,21.6
					c0.4,1.3,1,3,1.9,3.8s2.5,1.2,4.2,1.8c3.2,1,7.3,2.2,9.1,6.4c1.2,2.8,0.8,5.5,0.5,7.7c-0.2,1.3-0.4,2.5-0.2,3.2
					c0.5,1.5,3.2,2.5,5.7,3.4l0.7,0.3c5.2,1.9,9.9,4.7,14,8.4c0.9,0.8,3.3,2.9,3.4,6c0.1,3-1.8,4.9-3,6.2c-0.4,0.4-0.8,0.8-0.9,1
					c-0.4,0.7,0.5,2.6,1.3,4.5c1.2,2.5,2.5,5.3,2.4,8.5c-0.1,2.5-1.1,4.7-1.9,6.6c-0.5,1.1-1.4,3.1-1.1,3.5c0.2,0.3,1.2,0.8,2,1.1
					c1.1,0.5,2.4,1.1,3.6,2.1c5.2,4.3,4.2,11.1,3.4,16.2c-0.1,0.7-0.2,1.5-0.3,2.1c-0.6,4.9,0.3,9.9,2.6,14.2
					c0.9,1.6,1.8,2.8,2.7,3.5c1.7,1.4,4.4,1.9,7.1,2.5c1.1,0.2,2.2,0.5,3.3,0.7c6.6,1.7,12.5,5.4,17,10.5c1.3-1.3,2.9-2,4.8-2
					c1.2,0.1,2.2,0.5,2.8,0.8c0.1,0,0.2,0.1,0.3,0.1c0.4,0.1,1.5-0.1,2.8-0.9c0.5-0.3,1-0.6,1.4-1c1.5-1,3.1-2.2,5.2-2.9
					c2.9-0.9,5.7-0.7,8.2-0.4c0.6,0.1,1.2,0.1,1.9,0.2c2.1,0.1,3.8-0.3,4.3-1c0.2-0.3,0.5-1,0.7-1.7c0.6-1.8,1.5-4.3,4.1-5.8
					c4.1-2.3,8.3,0.2,10.5,1.5c0.4,0.2,0.7,0.4,1,0.5c0-0.1,0-0.2,0-0.3c-1.1-10-2.4-18.7-8-24.5c-1.4-1.4-1.5-3.7-0.3-5.2
					c0.8-1,1.1-2.8,0.6-4.5s-1.6-3.5-3.4-5.5l-0.1-0.1c-0.7-0.7-1.7-1.9-2.2-3.5c-0.4-1.6-0.8-5.5,4.8-9c0.6-0.4,1-0.6,1.2-0.8
					c-0.5-1.1-1.5-3.1-0.5-5.5c0.6-1.6,1.8-2.5,2.6-3c1.8-1.2,3.7-1.9,5.4-2.5c2-0.8,3.8-1.4,4.7-2.5c0.7-0.8,0.9-2.2,0.5-3.2
					c-0.1-0.3-0.3-0.6-0.5-1c-0.6-1.2-1.4-2.8-1.4-4.8c0-2.8,1.6-4.9,2.5-6.2l4.2-5.7c0.6-0.8,1.5-2,3.2-2.8
					c2.2-0.9,4.6-0.5,7.2,1.2c1.1,0.7,2.1,1.5,3.1,2.2c0.5,0.4,1,0.7,1.5,1.1c-0.1-1.3,0-2.6,0-3.7
					C508.1,370.7,508.1,370,508.1,369.3L508.1,369.3z"/>
				<path class="st1" d="M391.5,163.8c1.1,0.9,2.5,1.2,3.8,1.5c-1.4,2.5,0.2,6.2,3,6.9c1.7,0.4,3.4-0.1,5.2-0.1
					c3.1,0,6.2,1.7,7.8,4.3s1.7,6.2,0.3,8.9c-0.8,1.5-2,3-1.6,4.6c0.2,0.9,1,1.6,1.2,2.5c0.8,2.8-2.6,4.7-4.1,7.2
					c-2.2,3.7-0.2,9.5-3.6,12.1c-1.1,0.8-2.5,1.1-3.8,1.6c-2.8,1.3-4.4,4.5-4.2,7.6c3,4.5,5.8,9.6,7.9,15c0.3,0.9,0.7,1.8,1,2.8
					c0.9,2.4,1.7,4.7,2.8,6.7c1.2,0.2,2.5,0.8,3.6,1.7c0.2,0.2,0.4,0.4,0.6,0.6l0.1-0.1c1-1,2.4-2.3,4.5-2.8
					c3.4-0.8,6.1,1.3,7.7,2.6c0.2,0.1,0.4,0.3,0.5,0.4c1.2,0.9,2.6,1.5,4,1.8c0.2-0.2,0.4-0.4,0.6-0.6c2-1.9,5.3-2.5,8-1.6
					c1.1,0.4,2,0.9,2.8,1.4c0.7,0.4,1.5,0.8,1.8,0.9l0,0c0.6,0,1.9-1.9,2.7-3.2c1.7-2.6,3.8-5.7,7.6-6.9c1.6-0.5,3.1-0.4,4.3-0.4
					c0.6,0,1.1,0,1.6,0c0.7-0.1,1.7-0.4,2.6-0.8c1.8-0.7,4.1-1.6,6.8-1.3c4.2,0.4,7.8,3.6,9.1,8.2c0.5,1.8,0.7,3.6,0.7,5.3
					c5.1,0.1,10.1,1,14.9,2.7c1.4,0.5,2.3,1.6,2.6,3.1c0.1,0.7,0.1,1.3-0.1,2c0.2,0.1,0.5,0.2,0.8,0.3c0.5,0.2,1.1,0.4,1.7,0.7
					c3.4,1.7,5.6,4.7,7.3,7.1c0.8,1.1,3.2,4.4,1.5,8c-0.3,0.6-0.7,1.2-1,1.6c1.9,2.7,1.3,5.8,1,8c-0.1,0.6-0.2,1.1-0.2,1.6
					c0,0.4,0,0.6,0,0.6c0.1,0.2,0.6,0.8,0.9,1.2l0.2,0.3c4.3,5,7.3,11.3,8.5,17.8c0.3,0,0.6,0,0.8-0.1c1.9-0.2,4.4-0.4,6.8,1
					c4.8,2.8,4.9,9.1,2.5,13.6c-0.5,0.9-1,1.7-1.5,2.5c-1,1.5-1.8,3-1.9,4.1c0,0.3,0,0.8,0,1.3c0.1,2,0.3,5.2-2.5,7.5
					c-2.3,1.9-5.2,1.6-7.1,1.4c0,0.1,0,0.2,0,0.3c-0.1,3.4-2.6,6.4-6.2,7.6c-0.8,0.3-1.6,0.4-2.4,0.5c0.3,0.6,0.5,1.4,0.6,2.2
					c0.1,1.7-0.6,3-1.1,3.8c0.4,0.3,1,0.5,1.6,0.8c0.4,0.2,0.8,0.4,1.2,0.6c6.2,3.1,10.2,9.6,10.4,16.5c0,0.9,0,1.7,0,2.6
					c-0.1,1.8-0.1,4,0.5,4.5c0.1,0.1,0.2,0.1,0.3,0.2c0.8,0.6,2.2,1.7,2.7,3.7c0,0.2,0,0.4,0.1,0.6c0.4,0.5,2.1,1.2,4.3,1.2
					c0.5,0,1.1,0,1.6,0c3.3-0.1,7.4-0.3,10.8,2.2c0.3,0.2,0.7,0.5,1,0.8c0.1,0.1,0.2,0.1,0.3,0.2l0,0c0.2-0.1,0.4-0.1,0.6-0.2
					c5.2-1.6,10.2,0.4,14.8,2.7c2.4,1.1,6.8,3.3,8.1,7.9c0.2,0.8,0.3,1.6,0.4,2.2c0,0.3,0.1,0.8,0.2,1c0.4,0.3,2.2,0.6,3.4,0.8
					c0.5,0.1,0.9,0.1,1.4,0.2c3-3.1,4-8.1,2.2-12l-0.3-0.5c-0.9-1.8-2.2-4.6-0.9-7.6c1.6-4,5.8-4.6,8.2-5h0.2c0.1,0,0.1,0,0.2,0
					c-0.1-0.3-0.3-0.6-0.4-1c-1-3.3,0.9-6,2-7.5c0.3-0.5,0.8-1.2,0.9-1.5c0-0.1-0.1-0.5-0.2-0.8c-0.1-0.5-0.2-1.2-0.3-1.9
					c0-0.6,0-1.2,0.1-1.8c-1.1-1-2.1-2.1-3.1-3.1c-1.3-1.5-2.6-2.9-4-3.6c-0.2-0.1-0.3-0.2-0.5-0.2c-1.4-0.7-3.8-1.9-4.7-4.7
					c-0.9-3.1,0.8-5.5,1.9-6.9c-0.2,0-0.3,0-0.5,0c-1.6-0.1-3.9-0.3-5.9-1.7c-0.9-0.6-1.5-1.6-1.7-2.8c-0.2-1.4,0.2-2.5,0.8-3.4
					c-0.6-0.9-1-2-1-3.2c-0.1-3.1,1.8-5.9,3.4-7.4c0.2-0.2,0.4-0.4,0.6-0.5c0.5-0.5,1.4-1.2,1.7-1.7c-0.2-0.3-0.5-0.6-0.8-0.9
					c-0.4-0.5-0.9-1-1.3-1.6c-1.5-2.1-1.9-5.1-0.9-7.4c0.8-1.9,2.5-3.1,4.4-3.4c1.2-0.1,2.2,0.1,2.8,0.3l0.2,0.1
					c0.5,0.1,1.2-0.1,1.8-0.6s0.9-1.1,0.9-1.6c0-0.2,0-0.5-0.1-0.8c-0.1-1.1-0.3-2.8,0.4-4.6c1-2.4,3.1-3.5,4.5-4.3
					c0.1-0.1,0.3-0.2,0.5-0.2c-0.1-0.2-0.2-0.4-0.3-0.5c-0.4-0.8-0.9-1.8-1.2-3c-0.9-3.6,0.7-7.5,3.8-9.9c-0.1-0.1-0.2-0.3-0.2-0.4
					c-1.8-3.5-0.6-7.1,0.3-9.7c0.3-1,0.6-1.9,0.8-2.7c0.6-3.9-2.9-8-6.9-11.9c-0.9-0.9-1.3-2.1-1.2-3.4c0.2-1.2,0.9-2.4,2-3
					c2.6-1.4,3.3-2.5,3.4-2.8c0-0.1-0.2-0.4-0.3-0.6c-0.3-0.7-0.8-1.7-0.9-2.9c-0.4-3.3,1.4-5.7,2.7-7.4c0.3-0.4,0.7-0.9,0.9-1.3
					c-0.2-0.2-0.5-0.4-0.7-0.6c-1.3-1.2-3.8-3.4-3.2-6.8c0.5-3.5,3.7-5,5.2-5.8c2.4-1.2,4.7-2.7,6.8-4.4c0.2-2.2,1.3-4.2,3-5.6
					c0.7-0.5,1.5-1,1.9-1.9c0.3-0.7,0.1-1.5-0.1-2.2c-0.8-2.5-1.8-5-3.1-7.3c-0.9-1.6-2-3.1-3.5-4.1s-3.6-1.3-5.2-0.3
					c-1,0.6-1.7,1.7-2.9,2c-1.8,0.5-3.4-1.1-4.8-2.4c-3.8-3.7-9-5.8-14.2-5.9c-0.6-2.2,1.8-4.5,0.9-6.6c-0.5-1-1.6-1.5-2.6-1.9
					c-3.2-1-7.1-1.5-8.8-4.4c-1.1-1.9-0.9-4.3-1.8-6.2c-1.7-3.6-5.8-3.7-9-5c-3.8-1.5-6.7-2-10.8-2.5c-2.9-0.3-6-1.5-7.2-4.1
					c-1.3-2.8-0.5-6.8-3.2-8.3c-1.8-1-4,0-6-0.1c-2.5-0.1-4.6-1.8-6.5-3.5c-0.4-0.4-0.9-0.8-1.1-1.3c-0.5-1.4,0.6-3,0-4.3
					c-0.7-1.5-3-1.3-4.3-2.3c-2.1-1.6-1.5-5.6-3.9-6.5c-3.3-1.2-5.7,5.5-8.9,4.2c-2.5-1-1.5-5.1-3.6-6.8c-0.6-0.5-1.4-0.7-2-1.3
					c-1.2-1.3-0.3-3.3,0-5c0.4-1.7-1-4.1-2.5-3.2c-0.3,1.6-0.7,3.3-2.1,4.2c-1.4,0.9-3.8-0.2-3.3-1.8c-1.3,0.3-2.7,0.6-4,0.2
					s-2.5-1.7-2.2-3c0.3-1.6,2.3-2.5,2.4-4.1c-1-0.1-2.1-0.1-3.1-0.2c-0.2-1.8-2.2-3-4.1-3s-3.5,0.9-5.1,1.8
					c-0.6,0.3-1.2,0.7-1.4,1.4c-0.1,0.6,0.2,1.2,0.4,1.8c0.5,2.3-2.3,4-4.6,4.2s-5,0.1-6.7,1.7c-1,1-1.4,2.4-2.4,3.3
					c-2,1.8-5.2,0.9-7.8,0.2c-2.6-0.6-6.3-0.3-6.9,2.3c-0.3,1.1,0.1,2.1,0.3,3.2c0.5,2.3,0.2,4.9-1,6.9s-3.5,3.5-5.9,3.3
					c-1.4-0.1-2.8-0.8-4.2-1c-4.2-0.8-7.1,2.3-11,2.6c-2.6,0.2-7.4-3.8-9.3-2.1c-1.4,1.2-0.4,3.7-1.4,5.2c-1,1.3-3.4,1.5-3.7,3.1
					c-0.3,1.5,1.6,2.6,1.5,4.1s-1.9,2.2-2.4,3.6C389.7,161.4,390.4,162.9,391.5,163.8L391.5,163.8z"/>
				<path class="st2" d="M104.3,322.4c1.8,1,2.8,3,3.7,4.8c4.7,9.6,11.1,18.8,20.3,24.2c1.2,0.7,2.8,2,2.2,3.3
					c-0.2,0.4-0.5,0.6-0.7,1c-0.9,1.2-0.6,3,0.2,4.3s2,2.2,3.1,3.3c4.5,4.5,6.1,10.7,7.8,16.6c0.4,1.4,1,2.5,1.6,3.3
					c2,0.2,3.9,0.5,5.9,0.8c1.5,0.3,2.9,0.6,4.4,0.9c2.7,0.6,5.2,1.1,7.7,1.3c5.3,0.4,10.9-0.7,16.3-1.7c3.5-0.7,6.5-1.4,8.1-3.2
					c0.4-0.5,1.9,0.6,2.3,0c0.5-0.8,4.1-1.4,4.9-2.3c3.6-4.2,4.9-7.5,9.4-7.7c-0.1-1.1-0.1-2.3,0-3.4c0.4-4,2.6-7.3,5.7-8.9
					c0.1,0,0.2-0.1,0.3-0.1l-0.2-0.4c-0.4-0.7-1-1.7-1.2-3c-0.6-4.3,2.9-6.4,4.7-7.6c0.4-0.2,1-0.6,1.4-0.9c-0.3-0.5-0.9-1.4-1.4-2
					c-1.6-2-3.8-4.8-3.5-8.4c0.3-3.4,2.6-5.5,4.3-7c0.8-0.7,1.6-1.5,1.9-2c0.2-0.6,0.1-1.8,0-3c-0.1-0.4-0.1-0.8-0.1-1.2
					c-0.4-4.2,0.9-7.5,3.6-9.4c2.5-1.7,5.1-1.4,7.1-1.2c0.1,0,0.1,0,0.2,0c-1.3-1.6-3.3-4.5-1.4-7.9c0.3-0.5,0.6-1,1-1.4
					c-3.4-4.6-7.1-9.1-10.8-13.5c-0.1,0-0.1-0.1-0.1-0.1c-0.2-0.1-1.1-0.4-1.8-0.5c-2.1-0.5-6.1-1.5-6.8-5.7c-0.2-1.2,0-2.3,0.1-3
					c0-0.1,0.1-0.2,0.1-0.4c-0.2-0.2-0.7-0.6-1.6-1c-2.4,2.9-6,4.8-9.8,5.2c-0.4,0-0.8,0-1.2,0.1c-0.5,0-1.1,0-1.3,0.1
					c-0.5,0.2-1.2,1.3-1.8,2.1c-0.2,0.2-0.3,0.5-0.5,0.7c-2.1,2.9-4.8,5.4-7.8,7.3c-1.2,0.8-2.8,1.6-4.8,1.6c-0.1,0-0.2,0-0.3,0
					c-4.2-0.2-7.2-4-7.6-9.7c-0.4-6.5,0.1-13,1.6-19.4c0.1-0.3,0.2-0.7,0.2-1c-0.2-0.1-0.5-0.1-0.9-0.1c-0.7,0.1-1.5,0.3-2.4,0.5
					c-1.1,0.3-2.2,0.6-3.6,0.7c-3.1,0.3-6.2-0.5-8.8-1.2c-3.3-0.9-5.4-1.4-6.8-0.5c-0.3,0.2-0.8,0.5-1.2,0.9c-1.2,1-2.9,2.3-5.3,2.5
					c-5.2,0.6-8.3-3.9-10.1-6.6c-0.5-0.7-1-1.2-1.4-1.5c-0.1,0.3-0.1,0.7-0.2,1c-0.3,1.6-0.7,3.8-2.3,5.6c-1.3,1.5-3.1,2.5-5.4,2.9
					c-8.1,1.7-16.8-3.4-19.3-11.3c-0.4-1.3-0.6-2.5-0.9-3.8c-0.3-1.9-0.7-3.6-1.5-4.4c-1-0.9-3.3-0.8-5.7-0.7
					c-2.7,0.1-5.8,0.3-8.8-0.9c-3,6.7-9,11.9-12.8,18.4c-4.4,7.7-5.5,17-9.8,24.9c-2.6,4.8-6.3,8.9-8.7,13.8c-1,2.1-2,4.2-3.6,6
					c-1.6,2-3.6,3.6-5.3,5.5c-3.4,4-5.3,9.2-5.4,14.4c0,4.7,1.3,9.5,0,14c-0.6,1.9-1.3,4.5,0.4,5.4c0.6,0.3,1.3,0.3,2,0.2
					c2.3-0.2,2.3-2.2,4.5-2.9c-0.7-1.3,0.3-4.8,1.2-6c1-1.1,2.5-2.9,3.6-3.9c4.7-4.4,6.4-7.5,10.3-12.6c2-2.6,5-4.5,8.3-5
					c4.1-0.7,8.2,0.5,12.3,0.8c6.2,0.5,12.3-1,18.5-0.9C101.8,321.7,103.1,321.8,104.3,322.4L104.3,322.4z"/>
				<path class="st1" d="M816.5,300c-0.6-1.1-0.3-2.5-0.7-3.7c-0.4-1.1-1.4-2-2.4-2.6c-3.5-1.9-8.1-1.7-10.8-4.6
					c-1.3-1.4-2.1-3.6-4-4.2c-1.2-0.4-2.5,0-3.8,0.1s-2.8-0.3-3.1-1.6c-0.2-0.7,0-1.4-0.2-2.1c-0.8-2.3-5.2-0.4-6.3-2.5
					c-0.3-0.7-0.2-1.5-0.3-2.2c-0.3-1.7-2-2.7-3.7-2.9c-1.7-0.2-3.3,0.3-5,0.5c-2.8,0.4-5.7,0-8.3-1.1c-0.7-0.3-1.5-0.8-1.6-1.5
					c-0.1-1.1,1.4-1.7,1.7-2.8c0.3-1-0.6-2.1-1.6-2.5s-2.2-0.2-3.3-0.1c-5,0.1-7.7-3-10.8-6.5c-1.3-1.5-2.2-2.1-2.1-4.2
					c0.1-2.5,0.2-4-2.8-4.5c-1.4-0.3-3-0.4-4-1.4c-1.3-1.5-0.6-3.8-0.5-5.8c0-1.7-0.6-3.6-1.9-4.6c-1.4-1.1-3.5-1.2-4.8-0.1
					c-0.6-2.3-1.5-4.7-3.4-6c-1.9-1.4-5.1-1.1-6.2,0.9c-0.7,1.4-0.4,3-0.8,4.5c-0.8,2.6-3.6,3.8-6.1,4.8c-2.8,1.1-6,2.2-8.8,1.1
					c-1.5-0.6-2.9-1.8-4.5-1.8c-0.8,0-1.5,0.3-2.2,0.3c-2.6,0-4.1-3.1-6.6-4c-2.2-0.8-4.7,0.3-6.7-0.8c-2.9-1.6-2.2-6-3.6-9
					c-1.1-2.3-3.8-3.8-6.4-3.5c-1.8,0.2-4,1.1-5.1-0.3c-0.5-0.6-0.5-1.4-0.6-2.1c-0.2-1.5-0.7-3-1.7-4.2s-2.7-1.8-4.1-1.4
					c-3.5,1-3.7,7.1-7.3,7.7c-1.1,0.2-2.2-0.2-3.2-0.2c-1.1,0-2.4,0.6-2.5,1.6c-0.1,0.7,0.3,1.4-0.2,1.9c-0.2,0.2-0.5,0.2-0.8,0.3
					c-1,0.1-2.1,0.1-3-0.1c0.1-0.1,0.1-0.1,0.2-0.1c-1.7-0.1-3.2-0.9-4.8-1.4c-1.2-0.4-2.5-0.6-3.7-0.4c-0.5,0.1-1,0.4-1.6,0.4
					s-1.2-0.1-1.9-0.3c-1.5-0.5-2.9-1.4-4.5-1.6c-2.4-0.2-4.5,1.3-6.7,2.4c-2.1,1.1-5,1.7-6.7,0c-1-1-1.3-2.6-2.4-3.4
					c-1.6-1.2-4-0.2-5.3,1.2c-1.3,1.5-2.1,3.4-3.5,4.8s-3.8,2.2-5.3,0.9s-1.6-4.3-3.6-4.5c-0.5-0.1-0.9,0.1-1.3,0.2
					c-3.4,1.1-6.7,2.1-10.1,3.1c0.7-1.1,1.5-2.5,0.9-3.7c-0.1-0.1-0.1-0.2-0.2-0.3c-1.9,1.4-3.9,2.7-6.1,3.7c1,0.9,2.2,2.1,2.7,3.9
					c1.2,3.7-1,6.5-2.4,8.4c-0.4,0.5-1,1.3-1.1,1.7c0,0.1,0.2,0.3,0.2,0.5c0.3,0.6,0.6,1.3,0.8,2.2c0.5,2.3,0.2,5.4-3.1,8.6
					c3.3,3.8,6.9,9.2,5.9,15.5c-0.2,1.4-0.7,2.7-1,3.9c-0.5,1.4-1,3-0.7,3.7c0.1,0.2,0.2,0.4,0.3,0.6c0.7,1.2,2.5,4.1,0.6,7.1
					c-0.8,1.3-2,2-2.6,2.3l-0.2,0.1c-0.8,0.5-1.3,1.4-1.2,1.8c0.1,0.3,0.3,0.8,0.6,1.3c0.8,1.6,2.1,4.1,1,7c-1,2.6-3.1,3.8-4.6,4.5
					c-0.2,0.1-0.5,0.3-0.8,0.4c0,0.1,0,0.3,0,0.4c0.1,0.5,0.1,0.9,0.1,1.4c0.1,3-1.3,6.1-3.8,8.1c-1.5,1.2-3.3,2-5.1,2.3
					c0.8,1.1,1.6,2.4,1.8,4.1c0.5,4.2-2.5,6.8-4.5,8.5l-0.5,0.5c-0.2,0.1-0.3,0.3-0.4,0.5c0.6,0.5,1.3,1.3,1.7,2.4
					c0.2,0.6,0.3,1.2,0.3,1.8c3.8,0.6,6.6,3.1,6.9,6.4c0.2,2.7-1.2,4.6-2.3,6c0.1,0.1,0.2,0.1,0.3,0.2c2.6,1.4,4.5,3.5,6.2,5.3
					c1.4,1.5,2.7,2.9,4.1,3.6c0.6,0.2,1.2,0.6,1.7,1.1c1.1,1.2,2.9,1.8,4.8,1.7c2-0.1,3.7-1,4.5-2.4c0.1-0.2,0.2-0.4,0.4-0.6
					c0.5-0.8,1.1-1.8,2.1-2.7c2-1.7,4.7-2.2,7.3-1.4c2.5,0.8,4.4,2.7,5.1,5c0.1,0,0.2,0,0.3,0h0.1c5.5-0.1,10.3,2.2,14,4.3
					c4.3,2.4,8.3,5.3,12,8.5c1,0.9,2.8,2.4,3.6,4.9c0.2,0.5,0.3,1,0.3,1.4c1.2-0.2,2.5-0.9,3.9-1.6c3.1-1.5,6.9-3.4,11.2-1.8
					c1.2,0.5,2.2,1.1,3,1.7c0.5,0.3,1.1,0.8,1.4,0.8c0.1,0,0.5-0.1,0.9-0.2c1.3-0.4,3.2-0.9,5.4-0.1c1.5,0.6,2.5,1.6,3.2,2.3
					c0.2,0.1,0.3,0.3,0.5,0.5c0.8,0.7,3,0.5,5,0.3c0.8-0.1,1.7-0.2,2.5-0.2c3.1-0.1,6,0.4,8.7,0.9c0.7,0.1,1.4,0.2,2.1,0.4
					c1.2,0.2,2.3,0.3,3.5,0.4c2.6-0.3,5.2-0.5,7.5-1.5c3.5-1.4,6.3-4.7,7.1-8.4c0.3-1.2,0.3-2.5,0.9-3.6c0.9-1.9,2.9-3.1,4.9-3.7
					s4.2-0.6,6.3-1c0.5-0.1,1-0.2,1.3-0.5c0.6-0.5,0.7-1.4,0.8-2.2c0.7-5.8,5.3-10.2,9.7-13.9c0.9-0.8,1.9-1.6,2.4-2.7
					s0.4-2.6-0.6-3.3c-0.7-0.5-1.9-0.6-2-1.5c-0.1-0.8,0.7-1.3,1.5-1.6c3-1.2,6.1-1.7,9.1-2.6c-0.1-1.6-2.9-1.2-2.5-3.2
					c0.2-1.4,2.2-1.4,3.5-0.9s3.2,0.7,3.7-0.6c-1.4-2.4,0.4-6,3.2-6.3c-0.3-1,0.2-2.1,1-2.6c0.8-0.6,2-0.5,2.8,0.1
					c0.4,0.3,0.7,0.7,1.1,1c1,0.8,2.4,0.6,3.7,0.4c0.9-0.1,2-0.5,2-1.4c0-0.4-0.3-0.8-0.5-1.2c-0.4-1,0.2-2.1,1-2.7s1.9-0.8,2.9-1
					c0.8-0.1,1.7-0.1,2.2,0.5c1.2,1.3-0.7,3.6,0.2,5.2c0.3,0.5,1,0.8,1.6,1.1c2,0.8,4.2,1.4,6.3,1.7c-0.5-2.4-0.7-5.6,1.6-6.6
					c0.2,1.4,1,2.8,2.3,3.3s3.1-0.1,3.5-1.5c0.3-0.8,0-1.7,0.3-2.6c0.6-2.2,3.6-2.4,5.9-2c1.7,0.3,3.4,0.6,4.8,1.5
					c2,1.3,3.2,3.8,5.5,4.4c2,0.5,4-0.7,5.4-2.2s2.3-3.4,3.5-5c2.4-3,6-4.8,9.6-6.2c0.7-0.3,1.5-0.6,1.7-1.3
					C818.7,302.1,817,301.2,816.5,300L816.5,300z"/>
				<path class="st1" d="M194.3,501c-0.7-1.4,5.4-3,6.1-3c1.2-0.1,2.7-0.1,4.1,0.1l2-2.9c0.9-1.4,1.8-2.7,2.2-3.9
					c0.1-0.3,0.2-0.7,0.3-1c0.3-1.2,0.7-2.6,1.6-4c0.9-1.3,2-2.2,2.9-3c0.3-0.3,0.8-0.6,1.1-0.9c-0.1-0.3-0.2-0.7-0.3-1
					c-0.5-1.6-1.2-4.4,0.6-7c1.6-2.2,4.1-2.7,5.6-3c0.1,0,0.1,0,0.1,0c0.1-0.7,0.2-1.6,0.7-2.4c1.5-2.8,4.2-3.3,6.3-3.3
					c-0.1-0.8,0-1.6,0.3-2.4c0.6-1.8,1.9-3.2,3.6-3.7h0.1c0.3-4.3,0.3-8.6-1.9-11.2l-0.1-0.2c-0.8-0.9-2.6-2.9-2.1-5.7
					c0-0.2,0.1-0.4,0.1-0.5c-1.4-1-3.6-2.7-3.8-5.7c-0.2-2.7,1.4-4.5,2.4-5.6c0.2-0.2,0.3-0.4,0.5-0.6c0.6-0.8,0.5-2.3-0.1-3.6
					c-0.9-1.8-2.7-3.4-4.3-4.7c-1.6-1.3-5.7-4.7-4.4-9.5c0.9-3.6,4.2-5.1,6.4-6.1c0.5-0.2,1.2-0.5,1.6-0.8c-0.1-0.7-0.1-1.7,0.2-2.9
					c0.5-1.6,1.6-2.7,2.2-3.3c0.1-0.1,0.2-0.2,0.3-0.3c0.8-0.9,0.6-3.1,0.5-5.2c-0.1-0.9-0.1-1.9-0.1-2.9c0-0.8,0-3.1,1.8-4.9
					c0.8-0.8,1.7-1.2,2.2-1.4h0.1c0.1-0.1,2.7-3.2,2.7-4.2c-1.9-1-3-2.3-4.5-3.8c-0.3-0.2-2.9,0-3.2-0.3c-0.7-0.7-1.9,0.9-2.5,0.6
					c-1.1-0.6-3.2-0.2-4.8,0.1l-14.9,2.5c-0.9,0.1-1.7,0-2.4-0.4c-3.8,0.1-7.5,0.6-9.4,2.9c-0.4,0.5-0.8,1.1-1.2,1.7
					c-0.6,0.9-1.2,1.9-2,2.8c-3.5,4-9,5-12.5,5.8c-4.7,0.9-10,2-15.4,2c-1,0-2.1,0-3.1-0.1c-3-0.2-5.9-0.9-8.7-1.5
					c-1.4-0.3-2.7-0.6-4.1-0.8c-0.3,0-0.6-0.1-0.8-0.1c-1.1,0.7-2.1,1.5-3,2.3c-0.7,0.6-1.4,1.4-1.8,2.3c-0.6,1.8,0.5,3.8,0.3,5.7
					c-0.2,1.8-1.4,3.3-1.5,5.1c-0.1,1.6,0.9,3.1,1.8,4.3c4.9,6.6,11.8,12.3,13.6,20.4c0.2,0.8,0.3,1.7-0.1,2.4
					c-0.3,0.5-0.8,0.9-1.2,1.2c-1.5,1-2.9,2-4.4,3.1c0.9,4.1,1.3,8.3,1.4,12.5c-3.8,2.9-7.7,6-12.4,6.7c-2,0.3-4.2,0.2-5.8,1.5
					s-2.1,3.8-3.9,4.7c-0.8-2.8-3.1-5.2-5.9-6.1c-1.5,2.4-1.4,5.6,0.1,7.9c1.4,2.1,4,3.7,4.1,6.2c0.1,2-1.5,3.9-0.8,5.7
					c0.4,1,1.3,1.6,1.9,2.4c2.2,3.2-0.5,8.7,2.6,11.1c-0.1-0.1,4-1.8,4.3-1.9c2.4-0.9,4.7-2,7.1-3c0.6,2.5,3.2,4.5,5.8,4.2
					c0,3.4-4.1,5.9-3.8,9.3c0.1,1.4,1,2.6,1.6,4c1,2.5,0.7,5.4-0.8,7.6l4.8,1c0.1,1.4,0.2,2.7,0.3,4.1c1.3-0.5,2.6-1,3.9-1.6
					c1.5,2.6,3,5.2,4.4,7.9c2.3-1.7,6-1.2,7.7,1.1c1.2,1.7,1.4,3.8,2.5,5.6s3.8,2.8,5.1,1.2l1.2-14.9c0.1-1,0.2-1.9,0.7-2.7
					c0.6-0.8,1.6-1.2,2.5-1.5c3.6-1,7.5-0.8,11-2.1S196.1,504.3,194.3,501L194.3,501z"/>
				<path class="st1" d="M733.3,489.8c-0.6-0.6-1.3-1.3-1.6-2.1c-0.4-1.4,0.5-2.9,1.3-4.1c1.9-3.1,3.4-6.5,3.7-10.2
					c0.4-5.5-1.9-10.8-4.2-15.8c1.2-0.4,2.4-1.1,3.3-2.1c-1.3-1.1-2.7-2.3-4.1-3.4c-0.3-0.2-0.6-0.5-0.6-0.9c0-0.3,0.1-0.6,0.3-0.9
					c0.9-1.5,2.1-2.7,3.5-3.7c1-0.7,2.1-1.2,2.8-2.2c0.5-0.8,0.6-1.8,0.7-2.8c0.2-2.6,0.5-5.3,0.7-7.9c0-0.4,0.1-0.8-0.2-1.1
					c-0.2-0.4-0.7-0.5-1.2-0.6c-2.2-0.5-4.5-0.7-6.8-0.6c-1,0-2,0.1-3-0.2c-3.2-1.2-2.9-5.5-5.4-7.3c-3.2-2.3-7.1-2.2-8.9-6.4
					c-1.4-3.3-0.2-7.3-1.5-10.6c-1.6-3.8-6-5.6-8.9-8.5c-1-1-2.1-2.3-3.5-2.5c-1.9-0.3-3.7,1.3-5.6,1.2c-0.1-1.8-1.7-3.1-3.5-3.4
					c-1.7-0.3-3.5,0.1-5.2,0.5c-1.3,0.3-2.9,0.6-3.8-0.4c-0.4-0.4-0.5-1-0.7-1.6c-0.5-2.6,0-5.3,1.2-7.6c-1.2-0.1-2.3-0.2-3.4-0.2
					c-0.7,0-1.4,0.1-2.1,0.2c-3.4,0.4-7.6,0.8-11.1-2.2c-0.4-0.4-0.7-0.7-1-1l-0.1-0.1c-0.2,0-0.3,0.1-0.5,0.1
					c-0.8,0.2-2,0.6-3.3,0.5c-2.5-0.1-4.3-1.3-5.6-2.2c-0.5-0.3-1-0.7-1.4-0.8c-1-0.4-2.5,0.3-4.8,1.5c-2.5,1.2-5.3,2.6-8.7,2.5
					c-1.8-0.1-3.3-0.7-4.5-1.7c-1.7-1.5-2-3.5-2.1-4.7c0-0.2-0.1-0.6-0.1-0.7c-0.1-0.2-0.5-0.6-1.2-1.2c-3.3-2.9-6.9-5.4-10.7-7.6
					c-2.8-1.6-6.4-3.4-9.8-3.3h-0.1c-1.8,0-5.6,0.1-7.4-3.2c-0.4-0.7-0.5-1.3-0.6-1.8c-0.1,0.1-0.1,0.2-0.2,0.3
					c-0.2,0.3-0.3,0.6-0.5,0.9c-2.2,3.4-6.2,5.6-10.6,6c-2,0.1-4-0.1-5.8-0.7c0,0.2,0,0.4,0,0.5c-0.3,2.2-1.5,3.8-2.3,5
					c-0.2,0.3-0.5,0.6-0.7,0.9c0.3,0.6,0.8,1.4,1,2.5c0.3,1.7-0.1,3.4-1.1,4.8c-2,2.7-5.4,3.5-6.5,3.6h-0.2
					c-0.5,0.1-1.2,0.2-1.7,0.3c0.1,0.3,0.3,0.6,0.4,0.9c0.1,0.2,0.2,0.4,0.3,0.7c3.2,7.1,1.3,16.1-4.3,21.5
					c-0.2,0.5-0.5,0.9-0.9,1.2c-3.7,3.3-6.8,7.2-9.2,11.6c-0.1,0.2-0.2,0.3-0.2,0.4c0.2,0.3,0.6,0.7,0.8,1c0.5,0.6,1.2,1.3,1.7,2.1
					c1.5,2.2,1.9,4.6,2.2,6.6c0.1,0.6,0.2,1.1,0.3,1.7c0.2,1.1,0.7,1.8,1,2c0.1,0,0.2,0,0.3,0c0.7,0,1.8-0.1,3.1,0.4
					c3.1,1.2,4.6,4.7,3.8,8.5c-0.1,0.3-0.1,0.6-0.2,0.9c-0.1,0.2-0.1,0.6-0.2,0.8c0.2,0.1,0.5,0.1,0.8,0.2c4.1,0.6,8.6-0.2,12.1-2.4
					l0.2-0.1c1.1-0.7,2.9-1.7,5.1-1.6c2.1,0.1,3.7,1.3,4.4,1.9c3.3,2.4,6.2,5.3,8.8,8.5c0.8,1,1,2.3,0.7,3.5
					c-0.2,0.9-0.8,1.8-1.6,2.3c0,0.2,0.1,0.6,0.2,0.9c0.2,0.4,0.5,0.9,0.7,1.4c0.9,1.7,2,3.7,2,6.3c0,1.8-0.6,3.3-1.1,4.5
					c-0.2,0.5-0.4,1-0.5,1.4c-0.3,1.5,0.2,3.5,0.8,5.5c0.9,2.9,1.8,6.2,0.9,9.9c-1,3.7-3.6,6.2-5.5,8.1c-1.4,1.4-3,2.9-3.4,4.4
					c-0.1,0.5,0,1.1,0.2,1.4c0,0,0.1,0,0.2,0c0.9,0.1,2.7,0.4,4,2.1c1.5,1.9,1.3,3.8,0.8,5.2c2.3-0.1,5.9,0.1,7.8,3.3
					c0.7,1.2,0.9,2.4,1,3.3c0,0.2,0,0.3,0.1,0.5c0.1,0.5,0.9,1.4,1.6,2.1c1.3,1.4,3,3.2,3.6,5.7c0.5,2,0.2,3.8-0.1,5.4
					c-1.4,7-3.3,13.9-5.9,20.6l0,0c2.3,0.4,4,2.4,5.5,4.3c0.9,1.2,1.8,2.4,1.8,3.9c-0.1,3.6-5.8,4.8-6.2,8.3
					c-0.1,0.9,0.1,1.8-0.1,2.7c-0.3,1.6-2,2.5-3.6,3c-1.6,0.4-3.3,0.5-4.7,1.3s-2.5,2.6-1.8,4c0.2,0.4,0.6,0.8,0.7,1.3
					c0.1,1-1.1,1.5-1.9,2.1c-1.7,1.4-1,4.6,1.1,5.2c-0.6,2.4-4.9,2.5-5.1,5c-0.2,2,2.8,3.2,2.8,5.3c0.1,2.8-4.9,3.7-4.7,6.5
					c0.1,1.1,1,2,1.1,3.1c0,0.8-0.4,1.5-0.7,2.3c-0.8,2-0.8,4.3,0.1,6.2c2.5-0.8,5.9-1.2,7.1,1.1c0.5,1,0.4,2.2,0.7,3.3
					c0.9,3,5.4,3.8,7.5,1.6c1.7-1.8,1.7-4.9,0-6.8c2.3-1.1,5.3-0.2,6.7,1.8c0.9,1.4,1.3,3.2,2.5,4.2c2.1,1.8,5.2,0.6,7.7-0.7
					c0.6-0.3,1.3-0.7,1.5-1.4c0.2-0.5,0.1-1.1,0.2-1.7c0.4-2.1,3.7-2.5,4.2-4.6c0.2-0.9-0.1-1.8-0.1-2.7c0.3-5.2,8.1-2.3,8.1,1.6
					c0,0.8-0.3,1.5,0,2.3c0.4,1.1,1.8,1.4,3,1.2s2.3-0.6,3.5-0.4c3.2,0.6,3.6,5.5,6.5,7.1c2.7,1.5,6.8-0.3,9,1.9
					c0.9,1,1.2,2.5,2.3,3.2c0.7,0.4,1.6,0.5,2.4,0.4c4.1-0.1,8.2-0.9,12-2.3c0.9-0.3,1.9-0.8,2.2-1.7c0.3-1.3-1.1-2.5-0.9-3.9
					c0.2-1.8,3-2.1,4.5-1.1c1.6,1,2.8,2.7,4.5,3.2c2.5,0.7,5.2-1.2,7.7-0.4c1.1,0.4,2.1,1.3,3.2,1.5c1.8,0.4,3.5-0.9,4.6-2.2
					c1.2-1.4,2.1-3,3.7-3.9c-0.5-2.8-3.5-4.4-4.5-7.1c-1.2-2.9,0.3-6.3-0.3-9.3c-0.3-1.3-0.9-2.7-0.4-4c0.3-0.7,0.9-1.2,1.5-1.6
					c3.3-2.3,7.5-3.3,10.3-6.2c1.4-1.5,2.2-4.1,0.7-5.3c-1-0.9-2.9-0.9-3.2-2.2s1.3-2.9,0.2-3.6c0.6-2.2,4.7-1.3,5.7-3.4
					c1-2.4-3.4-4.8-2-7c0.3-0.5,1-0.8,1.6-1.1c2.6-1.4,4.7-4.1,4.4-7c-0.2-2.7-2.2-5-2-7.7c0.3-3.2,3.4-5.2,4.6-8.1
					c0.9-2.2-0.1-5.3,1.8-7c1.1-1,2.8-1.3,3.5-2.6c1.5-2.6-2.3-5.6-1.6-8.5c0.6-2.5,4-3,6.6-2.7s5.8,0.4,7.1-1.9
					c0.8-1.5,0.3-3.3-0.2-5C741.7,503.6,739.1,495.5,733.3,489.8L733.3,489.8z"/>
				<path class="st1" d="M597.5,550.2c0.5-0.4,1.2-0.5,1.8-0.7c1.1-0.2,2.2-0.5,3.3-0.7c3.2-7.6,5.6-15.5,7.2-23.6
					c0.1-0.6,0.3-1.6,0.2-2c-0.1-0.5-0.9-1.4-1.6-2.1c-1.3-1.4-3-3.2-3.6-5.8c-0.1-0.3-0.1-0.7-0.2-1c-0.4,0-0.9,0-1.3,0h-0.1
					c-1,0-4.3,0-6.5-2.2c-1.2-1.2-1.8-2.7-1.8-4.4c0-0.6,0.1-1.1,0.2-1.6c-1.3-0.7-2.5-1.7-3.3-3.1c-1.3-2.2-1.7-5-1-7.5
					c1-3.6,3.6-6.2,5.6-8c1.6-1.6,3-3,3.4-4.4c0.4-1.5-0.2-3.5-0.8-5.6c-0.8-2.9-1.8-6.1-1-9.7c0.2-0.9,0.5-1.7,0.8-2.4
					c0.3-0.7,0.5-1.3,0.5-1.7c0-0.5-0.5-1.5-1-2.4c-0.3-0.6-0.7-1.2-1-2c-1.1-2.4-1.2-5.1-0.4-7.3c-1.6-1.7-3.3-3.3-5.2-4.7
					c-0.1,0-0.1-0.1-0.2-0.1c-0.2,0.1-0.3,0.2-0.4,0.2l-0.2,0.1c-5.2,3.1-11.5,4.4-17.5,3.4c-4.5-0.7-6.3-2.9-7.1-4.7
					c-1-2.4-0.5-4.6-0.1-6.2c-3.7-0.4-6.8-3.6-7.8-8.1c-0.2-0.7-0.3-1.4-0.4-2.2c-0.2-1.4-0.5-2.6-0.9-3.4c-0.2-0.3-0.6-0.7-1-1.1
					c-1.3-1.3-3.2-3.4-3.1-6.4c0-1.9,0.9-3.5,1.3-4.3c1.6-2.9,3.5-5.6,5.6-8.2c-2.3-0.7-4.5-2-5.7-4.8c-0.5-1.2-0.6-2.3-0.7-3.2
					c0-0.4-0.1-0.8-0.1-1c-0.3-1.1-2.7-2.3-3.9-2.9c-3.3-1.6-6.4-3-8.9-2.2c-0.1,0-0.2,0.1-0.4,0.1c-0.8,0.3-2,0.7-3.5,0.5
					c-2.2-0.2-3.6-1.4-4.5-2.2c-0.2-0.1-0.3-0.3-0.5-0.4c-1.2-0.9-3.4-0.8-5.7-0.7c-0.6,0-1.2,0-1.8,0.1c-4.5,0.1-8.2-1.4-10.3-3.8
					c-0.2,0-0.4-0.1-0.6-0.2c-4.5-0.5-8.1-3.1-11.2-5.5c-0.9-0.7-1.8-1.3-2.6-1.9l-3.9,5.3c-0.2,0.3-0.8,1.1-0.9,1.4
					c0.1,0.2,0.3,0.8,0.5,1.1c0.2,0.5,0.5,1.1,0.8,1.7c1.5,3.7,0.8,8.1-1.8,11.2c-2.3,2.7-5.3,3.9-8,4.9c-1,0.4-1.9,0.7-2.7,1.1
					c0.2,0.5,0.4,1.1,0.5,1.9c0.6,4.7-3.8,7.4-5.2,8.3c-0.3,0.2-0.5,0.3-0.7,0.5c2.6,2.9,4.3,5.7,5.1,8.7c0.8,3,0.7,6-0.3,8.6
					c6.2,8.1,7.3,18.8,8.2,26.9c0.2,1.5,0.5,4.4-1.4,6.8c-2.5,3.2-7,3.5-11.6,0.8c-0.6-0.3-1.8-1.1-2.5-1.3
					c-0.2,0.4-0.4,0.9-0.5,1.3c-0.4,1-0.8,2.4-1.6,3.6c-2.2,3.2-6.2,4.8-11.4,4.5c-0.7,0-1.4-0.1-2.2-0.2c-1.9-0.2-3.6-0.4-5,0.1
					c-1,0.3-2,1-3.1,1.8c-0.6,0.4-1.1,0.8-1.7,1.2c-4,2.5-7.2,2.5-9.3,1.9c0,0.1,0,0.1,0,0.2c-0.1,1-0.2,2.4-0.7,3.7
					c-0.3,2-1.3,3.6-2,4.8c-1.7,2.7-3.2,6.5-1.8,8.2c0.1,0.2,0.3,0.4,0.5,0.5c1,1,2.6,2.8,2.6,5.4c0,1.8-0.9,3.2-1.4,4.1
					c-0.1,0.1-0.2,0.3-0.3,0.5c-0.9,1.6,1.4,4.8,3.2,7.3c0.4,0.5,0.7,1,1.1,1.5c1.8,2.6,3,5.3,4,8.1c2.3-1.2,5.9-2,7.2-2.1
					c2.9-0.1,6.1,1.5,6.8,4.3c0.2,0.9,0.2,2,0.8,2.7c2.1,2.7,7.7-2.5,9.4,0.5c1,1.7-1.2,3.6-1.5,5.5c0.4,1.7,2.9,0.9,4.5,0.4
					c2.6-0.8,5.5,0.2,7.4,2.2c2.9,2.9,3.6,7.7,1.6,11.2c1.8,2.2,5.5,1.5,7.6-0.5s3.2-4.7,4.9-6.9c1.7-2.3,4.6-4.1,7.3-3.1
					c0.9,0.3,1.6,1,2.5,1.2c2.2,0.5,5.3-1.1,6.2,0.9c0.7,1.5-1,3.2-0.3,4.7s3.3,2.4,4.3,3.9c0.9,0.9,1.5,2,1.7,3.3
					c-0.1,0.6-0.3,1.2-0.4,1.8c0.1,0.6-0.9,1.4-0.3,2c0.8,0.8,5.8,0.3,6.7-0.2c0.8-0.5,1.5-2.4,1.7-3.3c0.6-3,0.2-2.2,2.9-3.7
					c0.9-0.5,1.4-1.2,1.8-2.1c0.4-0.9,0.9-1.7,1.7-2.4c0.5-0.4,0.9-0.7,1.4-1.1c0.4-0.3,0.7-0.7,1.1-0.9c1-0.6,2.3-1,2.9-2
					c0.7-1.1,0.5-2.6,0.7-3.9c0.2-1.3,1.4-2.7,2.6-2.2c1.1,0.5,1.1,2,2,2.9c1.9,1.9,6.3-1.1,7.4,1.3c0.4,0.9,0,2,0.1,3
					c0.2,1.6,2.1,2.6,3.7,2.4c1.6-0.2,3-1.1,4.4-2.1c-0.2,1,0.7,2.1,1.7,2.3s2.1-0.1,3.1-0.5c3.4-1.5,6.2-4.1,9.7-5.4s8.3-0.5,9.5,3
					c-2.3,2.5-4.3,5.1-6,8c-0.2,0.4-0.4,0.8-0.3,1.2c0.3,0.7,1.5,0.6,1.9,1.2c0.3,0.4,0.2,1,0,1.4c-0.7,1.5-1.9,2.6-2.8,4
					s-1.4,3.2-0.4,4.5c0.4,0.5,1,0.9,1.2,1.5c0.3,1-0.4,2-0.8,2.9c-0.5,0.9-0.6,2.3,0.3,2.7c0.3,0.1,0.7,0.1,1.1,0
					c3.7-0.7,6.9-3.5,8.1-7.1c2.1,0.9,4.8-0.1,5.7-2.2c0.5-1.2,0.6-2.7,1.5-3.6c1.3-1.3,3.6-0.8,5-2
					C596.3,553.6,596.1,551.2,597.5,550.2L597.5,550.2z"/>
			</g>
			<g>
				<path class="st1" d="M380.1,458.2c-1.2-0.4-2.2-1.3-2.6-2.6c-0.1-0.3-0.2-0.6-0.2-1c-1.3-0.5-3.3-1.3-4.5-3.3
					c-0.4-0.8-0.6-1.5-0.8-1.9c0-0.1,0-0.2-0.1-0.3c0,0-0.5-0.3-1.3-0.5c-0.5-0.1-1.2-0.2-1.8-0.3c-1.1-0.2-2.4-0.4-3.6-0.8
					c-1.4-0.5-2.6-1.2-3.7-1.8c-0.7-0.4-1.4-0.8-2-1.1l-8.3,7.8c-2.3,2.1-5.7,5.4-10.5,5.5c-0.9,0-1.7-0.1-2.4-0.1
					c0,0.2,0,0.4,0,0.6c-0.3,1.8-1.6,3.1-3.4,3.4c-1.5,0.2-3,0.4-4.1,0.9c-0.8,0.4-1.3,0.9-1.5,1.2c-0.1,0.4-0.1,1.2-0.1,2
					c0,1.4,0.1,3-0.5,4.8c-1,2.8-3.7,6.3-11.3,7.2c-0.3,0-0.6,0-1,0.1c0.2,0.3,0.4,0.6,0.6,0.9c1.7,2.1,4.7,2.4,6.2,4.6
					c0.6,0.9,0.9,2,1.3,3c1.8,4.8,7.5,7.7,12.5,6.4c3-0.8,6.5-2.8,8.9-0.8c1.2,1.1,1.5,2.9,2.1,4.4c1.4,3.2,4.6,5.1,6.7,7.9
					c1.6,2.1,2.4,4.6,3.2,7.1c1.1,3.4,2.3,6.8,3.4,10.2c1.9,5.8,3.9,11.7,5.8,17.5c0.5,1.6,1,3.2,1.5,4.9c1.3,0.7,2.8,1,4.2,0.8
					c1.7-0.2,3.7-0.7,4.8,0.5c0.5,0.6,0.6,1.5,1,2.2c1.2,3,5.8,3.7,7.8,1.3s0.5-6.8-2.6-7.5c-0.9-1.1,1.1-2.2,2.5-1.8
					c1.3,0.4,2.7,1.4,3.9,0.6c0.5-0.3,0.8-1,1.1-1.5c1.2-2,3.5-3.1,5.8-2.9c-0.1,1-0.2,2.1-0.2,3.2c2.4-1.3,5.4-1.4,7.8-0.3
					c-0.8,3.7-1.6,7.3-2.4,11c2.4,0.9,5.3-0.3,7-2.2s2.5-4.6,3-7.1c0.1-0.6,0.3-1.2,0.8-1.6c0.9-0.7,2.3,0,2.9,1s1,2.2,1.9,2.9
					c2.3,1.9,5.5-0.8,7.4-3.2s5.8-4.5,7.5-2c0.8-1.9,1.9-3.6,3.3-5c1.8,1.3,2.5,4,1.5,6c0.6,0.1,1.2,0.1,1.8,0c0-6.2-1.1-12-4.5-17
					c-0.3-0.5-0.6-0.9-1-1.4c-2.9-4.1-6.9-9.7-3.7-15.7c0.1-0.2,0.2-0.4,0.4-0.7l0,0c-0.3-0.3-0.6-0.6-0.9-1
					c-3.5-4.3-3.1-10.7,1.1-17.5c0.2-0.4,0.6-1,0.8-1.4c0-0.2,0-0.3,0-0.5c0-0.1-0.1-0.2-0.2-0.4c-3.5-5.7-9.3-9.9-15.7-11.6
					c-0.9-0.2-1.9-0.4-2.9-0.6c-3.4-0.7-7.3-1.5-10.5-4.1c-1.8-1.4-3.4-3.4-4.8-6c-0.4-0.8-0.8-1.7-1.2-2.5
					C390.9,459.5,384.8,459.6,380.1,458.2L380.1,458.2z"/>
				<path class="st1" d="M255.1,373.3c1.3,0.2,2.6,0.5,3.6,1.4c1,1,1.3,2.6,2.4,3.6c2.2,2,6.1,0.2,8.7,1.7c1.8,1.1,2.3,3.3,3.6,4.9
					c2.6,3.1,7.3,2.9,11.3,3.6c0.8,0.1,1.7,0.4,2.3,1c0.8,0.9,0.6,2.3,0.8,3.5c0.4,2.1,2.1,3.6,3.7,5c3.4,2.9,6.9,5.9,10.3,8.8
					c3.1,2.7,6.5,5.8,7.1,9.9c0.3,2-0.1,4.1-0.4,6.1c-1.1,7.2-0.7,14.6-0.3,22c0.1,2.6,0.4,5.3,1.9,7.3c0.9,1.1,2.1,1.9,2.9,3.1
					c1.4,2.1,1.3,4.8,1,7.3s-0.8,5.1-0.6,7.6c1-0.1,2.1-0.1,3.1-0.3c2.9-0.4,4.5-1.2,4.7-1.9c0.1-0.4,0.1-1.2,0.1-2
					c0-1.3-0.1-3,0.5-4.8c0.9-2.6,3-4.8,5.8-6c0.7-0.3,1.4-0.5,2.1-0.7c0.2-0.9,0.7-1.7,1.3-2.4c1.5-1.7,3.7-2.6,6.3-2.5
					c0.7,0,1.3,0.1,1.9,0.2c0.5,0.1,1,0.1,1.4,0.1c1.6,0,3.4-1.6,5.3-3.4l8.4-7.9c0.7-0.6,1.8-1.6,3.4-2.1c1.2-0.3,2.4-0.2,3.8,0.2
					c1.6,0.5,3,1.2,4.2,1.9c0.8,0.5,1.6,0.9,2.3,1.2c0.6,0.2,1.4,0.3,2.3,0.5c0.8,0.1,1.6,0.2,2.5,0.5c3.3,0.8,5.8,2.8,6.8,5.5
					c0.1,0.2,0.2,0.5,0.2,0.8c0.2,0.1,0.3,0.1,0.5,0.2c0.4,0.1,0.7,0.3,1.1,0.4c1.6,0.7,2.9,2,3.7,3.4c2.9,0.4,6.3,0,9.4-0.9
					c-0.4-2.9-0.5-5.9-0.1-8.8c0.1-0.8,0.2-1.5,0.3-2.3c0.6-4.3,1-7.5-0.6-8.8c-0.4-0.3-1.1-0.7-1.9-1c-1.7-0.8-4-1.8-5.4-4.2
					c-2.5-4-0.7-8,0.6-11c0.6-1.4,1.2-2.7,1.2-3.7c0.1-1.3-0.8-3-1.6-4.8c-1.5-3.2-3.6-7.7-0.9-12.1c0.6-1,1.4-1.8,2-2.4
					c0.1-0.1,0.2-0.2,0.4-0.4c-0.1-0.1-0.1-0.1-0.2-0.2c-3.4-3-7.3-5.3-11.6-6.9l-0.7-0.2c-3.8-1.4-8.9-3.3-10.6-8.5
					c-0.8-2.5-0.4-4.9-0.1-6.8c0.2-1.3,0.4-2.6,0.1-3.2c-0.4-0.9-2.2-1.4-4.1-2c-2.3-0.7-5-1.5-7.2-3.4c-2.5-2.2-3.6-5.2-4.3-7.5
					c-1.9-6.4-2.3-13.1-1.2-19.7c-1.2,0-2.3-0.2-3.3-0.3c-1.9-0.2-3.8-0.5-5.1,0c-1.1,0.4-2.3,1.5-3.5,2.6c-2,1.8-4.4,4.1-8,4.6
					c-1.3,0.2-2.5,0.1-3.6,0c-0.7,0-1.3-0.1-1.7,0c-2.3,0.3-4.1,3.8-5.8,7.4c-3.5,7.5-8.7,11.3-14.2,10.3c-2.1-0.4-3.8-1.4-5.1-2.1
					c-0.7-0.4-1.3-0.8-1.9-1c0.1,1.2,0.1,2.9-1,4.8c-2.9,4.6-8.2,4.1-11.8,3.8c-1.9-0.2-4.2-0.4-4.9,0.3c-0.2,0.2-0.6,0.9-0.9,1.5
					c-0.5,1-1,2.1-2,3.2c-4.4,5-11.2,3.3-15.8,2.2c-3-0.7-5.7-0.2-5.9,0.5c-0.1,0.5,0.3,1.8,0.7,2.8C255,373,255,373.1,255.1,373.3
					L255.1,373.3z"/>
				<path class="st1" d="M313.2,493.1c-2.6-4.2-5.2-8.5-6.1-13.3c-0.1-0.5-0.2-1.1-0.3-1.6c-0.1,0,1.4-4.1,1.2-4.1
					c-2-0.1-1.6-1.4-1.7-3.5c0-0.8-3.5,2.1-3.1,1.4c-2.9-4.2-2-9.9-2.8-15c-0.9-6-4.3-12.1-1.9-17.6c0.5-1.1,1.2-2.2,1.6-3.4
					c0.8-2.4,0.2-5.1-0.5-7.5c-1-3.5-2-6.9-3.9-10c-1.4-2.3-2.4-5.6-4.8-7.1c-1.1-0.7-2.5-1-3.7-1.7c-1.8-1.2-2.6-3.5-3.6-5.4
					c-3.9-7.3-12.2-10.8-19.9-13.9c-4.1-1.6-8.2-3.2-12.4-4.9c-0.2,0-2-2-2.1-2c-3.3,0.7-3.7-1.5-6.9-2.1c-0.7,3.1-3.6,9.2-5.3,10.1
					c0,0.5,0.1,1.1,0.1,1.6c0.2,3.5,0.5,7.8-2.6,11.1c-0.2,0.2-0.4,0.5-0.7,0.7c0,0.4,0.1,1,0,1.6c-0.4,4.2-4.1,5.9-6.4,6.9
					c-0.4,0.2-1.1,0.5-1.5,0.7c0.2,0.3,0.7,0.7,1.5,1.4c2.4,2,4.9,4.3,6.4,7.4c2,4,1.7,8.7-0.7,11.9c-0.2,0.2-0.4,0.5-0.6,0.7
					c1.3,1,4.4,3.3,3.4,7.2c0,0.1-0.1,0.2-0.1,0.4c4.8,5.5,4.2,13.3,3.8,18c-0.1,0.9-0.3,3.6-2.7,5.2c-0.1,0-0.1,0.1-0.2,0.1
					c0.5,1.5,0.2,3.2-0.8,4.5c-1.4,2-4.2,3.2-6.9,2.9h-0.3c-0.1,0-0.2,0-0.3,0c-0.1,0.5-0.2,1.1-0.5,1.7c-1.4,3-4.4,3.6-6,3.9
					c0.3,1.2,0.8,2.8,0.5,4.6c-0.5,2.9-2.6,4.6-4,5.7c-0.5,0.4-1.1,0.9-1.3,1.2c-0.2,0.3-0.4,1-0.5,1.6c-0.1,0.5-0.3,1-0.4,1.5
					c-0.8,2.3-2.1,4.2-3.2,5.9l-2.1,3.1c2.4,2.6,4.9,4.9,9.1,3.8c2.4-0.7,4.5-2.7,7-2.6c4.8,0.3,6.2,7.9,10.9,8.6
					c2.5,0.4,5.6-1.3,7.4,0.5c1.1,1.1,1,2.9,2,4c1.5,1.7,4.1,1,6.4,0.7c4.4-0.6,9,0.9,12.1,4c1.6,1.6,2.9,3.6,4.7,5.1
					s4.3,2.4,6.4,1.4c1.6-0.8,2.5-2.6,3.2-4.3c1.3-3,2.7-6.1,4-9.1c1.4-3.2,2.9-6.5,5.6-8.6s7-2.8,9.5-0.4c1,0.9,1.6,2.1,2.5,3.1
					c3.1,3.2,9.6,1.6,10.7-2.7c0.6-2.1,0-4.5,0.9-6.5c0.5-1.1,1.3-2,2.4-2.6C314.9,495.8,314,494.4,313.2,493.1L313.2,493.1z"/>
			</g>
		</g>
		<path class="st3" d="M84.6,198.4c-0.8,9.9-1.7,20.2-6.3,29c-1.4,2.7-3.2,5.4-3.3,8.4c-0.1,1.6,0.4,3.2,0.2,4.9
			c-0.2,1.4-0.9,2.7-1.6,4c-3.6,5.9-8.8,11.1-10.4,17.8c-1,4-0.6,8.5-3,11.8c-1.5,2-3.7,3.3-5.6,5c-2.9,2.6-4.9,6.2-5.5,10
			c-0.2,1.1-0.2,2.1-0.6,3.2c-0.3,1-0.9,2-1.5,2.9c-2.4,3.7-4.8,7.4-7.2,11.1c-0.3,0.5-0.6,0.9-1,1.2c-1.7,1.1-3.7-1.2-4-3.2
			s-0.4-4.5-2.2-5.4c0.4,5.3,0.3,11.1,2.1,16.1c0.5,1.2,1,2.4,1.4,3.7c0.9,2.7,1.2,5.5,0.8,8.3c-0.2,1.5-0.6,3.1-1.6,4.3
			c-0.6,0.8-1.4,1.3-2.1,2c-2.2,2.3-2.8,6.1-1.3,9s3.7,6.2,3.9,9.5c-1.4,3.8-5.1,6.7-9.1,7.2c-3,0.4-7-0.1-8.2,2.7
			c-3.1-1.8-1.9-7.7,1.7-8c-2.5-6.3-8.1-11.4-14.6-13.3C4,340.1,2.1,340,1,341.1c-1.9,1.9,0.1,5,2.2,6.7s4.6,4,3.7,6.5
			c-0.8,2.1-3.7,2.9-4.1,5.1c-0.3,1.7,1.1,3.1,1.8,4.5c0.4,0.8,0.4,1.4,0.4,2.3c0,1.2,0.1,2.2-0.3,3.4c-0.4,1.1-1,2.1-1.5,3.1
			c-0.5,0.9-0.9,1.9-1.2,2.9c-0.1,0.4-0.2,0.8-0.2,1.2c0,0.6,0.4,1.1,0.6,1.6c0.5,0.9,1.1,1.8,1.6,2.6c0.2,0.3,0.4,0.6,0.5,1
			c0.1,0.6,0,1.2-0.1,1.8c-0.1,1.2,0.4,2.4,1.3,3.2c0.5,0.4,1,0.7,1.5,1.1c0.7,0.6,1.3,1.5,1.4,2.5c0.3,1.7-0.5,3.4-0.1,5
			c0.1,0.7,0.7,1.2,1,1.8c0.3,0.8,0.4,1.7-0.1,2.5c-0.7,1.3-2.6,1.7-3.3,3c-1,1.9,1.2,4,3.3,4.3s4.3-0.5,6.4-0.1
			c4.5,0.8,6.7,6.3,6.2,10.9s-3,8.7-4.2,13.1c-0.3,1-0.4,2.1,0.2,2.9c0.7,0.9,2,1,2.7,1.8c1,1.2,0.3,2.9-0.1,4.4
			c-2.8,9.4,5.9,18.3,7.1,28.1c0.2,1.8,0.2,3.6,0.5,5.3c0.5,2.2,1.5,4.2,2.6,6.1c4.2,7.6,9.2,15.8,17.5,18.2c-1-3.1-4.1-5-6.6-7.2
			c-5.5-4.9-8.4-12-9.8-19.2c-1.4-7.4-1.3-15,0.1-22.3c0.2-1,0.4-1.9,0.2-2.9c-0.5-3.1-4.6-4.3-6.1-7.1c-2.9-5.5,5.5-12.8,1.6-17.6
			c3.8,0.3,7.2-3.7,6.3-7.4c-0.2-1-0.7-1.9-0.8-2.9c-0.6-3.7,4.4-6.6,1.3-9.9c-1.7-1.8-5-2.1-7.1-2.9c-1.3-0.5-2.7-1.2-3-2.5
			c-0.2-0.9,0.1-1.7,0.5-2.5c1.7-3.6,4.7-6.5,8.3-8.2c1.2-0.5,2.6-1,3.2-2.2c0.9-1.8-0.7-4.2,0.3-5.9c0.6-1,1.7-1.4,2.8-1.7
			c3.4-1,6.8-2.1,10.4-1.8c1,0.1,2,0.2,3,0c1.8-0.4,3.2-2.1,3.2-3.9s-1.4-3.5-3.1-3.9c-1.1-0.2-2.4,0-3.2-0.8
			c-2.7-2.3,3.8-7.6,0.9-9.6c-2.6,0.9-5.2,2.1-7.5,3.6c-0.8-1-0.3-2.7,0.7-3.6c1-1,2.2-1.6,3-2.7c1.8-2.4,0.9-6,2.8-8.3
			c1.4-1.6,3.7-1.9,5.6-3c1.9-1,3.1-4,1.2-5.1c5-0.4,9.9-1.9,14.3-4.3c2.4-1.4,4.8-3,7.5-3.7c5.2-1.2,11.5,1.3,15.4-2.2
			c0.7,1.6,0.5,3.6-0.7,4.9c4.4-0.8,9.8-1.2,12.5,2.4c1.5,2,1.6,4.6,2.1,7s1.9,5,4.3,5.5c2,0.3,4.2-0.9,5.9,0.2
			c1.4,0.9,1.5,2.8,2.4,4.2c1.2,2,3.7,2.7,5.6,4c4.3,3.2,4.9,9.3,5.5,14.7c0.5,4.2,1.9,9,4.5,12.4c2.5,3.2,6.6,4.8,8.7,8.3
			c1.4,2.3,1.8,5.2,3.8,7c1.1,1,2.7,1.5,3.7,2.6c1.2,1.3,1.6,3.3,3,4.4c1.5,1.2,3.7,1,5.4,0.1s3-2.3,4.5-3.5c3.8-3,8.8-4.6,13.7-4.2
			c2.4,0.2,4.8,0.8,7.1,0.2c3.2-0.9,5.1-4,7.3-6.5c7.6-8.7,19.8-11.6,31.3-12.5c1.9-0.1,3.9-0.3,5.9,0s5.1,3.1,7,3.9
			c9.3,3.6,17.4,5.2,26.7,8.9c7.7,3,16,6.6,19.9,13.9c1,1.9,1.8,4.2,3.6,5.4c1.1,0.8,2.5,1,3.7,1.7c2.4,1.5,3.4,4.8,4.8,7.1
			c1.9,3.1,2.9,6.5,3.9,10c0.7,2.5,1.3,5.1,0.5,7.5c-0.4,1.2-1.1,2.2-1.6,3.4c-2.4,5.5,1,11.7,1.9,17.6c0.8,5.3-0.1,11.2,3.1,15.5
			c0.8,1,1.7,1.8,2.3,2.9c0.8,1.3,0.9,2.9,1.2,4.4c1,4.8,3.6,9.1,6.1,13.3c2.5,4.1,5.4,8.5,10,9.8c2.8,0.8,5.8,0.2,8.8,0.5
			c5.8,0.6,10.7,4.5,14.7,8.6c1.4,1.5,2.8,3,3.7,4.7c1,1.9,1.6,4,2.2,6c1.4,5,2.3,9.9,3.2,15c0.2,1.2,0.4,2.4,1,3.4
			c1.4,2.4,4.6,3.5,5.6,6.1c0.8,2,0,4.2-0.2,6.3c-0.6,6.3,4.1,12.5,2.4,18.7c-0.7,2.7-2.6,5.2-2.1,7.9c0.3,1.8,1.7,3.3,2.6,4.9
			c1.8,3.4,1.6,7.9,4.4,10.6c0.9,0.9,2,1.5,2.7,2.5c2.6,3.8-2.6,9.5,0,13.2c1.7,2.4,5.6,2.3,7.2,4.6c2.2,3,0.3,6.5,3.9,8.8
			s7.5,2.8,10.6,6.3c1.1,1.3,2.1,2.8,3.5,3.8c2.1,1.5,4.8,1.8,7.2,2.5c4.2,1.3,7.8,4,11.3,6.8c5.5,4.2,11.4,9.2,12.2,16.1
			c0.3,2.1,0,4.3,0.9,6.3c0.6,1.3,1.6,2.4,2.4,3.5c1.5,2.2,2.5,4.9,4.3,6.9c1.5,1.6,3.4,2.6,5.2,3.7c8.2,4.7,15.5,10.8,21.6,18
			c2.8,3.3,5.4,6.8,8.8,9.5c6.9,5.5,16.9,6.7,24.9,3c-4-2.5-8.1-5.1-12.1-7.6c-5-3.1-9.9-6.2-14.4-10c-5.2-4.4-9.7-9.6-14.9-13.9
			c-7.9-6.5-17.6-11.2-22.7-20c2.9-1.7,5.9,2,8.9,3.5c3.4,1.6,8-0.4,9.2-4c-5.5-2.9-11-5.8-16.5-8.6c-1.5-0.8-3.1-1.6-4.4-2.8
			c-1.5-1.3-2.6-3.1-4-4.7c-4.7-5.6-11.7-8.6-16.7-14c-1.2-1.3-2.3-2.7-3.7-3.8c-3.5-2.7-8.4-2.8-11.8-5.6c-2.8-2.2-6.1-5.2-7.6-8.4
			c-1.4-3-1.7-6.5-3.2-9.5c-2-4-6-6.7-7.8-10.7c-1-2.1-1.3-4.4-1.6-6.7c-0.8-5.3-1.5-10.8-0.1-15.9c0.5-1.8,1.2-3.5,1.2-5.3
			c0-1.6-0.4-3.2-0.9-4.8c-2-6.4-4-12.9-6.1-19.3c-1.9-5.8-3.8-11.7-5.8-17.5c-1.1-3.4-2.3-6.8-3.4-10.2c-0.8-2.5-1.7-5-3.2-7.1
			c-2.1-2.8-5.3-4.7-6.7-7.9c-0.6-1.5-0.9-3.3-2.1-4.4c-2.4-2-5.9,0-8.9,0.8c-5,1.3-10.7-1.6-12.5-6.4c-0.4-1-0.6-2.1-1.3-3
			c-1.6-2.1-4.6-2.5-6.2-4.6s-3.3-5.2-3.7-7.8c-0.4-2.8,0.2-5.6,0.5-8.4c0.3-2.5,0.4-5.2-1-7.3c-0.8-1.2-2-2-2.9-3.1
			c-1.6-2-1.8-4.8-1.9-7.3c-0.4-7.3-0.8-14.7,0.3-22c0.3-2,0.7-4.1,0.4-6.1c-0.6-4.1-4-7.2-7.1-9.9c-3.4-2.9-6.9-5.9-10.3-8.8
			c-1.6-1.4-3.3-2.9-3.7-5c-0.2-1.2,0-2.6-0.8-3.5c-0.6-0.6-1.5-0.9-2.3-1c-4-0.7-8.7-0.5-11.3-3.6c-1.3-1.6-1.9-3.9-3.6-4.9
			c-2.6-1.6-6.4,0.3-8.7-1.7c-1.1-1-1.4-2.5-2.4-3.6c-1.1-1.2-2.9-1.4-4.5-1.5c-3.5-0.4-7-0.7-10.4-1c-1.2-0.1-2.4-0.2-3.4-0.9
			c-2.6-1.6-3.1-6-6.2-6.6c-1.1-0.2-2.3,0.2-3.4,0.4c-4.2,0.9-8.5-0.5-12.8-0.4c-5.6,0.1-10.9,2.8-16.4,2.6
			c-2.5-0.1-5.7-0.5-6.9,1.8c-0.5,1-0.4,2.2-0.6,3.3c-0.7,4-4.9,5.2-7.9,6.9c-4.3,2.5-9,4.1-13.9,4.6c-0.8,0.1-1.6,0.1-2.4-0.1
			c-1.3-0.5-2.1-1.8-3.2-2.7c-1.6-1.2-3.7-1.4-5.6-1.8c-7.5-1.6-13.8-7.7-15.7-15.1c-0.3-1.1-0.5-2.2-1.1-3.1s-1.5-1.5-2.4-2.2
			c-7.7-5.7-13.6-13.8-16.7-22.9c-0.8-2.3-1.4-4.7-2.6-6.9c-1.4-2.5-3.7-4.4-6.2-5.8c-1.3-0.7-2.6-1.1-3.9-1.6
			c-1.5-0.6-2.9-1.3-4.5-1.7c-1.7-0.5-3.5-1-5.3-0.9c-2,0-4,0.8-6.1,0.9c-4.1,0.3-8-1.9-12.1-2.6c-3.8-0.7-7.7,0-11.6,0.6
			c-2.5,0.4-5,0.8-7.5,1.2c-0.6,0.1-1.5,0-1.5-0.6c0-0.3,0.2-0.5,0.4-0.8c2.1-2.1,4.6-3.9,7.1-5.6c3.1-2.2,6.4-4.4,10.1-5.2
			c0.9-0.2,1.9-0.3,2.8-0.7s1.6-1.2,1.7-2.1c0-0.4-0.1-0.8-0.4-1c-0.4-0.3-1-0.1-1.4,0.1c-2.7,1.2-5.5,1.9-8.4,2.2
			c-1.2,0.1-2.4,0.2-3.5,0.5c-1.3,0.3-2.5,0.9-3.6,1.5c-2.3,1.2-4.8,2.7-5.6,5.2c-0.3,1-0.3,2.2-1,3.1c-0.8,1-2.4,1.4-2.6,2.6
			c-0.2,0.7,0.2,1.5,0,2.2c-0.2,0.5-0.8,0.9-1.3,1.1c-1.5,0.9-3.2,2.1-4.9,2.6s-2.9,1.1-4.5,1.9c-1.4,0.7-3,1.1-4.4,0.7
			c0.7-0.8,1.4-1.7,2.2-2.5c2.4-2.8,4.9-5.8,5.2-9.4c0.1-0.7,0-1.4,0.4-2.1c0.3-0.6,0.8-1,1.2-1.5c1.5-1.5,2.1-3.7,3.1-5.6
			c1.6-3,4.1-5.4,6-8.2c1.7-2.4,2.9-5.1,3.5-8c0.2-1.1,0.4-2.3,0.7-3.4c0.6-2.5,1.7-5,2.8-7.3c0.6-1.4,1.2-2.7,1.8-4.1
			c0.6-1.2,1.5-2.7,1.8-4c0.2-1.1,0.1-2,0.8-3.1s1.5-2,2.4-2.9c3.4-3.5,7-7,8.8-11.5c0.6-1.4,1-3,1.6-4.4c0.8-1.6,1.8-3.1,2.6-4.7
			c1.5-3.2,1.7-7,1.9-10.6c0.1-1,0.1-1.9,0.6-2.8c0.4-0.7,0.9-1.3,1.5-1.8c1.5-1.5,3-2.9,4.5-4.4c1.7-1.6,3.4-3.4,4.3-5.6
			s0.5-5-1.4-6.4c-1.8-1.3-4.2-0.9-6.3-0.5c-0.2-0.9,0.3-1.8,1-2.4s1.6-0.9,2.3-1.5c1.4-1.1,2.1-3,1.8-4.8c-0.3-1.9-1.7-3.5-1.7-5.5
			c0-2.2,1.8-4.6,0.6-6.4c-0.6-0.9-1.8-1.2-2.7-1.8c-3.2-1.8-0.6-4.6,1.4-6c7.4-5.2,12.6-14,11.9-23c-0.2-2.4-0.5-5.4,1.4-6.9
			c0.7-0.6,1.7-0.7,2.5-1.1c2.3-0.8,4.1-2.5,5.8-4.2c1.6-1.5,3.2-3,4.8-4.6c2.2-2.1,4.4-4.4,4.8-7.3c0.1-1,0.1-2.1,0.8-2.8
			c0.6-0.5,1.4-0.6,2.1-0.9c1.5-0.8,1.9-2.8,1.8-4.6s-0.4-3.6,0.4-5.1c0.9-1.6,2.8-2.3,3.9-3.7c1-1.3,1.2-3.1,1.4-4.8
			c0.9-7.4,4-15.1,1.8-22.5c-0.3-1.1-0.8-2.2-1-3.3c-0.5-3,1.2-6,2.8-8.6c3.5-5.5,7.2-11.2,8.2-17.7c0.3-2,0.3-3.9,0.6-5.9
			c0.9-7.5,5-14.5,10.3-19.9c1.2-1.2,2.6-2.5,2.9-4.2c0.2-0.9,0-1.9-0.1-2.8c-0.3-2.8,0-5.6,0.8-8.2c2.2-7.5,8.3-13.1,12.1-20
			c0.4-0.6,0.7-1.5,0.2-2c-0.7-0.7-1.9,0.1-2.5,0.9C169,8,163.8,14.8,158.5,21.6c-1.6,2.1-3.3,4.3-4.2,6.9c-0.8,2.1-0.9,4.5-1.6,6.6
			c-1.1,3.1-3.3,5.6-5,8.3c-5.8,9-6.5,20.5-11.8,29.7c-1.4,2.3-3,4.5-3.8,7.1c-1.4,4.4-0.1,9.2,0.4,13.8c0.4,3.7,0.3,6.6-0.7,10.2
			c-1,3.7-2.5,7.3-4.2,10.8c-3.4,7-7.7,13.5-11.3,20.5c-1.7,3.3-3.3,6.8-6,9.4c-2.6,2.5-6.1,3.9-9.3,5.5c-1.1,0.6-2.2,1.2-3,2.2
			c-1.5,1.9-1.4,4.6-1.4,7c0.1,7-0.9,14.3-4.9,20.1c-1.4,2.1-3.2,3.9-4.5,6.1c-4.4,7.7-1.2,18.4-6.6,25.4"/>
	</g>
</g>
<g>
	<path class="st4" d="M159.8,195.2l-1,1.3c-1.8-0.9-3.1-2.7-3.8-4.8c-0.7,2.3-2.1,4.2-3.9,5.1l-1.1-1.4c2.4-1.2,4.1-4.2,4.1-7.1
		v-2.7h1.7v2.7C155.8,191.2,157.4,194.1,159.8,195.2z M158,189.6h3.5v-5.2h1.7v15.8h-1.7v-9.2H158V189.6z"/>
	<path class="st4" d="M173.6,192.1h6.4v1.4h-14.4v-1.4h6.3v-2.1h1.7V192.1z M171.7,186.4H167v-1.3h11.8v1.3h-4.8
		c0.2,1.5,2.5,2.8,5.3,3.1l-0.6,1.3c-2.7-0.3-5-1.4-5.9-3.1c-0.9,1.7-3.1,2.8-5.8,3.1l-0.6-1.3C169.2,189.2,171.5,187.9,171.7,186.4
		z M172.8,194.6c3.4,0,5.4,1,5.4,2.7c0,1.8-2,2.7-5.4,2.7c-3.4,0-5.5-1-5.5-2.7C167.3,195.6,169.4,194.6,172.8,194.6z M172.8,198.8
		c2.4,0,3.8-0.5,3.8-1.5s-1.4-1.5-3.8-1.5c-2.4,0-3.8,0.5-3.8,1.5C169,198.3,170.4,198.8,172.8,198.8z"/>
	<path class="st4" d="M189.2,187h3.4v-2.7h1.7v11.5h-1.7v-4.1h-3.4v1.4h-7.3v-7.5h7.3V187z M187.6,191.8V187h-4v4.8H187.6z
		 M184,194.8h1.7v3.6h8.9v1.4H184V194.8z M192.7,190.4v-2h-3.4v2H192.7z"/>
</g>
<g>
	<path class="st5" d="M139.5,312.7c2.4,0,4.2,1.5,4.2,3.7c0,2.2-1.8,3.7-4.2,3.7c-2.4,0-4.2-1.5-4.2-3.7
		C135.3,314.2,137.1,312.7,139.5,312.7z M139.5,318.8c1.5,0,2.6-0.9,2.6-2.3c0-1.4-1.1-2.3-2.6-2.3c-1.5,0-2.6,0.9-2.5,2.3
		C136.9,317.8,138,318.7,139.5,318.8z M142.3,321.5c3.2,0,5.2,1.1,5.2,3c0,1.9-2,3-5.2,3c-3.3,0-5.3-1.1-5.3-3
		C137.1,322.6,139.1,321.5,142.3,321.5z M142.3,326.1c2.3,0,3.6-0.6,3.6-1.7c0-1.1-1.3-1.7-3.6-1.7c-2.3,0-3.6,0.6-3.6,1.7
		C138.7,325.6,140.1,326.1,142.3,326.1z M149.7,315.4h-2.2v2h2.2v1.4h-2.2v2.3h-1.7v-9.3h1.7v2.2h2.2V315.4z"/>
	<path class="st5" d="M160.3,322.6l-1,1.3c-1.8-0.9-3.1-2.7-3.8-4.8c-0.7,2.3-2.1,4.2-3.9,5.1l-1.1-1.4c2.4-1.2,4.1-4.2,4.1-7.1
		v-2.7h1.7v2.7C156.3,318.7,157.9,321.5,160.3,322.6z M158.6,317h3.5v-5.2h1.7v15.8h-1.7v-9.2h-3.5V317z"/>
	<path class="st5" d="M174.2,314.4h3.4v-2.7h1.7v11.5h-1.7v-4.1h-3.4v1.4h-7.3v-7.5h7.3V314.4z M172.6,319.2v-4.8h-4v4.8H172.6z
		 M169,322.2h1.7v3.6h8.9v1.4H169V322.2z M177.6,317.8v-2h-3.4v2H177.6z"/>
</g>
<g>
	<path class="st4" d="M274.5,289.2c0,1.8-1.8,2.9-4.8,3v1.4h6.4v1.3h-14.4v-1.3h6.3v-1.4c-3-0.2-4.8-1.3-4.8-3
		c0-1.9,2.2-3.1,5.6-3.1C272.3,286.1,274.5,287.2,274.5,289.2z M263.3,296.4h11v5.1h-1.7v-3.8h-9.3V296.4z M268.9,290.9
		c2.4,0,3.9-0.7,3.9-1.8c0-1.1-1.5-1.8-3.9-1.8c-2.4,0-3.9,0.6-3.9,1.8C264.9,290.3,266.4,290.9,268.9,290.9z"/>
	<path class="st4" d="M286.7,294.1l-0.8,1.3c-1.8-0.6-3.2-1.8-3.9-3.3c-0.7,1.6-2,2.9-3.9,3.6l-0.8-1.3c2.4-0.8,3.9-2.7,3.9-4.8
		v-0.4h-3.4v-1.4h3.4v-1.9h1.7v1.9h3.4v1.4h-3.4v0.4C282.8,291.5,284.2,293.3,286.7,294.1z M280.1,296.4h1.7v3.4h9v1.4h-10.7V296.4z
		 M285.6,290.5h3.1v-4.8h1.7v11.7h-1.7v-5.6h-3.1V290.5z"/>
	<path class="st4" d="M300.8,288.4h3.4v-2.7h1.7v11.5h-1.7v-4.1h-3.4v1.4h-7.3v-7.5h7.3V288.4z M299.2,293.2v-4.8h-4v4.8H299.2z
		 M295.6,296.2h1.7v3.6h8.9v1.4h-10.6V296.2z M304.3,291.8v-2h-3.4v2H304.3z"/>
</g>
<g>
	<path class="st4" d="M317.4,389c2.4,0,4.2,1.5,4.2,3.7c0,2.2-1.8,3.7-4.2,3.7c-2.4,0-4.2-1.5-4.2-3.7
		C313.2,390.5,315,389,317.4,389z M317.4,395.1c1.5,0,2.6-0.9,2.6-2.3c0-1.4-1.1-2.3-2.6-2.3c-1.5,0-2.6,0.9-2.5,2.3
		C314.8,394.1,315.9,395,317.4,395.1z M320.2,397.8c3.2,0,5.2,1.1,5.2,3c0,1.9-2,3-5.2,3c-3.3,0-5.3-1.1-5.3-3
		C315,398.9,317,397.8,320.2,397.8z M320.2,402.4c2.3,0,3.6-0.6,3.6-1.7c0-1.1-1.3-1.7-3.6-1.7c-2.3,0-3.6,0.6-3.6,1.7
		C316.6,401.9,318,402.5,320.2,402.4z M327.6,391.7h-2.2v2h2.2v1.4h-2.2v2.3h-1.7v-9.3h1.7v2.2h2.2V391.7z"/>
	<path class="st4" d="M337.3,390.6h-1.5v4.8c0.7-0.1,1.3-0.1,1.9-0.2l0.1,1.3c-3,0.5-6.6,0.5-9.1,0.5l-0.2-1.4c0.6,0,1.2,0,1.9,0v-5
		H329v-1.4h8.4V390.6z M336.4,398c3.3,0,5.3,1,5.3,2.9c0,1.8-2,2.9-5.3,2.8c-3.3,0-5.3-1-5.3-2.8C331,399.1,333,398,336.4,398z
		 M334.2,395.4v-4.9h-2.2v4.9C332.8,395.5,333.5,395.5,334.2,395.4z M336.4,402.5c2.3,0,3.7-0.6,3.7-1.6c0-1-1.4-1.6-3.7-1.6
		c-2.3,0-3.7,0.6-3.7,1.6C332.7,401.9,334,402.5,336.4,402.5z M337.6,393.7h2.4v-1.5h-2.4v-1.3h2.4v-2.7h1.7v9.7H340V395h-2.4V393.7
		z"/>
	<path class="st4" d="M344.1,395.3h14.4v1.3h-14.4V395.3z M356.9,391.3c0,1.8-2.1,2.9-5.6,2.9c-3.5,0-5.6-1.1-5.6-2.9
		c0-1.9,2.2-3,5.6-3C354.7,388.3,356.8,389.4,356.9,391.3z M345.8,397.6h1.7v1.6h7.5v-1.6h1.7v6h-10.8V397.6z M351.2,392.9
		c2.4,0,3.9-0.6,3.9-1.6c0-1.1-1.5-1.7-3.9-1.7c-2.5,0-3.9,0.6-3.9,1.7C347.3,392.3,348.8,392.9,351.2,392.9z M354.9,402.3v-1.8
		h-7.5v1.8H354.9z"/>
</g>
<g>
	<path class="st4" d="M252,457.1h-5.6v-1.4h7.4c0,4.1-2.8,7-7.4,8.3l-0.7-1.4C249.4,461.7,251.7,459.7,252,457.1z M253.1,464.2
		c3.2,0,5.2,1.2,5.2,3.1c0,1.9-2,3.1-5.2,3.1c-3.2,0-5.2-1.2-5.2-3.1C247.9,465.3,249.9,464.2,253.1,464.2z M253.1,469.1
		c2.2,0,3.6-0.7,3.6-1.8s-1.4-1.8-3.6-1.8c-2.2,0-3.6,0.7-3.6,1.8C249.5,468.4,250.9,469,253.1,469.1z M258.1,458.6h2.3v1.4h-2.3v4
		h-1.7v-9.4h1.7V458.6z"/>
	<path class="st4" d="M270.5,461.9l-0.9,1.3c-1.7-0.6-3-1.8-3.7-3.4c-0.7,1.8-2,3.2-3.9,3.8l-0.9-1.3c2.5-0.9,3.9-3,3.9-5.3v-1.5
		h1.7v1.7C266.7,459.2,268.2,461.1,270.5,461.9z M268.6,464.5c3.2,0,5.2,1.1,5.2,2.9c0,1.9-2,2.9-5.2,2.9c-3.3,0-5.3-1.1-5.3-2.9
		C263.3,465.6,265.3,464.5,268.6,464.5z M268.6,469.1c2.3,0,3.6-0.6,3.6-1.6c0-1-1.3-1.6-3.6-1.6c-2.3,0-3.6,0.6-3.6,1.6
		C265,468.5,266.3,469,268.6,469.1z M272,454.6h1.7v4h2.3v1.4h-2.3v4.1H272V454.6z"/>
	<path class="st4" d="M284.9,457.3h3.4v-2.7h1.7v11.5h-1.7v-4.1h-3.4v1.4h-7.3V456h7.3V457.3z M283.3,462.1v-4.8h-4v4.8H283.3z
		 M279.7,465.1h1.7v3.6h8.9v1.4h-10.6V465.1z M288.3,460.7v-2h-3.4v2H288.3z"/>
</g>
<g>
	<path class="st4" d="M365.8,488.8h-4.6v-1.4h6.2c0,4.1-1.4,7.9-5.9,10.4l-1-1.2C364.1,494.7,365.5,492,365.8,488.8z M374.1,501.1
		h-1.6V493h-2v7.4H369v-14.6h1.6v5.8h2v-6.2h1.6V501.1z"/>
	<path class="st4" d="M388.8,487.5c0,1.3,0,2.8-0.4,4.8h2.2v1.3h-6.3v3.7h-1.7v-3.7h-6.4v-1.3h10.5c0.4-2,0.4-3.4,0.4-4.7H378v-1.4
		h10.8V487.5z M378,495.8h1.7v3.6h9.5v1.4H378V495.8z"/>
	<path class="st4" d="M399.8,488.1h3.4v-2.7h1.7v11.5h-1.7v-4.1h-3.4v1.4h-7.3v-7.5h7.3V488.1z M398.1,492.9v-4.8h-4v4.8H398.1z
		 M394.6,495.8h1.7v3.6h8.9v1.4h-10.6V495.8z M403.2,491.4v-2h-3.4v2H403.2z"/>
</g>
<g>
	<path class="st4" d="M514.6,480.9l-0.9,1.3c-1.9-0.8-3.3-2.6-4.1-4.7c-0.7,2.2-2.2,4.2-4,5.1l-1-1.3c2.4-1.1,4.1-4.1,4.1-6.8v-1.7
		h-3.6v-1.4h8.9v1.4h-3.6v1.7C510.5,477.1,512.2,479.8,514.6,480.9z M516.1,469.8h1.7v15.8h-1.7V469.8z"/>
	<path class="st4" d="M529.1,472.3h-1.5v4.8c0.7-0.1,1.3-0.1,1.9-0.2l0.1,1.3c-3,0.5-6.6,0.5-9.1,0.5l-0.2-1.4c0.6,0,1.2,0,1.9,0v-5
		h-1.5V471h8.4V472.3z M528.1,479.8c3.3,0,5.3,1,5.3,2.9c0,1.8-2,2.9-5.3,2.8c-3.3,0-5.3-1-5.3-2.8
		C522.8,480.9,524.8,479.8,528.1,479.8z M526,477.2v-4.9h-2.2v4.9C524.5,477.3,525.2,477.2,526,477.2z M528.1,484.3
		c2.3,0,3.7-0.6,3.7-1.6c0-1-1.4-1.6-3.7-1.6c-2.3,0-3.7,0.6-3.7,1.6C524.4,483.7,525.8,484.3,528.1,484.3z M529.3,475.5h2.4v-1.5
		h-2.4v-1.3h2.4v-2.7h1.7v9.7h-1.7v-2.7h-2.4V475.5z"/>
	<path class="st4" d="M543.8,472.5h3.4v-2.7h1.7v11.5h-1.7v-4.1h-3.4v1.4h-7.3v-7.5h7.3V472.5z M542.2,477.3v-4.8h-4v4.8H542.2z
		 M538.6,480.3h1.7v3.6h8.9v1.4h-10.6V480.3z M547.3,475.9v-2h-3.4v2H547.3z"/>
</g>
<g>
	<path class="st4" d="M649.2,462c2.4,0,4.2,1.5,4.2,3.7c0,2.2-1.8,3.7-4.2,3.7c-2.4,0-4.2-1.5-4.2-3.7
		C645,463.5,646.8,462,649.2,462z M649.2,468c1.5,0,2.6-0.9,2.6-2.3c0-1.4-1.1-2.3-2.6-2.3c-1.5,0-2.6,0.9-2.5,2.3
		C646.7,467.1,647.7,468,649.2,468z M652.1,470.8c3.2,0,5.2,1.1,5.2,3c0,1.9-2,3-5.2,3c-3.3,0-5.3-1.1-5.3-3
		C646.8,471.9,648.8,470.8,652.1,470.8z M652.1,475.4c2.3,0,3.6-0.6,3.6-1.7c0-1.1-1.3-1.7-3.6-1.7c-2.3,0-3.6,0.6-3.6,1.7
		C648.5,474.8,649.8,475.4,652.1,475.4z M659.4,464.6h-2.2v2h2.2v1.4h-2.2v2.3h-1.7V461h1.7v2.2h2.2V464.6z"/>
	<path class="st4" d="M674.7,470h-14.4v-1.3h6.4V467h-4.6v-5.3H673v1.3h-9.2v2.6h9.3v1.3h-4.7v1.7h6.4V470z M667.5,471.1
		c3.4,0,5.4,1,5.4,2.9c0,1.8-2,2.9-5.4,2.9c-3.4,0-5.5-1-5.5-2.9S664.1,471.1,667.5,471.1z M667.5,475.5c2.4,0,3.8-0.5,3.8-1.5
		c0-1-1.4-1.6-3.8-1.6c-2.4,0-3.8,0.6-3.8,1.6C663.7,474.9,665.1,475.5,667.5,475.5z"/>
	<path class="st4" d="M683.9,463.7h3.4v-2.7h1.7v11.5h-1.7v-4.1h-3.4v1.4h-7.3v-7.5h7.3V463.7z M682.3,468.5v-4.8h-4v4.8H682.3z
		 M678.8,471.5h1.7v3.6h8.9v1.4h-10.6V471.5z M687.4,467.1v-2h-3.4v2H687.4z"/>
</g>
<g>
	<path class="st4" d="M166.9,444.9h-5.6v-1.4h7.4c0,4.1-2.8,7-7.4,8.3l-0.7-1.4C164.3,449.5,166.6,447.4,166.9,444.9z M168,451.9
		c3.2,0,5.2,1.2,5.2,3.1c0,1.9-2,3.1-5.2,3.1c-3.2,0-5.2-1.2-5.2-3.1C162.8,453.1,164.8,451.9,168,451.9z M168,456.8
		c2.2,0,3.6-0.7,3.6-1.8s-1.4-1.8-3.6-1.8c-2.2,0-3.6,0.7-3.6,1.8C164.4,456.1,165.8,456.8,168,456.8z M173,446.4h2.3v1.4H173v4
		h-1.7v-9.4h1.7V446.4z"/>
	<path class="st4" d="M176.1,444.9h3.9v-2.2h1.7v2.2h3.8v1.4h-9.3V444.9z M180.9,447.4c2.3,0,3.9,1.5,3.9,3.7c0,2.2-1.7,3.7-3.9,3.7
		c-2.3,0-3.9-1.5-3.9-3.7C176.9,448.9,178.6,447.4,180.9,447.4z M180.9,453.3c1.3,0,2.3-0.9,2.3-2.3c0-1.3-1-2.3-2.3-2.3
		c-1.3,0-2.3,0.9-2.3,2.3C178.5,452.4,179.5,453.3,180.9,453.3z M188.5,448.8h2.5v1.4h-2.5v8h-1.7v-15.8h1.7V448.8z"/>
	<path class="st4" d="M199.8,445.1h3.4v-2.7h1.7v11.5h-1.7v-4.1h-3.4v1.4h-7.3v-7.5h7.3V445.1z M198.2,449.9v-4.8h-4v4.8H198.2z
		 M194.6,452.8h1.7v3.6h8.9v1.4h-10.6V452.8z M203.2,448.4v-2h-3.4v2H203.2z"/>
</g>
<g>
	<path class="st4" d="M426.3,347.6h-14.4v-1.4h3.4v-2.1c-1.2-0.5-1.9-1.3-1.9-2.3c0-1.9,2.2-3,5.6-3c3.5,0,5.6,1.1,5.6,3
		c0,1-0.7,1.8-1.9,2.3v2.1h3.5V347.6z M419.1,348.7c3.4,0,5.4,1,5.4,2.8c0,1.8-2,2.8-5.4,2.8c-3.4,0-5.5-1-5.5-2.8
		C413.7,349.7,415.7,348.7,419.1,348.7z M419.1,343.4c2.4,0,3.9-0.6,3.9-1.7c0-1.1-1.5-1.7-3.9-1.7c-2.5,0-3.9,0.6-3.9,1.7
		C415.2,342.8,416.7,343.4,419.1,343.4z M419.1,353c2.4,0,3.8-0.5,3.8-1.5c0-1-1.4-1.5-3.8-1.5c-2.4,0-3.8,0.5-3.8,1.5
		C415.3,352.4,416.7,353,419.1,353z M421.2,346.2v-1.7c-0.6,0.1-1.3,0.1-2.1,0.1c-0.7,0-1.4-0.1-2-0.1v1.7H421.2z"/>
	<path class="st4" d="M441.9,347.9h-6.3v3.1H434v-3.1h-6.5v-1.4h14.4V347.9z M429.3,349.4h1.7v3.2h9.4v1.4h-11V349.4z M429.3,339.3
		H440v5.6h-10.7V339.3z M438.4,343.6v-3H431v3H438.4z"/>
	<path class="st4" d="M451.1,341.2h3.4v-2.7h1.7v11.5h-1.7V346h-3.4v1.4h-7.3v-7.5h7.3V341.2z M449.5,346v-4.8h-4v4.8H449.5z
		 M445.9,349h1.7v3.6h8.9v1.4h-10.6V349z M454.5,344.6v-2h-3.4v2H454.5z"/>
</g>
<g>
	<path class="st4" d="M487.7,218.4h7v1.4h-5.4v4.6c3.1,0,4.8-0.1,6.8-0.5l0.2,1.4c-2.1,0.4-4,0.5-7.4,0.5h-1.2V218.4z M489.4,227.3
		h1.7v3.8h9v1.4h-10.7V227.3z M499.4,221.7h2.3v1.4h-2.3v5.4h-1.7v-11.4h1.7V221.7z"/>
	<path class="st4" d="M512.8,222.5l0.1,1.1c-1.5,0.2-3,0.3-4.5,0.4v2.4h-1.7v-2.3c-1.4,0-2.8,0-4,0l-0.2-1.2
		C505.6,222.9,509.4,222.9,512.8,222.5z M507.6,217.4c2.3,0,3.9,0.9,3.9,2.4c0,1.5-1.6,2.4-3.9,2.4c-2.4,0-3.9-0.9-3.9-2.4
		C503.7,218.3,505.2,217.4,507.6,217.4z M504.9,226.9h10.8v3.4h-9.1v1.2h9.5v1.2H505v-3.5h9.1V228h-9.1V226.9z M507.6,221
		c1.4,0,2.4-0.5,2.4-1.2c0-0.8-0.9-1.2-2.4-1.2c-1.5,0-2.4,0.5-2.4,1.2C505.3,220.5,506.2,221,507.6,221z M515.7,226.4H514v-0.8
		h-3.1v-1.1h3.1v-7.4h1.7V226.4z"/>
	<path class="st4" d="M526.1,219.8h3.4v-2.7h1.7v11.5h-1.7v-4.1h-3.4v1.4h-7.3v-7.5h7.3V219.8z M524.5,224.6v-4.8h-4v4.8H524.5z
		 M521,227.5h1.7v3.6h8.9v1.4H521V227.5z M529.6,223.2v-2h-3.4v2H529.6z"/>
</g>
<g>
	<path class="st4" d="M655.1,299.6l-0.8,1.3c-1.8-0.5-3.2-1.6-3.9-3.1c-0.7,1.6-2.1,2.9-3.9,3.5l-0.8-1.3c2.4-0.8,3.9-2.6,3.9-4.7
		v-0.2h-3.4v-1.3h3.4v-1.9h1.7v1.9h3.4v1.3h-3.4v0.2C651.1,297.2,652.7,298.9,655.1,299.6z M653.5,301.9c3.3,0,5.3,1.1,5.3,2.9
		c0,1.9-2,2.9-5.3,2.9c-3.3,0-5.3-1.1-5.3-2.9C648.1,302.9,650.2,301.9,653.5,301.9z M653.5,306.4c2.3,0,3.7-0.6,3.7-1.6
		c0-1-1.4-1.6-3.7-1.6s-3.7,0.6-3.7,1.6C649.8,305.8,651.2,306.4,653.5,306.4z M654.1,296.4h3V292h1.7v9.5h-1.7v-3.8h-3V296.4z"/>
	<path class="st4" d="M675.6,301.2h-6.2v3.1h-1.7v-3.1h-6.5v-1.4h14.4V301.2z M668.3,292.3c3.4,0,5.6,1.2,5.6,3.2
		c0,2-2.2,3.2-5.6,3.2s-5.6-1.2-5.6-3.2C662.7,293.6,665,292.3,668.3,292.3z M663,302.7h1.7v3.3h9.3v1.4h-11V302.7z M668.3,297.4
		c2.3,0,3.8-0.7,3.8-1.8c0-1.2-1.5-1.9-3.8-1.9c-2.3,0-3.8,0.7-3.8,1.9C664.5,296.7,666,297.4,668.3,297.4z"/>
	<path class="st4" d="M684.8,294.6h3.4V292h1.7v11.5h-1.7v-4.1h-3.4v1.4h-7.3v-7.5h7.3V294.6z M683.1,299.4v-4.8h-4v4.8H683.1z
		 M679.6,302.4h1.7v3.6h8.9v1.4h-10.6V302.4z M688.2,298v-2h-3.4v2H688.2z"/>
</g>
</svg>
