<?xml version="1.0" encoding="UTF-8"?>
<svg id="Layer_2" data-name="Layer 2" xmlns="http://www.w3.org/2000/svg" viewBox="0 0 10.5 10.5">
  <g id="Layer_1-2" data-name="Layer 1">
    <path d="M10.4,9.95c.14,.15,.14,.3,0,.45-.07,.07-.14,.1-.23,.1s-.16-.03-.25-.1l-2.91-2.89c-.77,.66-1.69,1-2.77,1.03-1.2-.03-2.2-.44-2.99-1.25C.44,6.47,.03,5.47,0,4.27,.03,3.06,.44,2.06,1.23,1.25,2.04,.44,3.04,.03,4.25,0c1.2,.03,2.21,.44,3.01,1.25s1.22,1.81,1.25,3.01c-.01,1.08-.35,2-1,2.77l2.89,2.91Zm-6.13-2.07c1.03-.03,1.87-.38,2.54-1.05s1.04-1.54,1.07-2.56c-.03-1.03-.38-1.88-1.05-2.56-.68-.67-1.54-1.02-2.56-1.05-1.03,.03-1.88,.38-2.56,1.07S.68,3.24,.66,4.27c.03,1.03,.38,1.87,1.05,2.54s1.54,1.04,2.56,1.07Z"/>
  </g>
</svg>