<?xml version="1.0" encoding="UTF-8"?>
<svg id="Layer_2" data-name="Layer 2" xmlns="http://www.w3.org/2000/svg" viewBox="0 0 24 24">
  <defs>
    <style>
      .cls-1 {
        fill: none;
      }
    </style>
  </defs>
  <g id="_레이어_1" data-name="레이어 1">
    <g>
      <circle cx="12" cy="12" r="4"/>
      <g>
        <path class="cls-1" d="M12,5.84c-3.4,0-6.16,2.76-6.16,6.16s2.76,6.16,6.16,6.16,6.16-2.76,6.16-6.16-2.76-6.16-6.16-6.16Z"/>
        <path d="M23.93,7.05c-.2-4.35-2.62-6.78-6.98-6.98-1.28-.06-1.69-.07-4.95-.07s-3.67,.01-4.95,.07C2.69,.27,.27,2.69,.07,7.05c-.06,1.28-.07,1.69-.07,4.95s.01,3.67,.07,4.95c.2,4.36,2.62,6.78,6.98,6.98,1.28,.06,1.69,.07,4.95,.07s3.67-.01,4.95-.07c4.35-.2,6.78-2.62,6.98-6.98,.06-1.28,.07-1.69,.07-4.95s-.01-3.67-.07-4.95Zm-11.93,11.11c-3.4,0-6.16-2.76-6.16-6.16s2.76-6.16,6.16-6.16,6.16,2.76,6.16,6.16-2.76,6.16-6.16,6.16Zm6.45-11.19c-.8,0-1.44-.65-1.44-1.44s.65-1.44,1.44-1.44,1.44,.65,1.44,1.44-.64,1.44-1.44,1.44Z"/>
      </g>
    </g>
  </g>
</svg>