<?xml version="1.0" encoding="UTF-8"?>
<svg id="Layer_2" data-name="Layer 2" xmlns="http://www.w3.org/2000/svg" viewBox="0 0 262.91 49.99">
  <defs>
    <style>
      .cls-1 {
        fill: #62bfb3;
      }

      .cls-2 {
        fill: #595a5b;
      }
    </style>
  </defs>
  <g id="BI">
    <g>
      <g>
        <path class="cls-1" d="M62.57,7.13h-18.88c-.32-.24-.68-.46-1.09-.64-2.26-1.01-5.95-1-8.38,.99-.82-1.03-1.28-2.08-1.45-2.7,.7-.85,1.28-1.94,1.1-2.97-.14-.82-.72-1.46-1.54-1.71-.77-.23-1.56-.05-2.13,.49-.74,.7-.92,1.88-.92,2.91-5.11,3.72-13.77,3.65-16.63,3.63h-.52S0,7.13,0,7.13v3.35H12.62c2.93,.02,11.41,.09,17.41-3.47,1.38,3.06,4.84,6.78,10.29,6.81h.03c1.47,0,2.79-.5,3.7-1.41,.56-.56,.92-1.22,1.06-1.92h17.46v-3.35Zm-22.23,3.34c-1.33,0-2.46-.31-3.41-.78,1.07-.56,2.46-.62,3.5-.4,.79,.17,1.23,.45,1.37,.61-.12,.19-.57,.58-1.46,.56Z"/>
        <rect class="cls-1" y="24.64" width="62.57" height="5.26"/>
        <rect class="cls-1" y="43.78" width="62.57" height="6.21"/>
        <rect class="cls-1" y="33.73" width="62.57" height="6.21"/>
        <rect class="cls-1" y="15.95" width="62.57" height="4.3"/>
      </g>
      <g>
        <path class="cls-2" d="M77.74,17.86c0-1.54,.22-2.85,.65-3.95,.44-1.09,1.05-1.99,1.84-2.69,.79-.71,1.75-1.23,2.88-1.56,1.13-.33,2.37-.5,3.73-.5s2.62,.17,3.73,.5c1.1,.33,2.04,.85,2.8,1.56,.77,.71,1.36,1.6,1.77,2.69,.41,1.09,.61,2.41,.61,3.95s-.21,2.86-.61,3.95c-.41,1.09-1,1.99-1.77,2.69-.77,.71-1.7,1.23-2.8,1.56-1.1,.33-2.34,.5-3.73,.5s-2.6-.17-3.73-.5c-1.13-.33-2.09-.85-2.88-1.56-.79-.71-1.41-1.6-1.84-2.69-.44-1.09-.65-2.41-.65-3.95Zm3.89,18.23c0-1.26,.28-2.37,.83-3.32,.55-.95,1.34-1.74,2.37-2.37,1.03-.63,2.27-1.11,3.73-1.43,1.46-.32,3.09-.48,4.89-.48s3.42,.16,4.87,.48c1.45,.32,2.69,.8,3.71,1.43,1.03,.63,1.82,1.42,2.39,2.37,.56,.95,.85,2.06,.85,3.32s-.28,2.37-.85,3.32c-.56,.95-1.36,1.74-2.39,2.37-1.03,.63-2.27,1.11-3.71,1.43-1.45,.32-3.07,.48-4.87,.48s-3.43-.16-4.89-.48c-1.46-.32-2.71-.8-3.73-1.43-1.03-.63-1.82-1.42-2.37-2.37-.55-.95-.83-2.06-.83-3.32Zm8.47-18.23c0-2.21-.21-3.84-.64-4.89-.42-1.05-1.29-1.58-2.6-1.58s-2.18,.53-2.6,1.58c-.42,1.05-.64,2.68-.64,4.89s.21,3.84,.64,4.89c.42,1.05,1.29,1.58,2.6,1.58s2.18-.53,2.6-1.58c.42-1.05,.64-2.68,.64-4.89Zm-2.39,18.23c0,1.05,.14,1.94,.42,2.67,.28,.73,.68,1.32,1.19,1.76,.51,.45,1.12,.77,1.81,.96,.69,.19,1.46,.29,2.31,.29s1.58-.1,2.29-.29c.71-.19,1.31-.51,1.83-.96,.51-.45,.91-1.04,1.19-1.76,.28-.73,.42-1.62,.42-2.67s-.14-1.97-.42-2.69c-.28-.72-.68-1.3-1.19-1.75-.51-.45-1.12-.77-1.83-.96-.71-.19-1.47-.29-2.29-.29s-1.62,.1-2.31,.29c-.69,.19-1.3,.51-1.81,.96-.51,.45-.91,1.03-1.19,1.75-.28,.72-.42,1.61-.42,2.69Zm17.32-22.89h3.97v1.92h-3.97v4.62h3.97v1.92h-3.97v5.89h-4.62c-.59,0-.99-.12-1.19-.35-.21-.23-.31-.6-.31-1.12V8.73h6.12v4.47Z"/>
        <path class="cls-2" d="M130.25,9.97v2.23h-2.66v11.51h3.04v2.23h-19.36v-2.23h2.62V12.2h-2.62v-2.23h18.98Zm-14.4,26.12c0-1.26,.28-2.37,.83-3.32,.55-.95,1.34-1.74,2.37-2.37,1.03-.63,2.26-1.11,3.71-1.43,1.45-.32,3.07-.48,4.87-.48s3.43,.16,4.89,.48c1.46,.32,2.71,.8,3.73,1.43,1.03,.63,1.82,1.42,2.39,2.37,.56,.95,.85,2.06,.85,3.32s-.28,2.37-.85,3.32c-.56,.95-1.36,1.74-2.39,2.37-1.03,.63-2.27,1.11-3.73,1.43-1.46,.32-3.09,.48-4.89,.48s-3.42-.16-4.87-.48c-1.45-.32-2.69-.8-3.71-1.43-1.03-.63-1.82-1.42-2.37-2.37-.55-.95-.83-2.06-.83-3.32Zm3.31-23.89v11.51h3.39V12.2h-3.39Zm2.77,23.89c0,1.05,.14,1.94,.42,2.67,.28,.73,.67,1.32,1.17,1.76,.5,.45,1.1,.77,1.81,.96,.71,.19,1.47,.29,2.29,.29s1.62-.1,2.33-.29c.71-.19,1.31-.51,1.83-.96,.51-.45,.91-1.04,1.19-1.76,.28-.73,.42-1.62,.42-2.67s-.14-1.97-.42-2.69c-.28-.72-.68-1.3-1.19-1.75-.51-.45-1.12-.77-1.83-.96-.71-.19-1.48-.29-2.33-.29s-1.59,.1-2.29,.29c-.71,.19-1.31,.51-1.81,.96-.5,.45-.89,1.03-1.17,1.75-.28,.72-.42,1.61-.42,2.69Zm6.7-21.85h4.58v-5.66h6.08V27.6h-4.58c-.59,0-.99-.12-1.19-.35-.21-.23-.31-.6-.31-1.12v-4.54h-4.58v-2.23h4.58v-2.89h-4.58v-2.23Z"/>
        <path class="cls-2" d="M144.68,24.56c0-3.34,.24-6.02,.71-8.05,.47-2.03,1.12-3.59,1.94-4.68,.82-1.09,1.78-1.81,2.88-2.16,1.1-.35,2.29-.52,3.57-.52s2.46,.17,3.55,.52c1.09,.35,2.03,1.07,2.82,2.16,.79,1.09,1.41,2.65,1.86,4.68,.45,2.03,.67,4.71,.67,8.05s-.22,6.01-.67,8.03c-.45,2.02-1.07,3.57-1.86,4.66-.79,1.09-1.74,1.81-2.82,2.16-1.09,.35-2.27,.52-3.55,.52s-2.43-.17-3.53-.52c-1.1-.35-2.07-1.07-2.9-2.16s-1.49-2.64-1.96-4.66c-.47-2.01-.71-4.69-.71-8.03Zm5.89,0c0,2.9,.06,5.21,.19,6.93,.13,1.72,.33,3.04,.6,3.97,.27,.92,.6,1.53,1,1.81,.4,.28,.88,.42,1.44,.42s1.05-.14,1.44-.42c.4-.28,.73-.89,1-1.81,.27-.92,.47-2.25,.6-3.97,.13-1.72,.19-4.03,.19-6.93s-.06-5.18-.19-6.91c-.13-1.73-.33-3.06-.6-3.98-.27-.92-.6-1.53-1-1.83-.4-.29-.88-.44-1.44-.44s-1.05,.16-1.44,.48c-.4,.32-.73,.96-1,1.91-.27,.95-.47,2.28-.6,4-.13,1.72-.19,3.98-.19,6.78Zm25.41,.62h-4v17.48h-4.69c-.88,0-1.32-.44-1.32-1.31V8.77h6.01v14.17h4v2.23Z"/>
        <path class="cls-2" d="M207.7,39.92h-29.33v-2.23h29.33v2.23Zm-26.79-30.14h24.25v2.27h-18.17v6.54h17.59v2.27h-17.59v6.51h18.36v2.27h-24.45V9.77Z"/>
        <path class="cls-2" d="M214.79,39.91c-.65,0-1.06-.16-1.24-.49-.17-.33-.26-.72-.26-1.17V9.84h10.39c1.82,0,3.53,.36,5.15,1.09s3.02,1.81,4.22,3.26c2.36,2.87,3.53,6.44,3.53,10.71s-1.18,7.79-3.53,10.67c-1.19,1.45-2.6,2.54-4.22,3.26-1.62,.73-3.34,1.09-5.15,1.09h-8.9Zm7.85-1.88c1.19,0,2.2-.21,3.03-.62,.82-.41,1.51-.96,2.05-1.64,.54-.68,.96-1.48,1.26-2.39,.3-.91,.52-1.85,.66-2.82,.14-.97,.23-1.94,.26-2.92,.03-.98,.04-1.9,.04-2.75,0-1.39-.06-2.86-.17-4.42-.11-1.55-.41-2.97-.87-4.27-.47-1.29-1.19-2.37-2.15-3.22-.97-.85-2.3-1.28-4.01-1.28h-2.77v26.32h2.69Z"/>
        <path class="cls-2" d="M241.28,9.84h9.6c3.61,0,6.24,.51,7.89,1.52,1.65,1.01,2.47,2.55,2.47,4.6,0,1.8-.63,3.25-1.88,4.35-1.26,1.1-3.27,1.8-6.03,2.12,1.31,0,2.53,.15,3.68,.45,1.15,.3,2.16,.79,3.04,1.47,.88,.68,1.58,1.57,2.09,2.68,.51,1.11,.77,2.47,.77,4.09,0,2.01-.41,3.6-1.24,4.77s-1.86,2.04-3.11,2.64-2.6,.98-4.04,1.15c-1.45,.17-2.81,.26-4.09,.26h-7.32c-1.22,0-1.83-.67-1.83-2V9.84Zm6.66,1.88v9.77h2.18c1.08,0,1.94-.13,2.58-.4,.64-.27,1.12-.65,1.45-1.13,.33-.48,.54-1.06,.64-1.73,.1-.67,.13-1.4,.11-2.2-.06-1.62-.42-2.74-1.09-3.37-.67-.63-1.64-.94-2.92-.94h-2.94Zm0,26.32h2.52c3.87,0,5.8-2.32,5.8-6.95,0-1.37-.11-2.54-.34-3.52-.23-.98-.61-1.78-1.15-2.41-.54-.63-1.27-1.08-2.18-1.37-.91-.28-2.05-.43-3.41-.43h-1.24v14.68Z"/>
      </g>
    </g>
  </g>
</svg>