<?xml version="1.0" encoding="UTF-8"?>
<svg id="Layer_2" data-name="Layer 2" xmlns="http://www.w3.org/2000/svg" viewBox="0 0 195.36 201.74">
  <defs>
    <style>
      .cls-1 {
        fill: #fff;
      }
    </style>
  </defs>
  <g id="_Layer_" data-name="&amp;lt;Layer&amp;gt;">
    <path class="cls-1" d="M0,199.32c6.05-13.26,15.25-26.46,28.07-40.31l2.01-2.18-2.77-1.05c-5.8-2.2-10.87-6.42-14.65-12.2-4.31-6.58-6.41-14.2-7.72-20.51l5.97-1.14c1.68,8.01,3.81,13.72,6.83,18.32,1.87,2.85,5.99,7.96,12.57,10.14l3.43,1.13-.86-3.51c-7.7-31.49,14.23-57.38,28.75-74.51l1.58-1.86,2.16,1.14c3.71,1.97,6.97,4.23,9.96,6.94l3.32,3,.02-4.47c.03-6.13-1.13-11.96-2.14-16.35l-.38-1.65,1.2-1.19C109.96,26.79,167.18,2.38,190.72,.39l4.64-.39-1.51,4.4c-1.06,3.09-2.11,6.27-3.19,9.56-8.57,25.98-19.21,58.23-51.8,102.12l-1.53,2.06-2.28-1.16c-3.87-1.96-7.88-2.91-12.28-2.91-1.17,0-2.39,.07-3.61,.21l-5.43,.62,4.55,3.03c3.96,2.64,7.23,5.69,11.28,10.52l2.56,3.05-3.62,1.66c-4.59,2.1-10.2,6.98-16.14,12.15-11.61,10.1-27.52,23.93-45.78,23.93-7.63,0-15.25-2.43-22.67-7.23l-3.95-2.55,.9,4.61c.76,3.91,2.28,7.78,4.52,11.49,3.48,5.76,8.25,10.64,13.7,15.82l-4.17,4.42c-5.78-5.49-10.87-10.7-14.73-17.1-2.61-4.31-4.38-8.83-5.28-13.43l-.76-3.9-2.68,2.93c-11.78,12.91-20.27,25.17-25.88,37.43l-5.57-2.42ZM165.81,30.16c-14.18,12.78-31.97,32.39-47.74,49.77-6.71,7.4-13.05,14.38-18.55,20.22-10.43,11.07-21.96,21.23-33.12,31.05-6.42,5.66-13.07,11.51-19.41,17.46-1.02,.95-2.07,1.96-3.15,2.99l-1.7,1.63,1.89,1.41c7.57,5.66,15.02,8.41,22.77,8.41h0c15.82,0,29.49-11.88,41.54-22.36,4.34-3.77,8.38-7.28,12.13-9.88l1.97-1.37-1.7-1.69c-4.53-4.5-8.61-6.68-16.03-10.44l-6-3.04,6.25-2.49c6.46-2.57,12.3-3.82,17.84-3.82,3.9,0,7.68,.65,11.23,1.94l1.42,.51,.88-1.22c30.16-41.46,40.34-72.32,48.52-97.11l1.69-5.11-3.46,.79c-23.51,5.36-69.92,25.54-99.47,53.63l-.81,.77,.23,1.09c1.51,7.2,2.88,16.79,.13,27.16l-1.6,6.01-3.76-4.95c-3.73-4.91-7.33-8.37-11.67-11.21l-1.49-.97-1.14,1.37c-15.55,18.65-30.31,38.93-25.26,63.65l.72,3.52,3.85-3.64c6.45-6.06,13.11-11.92,19.55-17.59,11.05-9.74,22.48-19.81,32.71-30.66,5.42-5.75,11.67-12.64,18.29-19.93l.18-.2c15.88-17.5,33.8-37.25,48.22-50.24l4.02,4.55Z"/>
  </g>
</svg>