<?xml version="1.0" encoding="UTF-8"?>
<svg id="Layer_2" data-name="Layer 2" xmlns="http://www.w3.org/2000/svg" viewBox="0 0 10.66 12.56">
  <defs>
    <style>
      .cls-1 {
        fill: #fff;
      }
    </style>
  </defs>
  <g id="_1" data-name="1">
    <path class="cls-1" d="M10.54,9.47c.14-.16,.09-.38,.09-.58V3.37c.06-.12,.02-.27-.1-.34C8.79,2.03,7.04,1.03,5.3,.04c-.08-.05-.19-.05-.27,0C3.41,1.03,1.78,2.03,.15,3.02c-.05,.03-.09,.08-.11,.12-.01,.03-.02,.07-.02,.11v5.33c0,.2-.05,.47,0,.67,.05,.22,.19,.27,.37,.38l2.55,1.55c.73,.45,1.47,.89,2.2,1.34,.13,.08,.28,.02,.36-.09,1.5-.88,3-1.77,4.49-2.65,.16-.09,.42-.18,.54-.32Zm-5.52,2.36c-1.49-.9-2.98-1.81-4.46-2.71V3.73c1.49,.91,2.98,1.81,4.46,2.72v5.38Zm.27-5.84c-1.5-.91-2.99-1.82-4.49-2.73,1.46-.89,2.91-1.78,4.37-2.68,1.57,.89,3.13,1.79,4.7,2.68-1.53,.91-3.06,1.82-4.58,2.73Zm1.98,4.87c-.57,.34-1.15,.68-1.72,1.01V6.45c1.54-.92,3.07-1.83,4.61-2.75v4.75c0,.07-.04,.48-.03,.69-.09,.05-.19,.14-.25,.17-.87,.51-1.74,1.03-2.61,1.54Z"/>
  </g>
</svg>