<svg id="Layer_1" data-name="Layer 1" xmlns="http://www.w3.org/2000/svg" viewBox="0 0 502.88 567.05"><defs><style>.cls-1{fill:none;stroke:#000;stroke-linecap:round;stroke-linejoin:round;stroke-width:9px;}</style></defs><path class="cls-1" d="M50.53,615.32c-.1,32.24,44.94,25.85,60,46.89,16.38,16-6.69,46.38-22,25.87-1.37-25.06,13-52.56,21.92-76,22.32-10.78,47.18-68.44,13.44-71.93-37.85,17.12-18.72,81.84,17,88.5,39.89-18.14,43.65-81.3,21.57-115.16l62.86,30.37a177.25,177.25,0,0,0-19.58-86.08c87.16,207.54-58.79,220.38,56,2.35,37.11-44.07-16.36-90.7-21.7-26.05-4.25,51.36,67.27,73,73.82,14.22,4.05-36.34-4.19-77.25,8.72-108.89-36.08,36.41,28.28,115.2,48,52.43,4-24.55-28-77.75-45.55-58.52-30.71,33.72,64.52-19.15,60-49.18-3.76-25.25,34.92,37.38,48.74,58.85-24.56-21-28.52-64.27-22.17-95.49C429.23,218,468,271.88,488.69,280c22.42-23.33,10.61-58.79-1.55-84.57,48.35,93,61.83,2.28,56-51" transform="translate(-46.03 -132.41)"/><path class="cls-1" d="M467.28,170.12a38.94,38.94,0,0,0,7-33.21" transform="translate(-46.03 -132.41)"/></svg>